<svg width="16" height="16" viewBox="0 0 16 16" fill="none" xmlns="http://www.w3.org/2000/svg">
<path d="M12.6377 11.058V13.1666C12.6377 13.9951 11.9661 14.6666 11.1377 14.6666H4.8623C4.03387 14.6666 3.3623 13.9951 3.3623 13.1666V11.058M12.6377 11.058V8.57969C12.6377 8.57969 14.6666 7.99998 14.6666 5.68114C14.6666 3.94201 12.6377 2.20288 10.8985 2.78259C10.8985 2.78259 9.73911 1.33331 7.99998 1.33331C6.26085 1.33331 5.10143 2.78259 5.10143 2.78259C3.3623 2.20288 1.33331 3.94201 1.33331 5.68114C1.33331 7.99998 3.3623 8.57969 3.3623 8.57969V11.058M12.6377 11.058H3.3623" stroke="#65BF4F" stroke-width="1.5" stroke-linecap="round" stroke-linejoin="round"/>
<path d="M12.6377 11.058V13.1666C12.6377 13.9951 11.9661 14.6666 11.1377 14.6666H4.8623C4.03387 14.6666 3.3623 13.9951 3.3623 13.1666V11.058M12.6377 11.058V8.57969C12.6377 8.57969 14.6666 7.99998 14.6666 5.68114C14.6666 3.94201 12.6377 2.20288 10.8985 2.78259C10.8985 2.78259 9.73911 1.33331 7.99998 1.33331C6.26085 1.33331 5.10143 2.78259 5.10143 2.78259C3.3623 2.20288 1.33331 3.94201 1.33331 5.68114C1.33331 7.99998 3.3623 8.57969 3.3623 8.57969V11.058M12.6377 11.058H3.3623" stroke="#A1A75C" stroke-width="1.5" stroke-linecap="round" stroke-linejoin="round"/>
</svg>
