<svg width="68" height="63" viewBox="0 0 68 63" fill="none" xmlns="http://www.w3.org/2000/svg">
<path opacity="0.5" d="M29.24 12.5874L30.9091 10.7285V22.0398C30.9091 22.8754 31.2347 23.6768 31.8144 24.2677C32.3941 24.8586 33.1802 25.1906 34 25.1906C34.8198 25.1906 35.6059 24.8586 36.1856 24.2677C36.7653 23.6768 37.0909 22.8754 37.0909 22.0398V10.7285L38.76 12.4614C39.0406 12.7844 39.3832 13.0453 39.7667 13.2278C40.1503 13.4103 40.5665 13.5105 40.9895 13.5224C41.4126 13.5342 41.8336 13.4573 42.2263 13.2965C42.6191 13.1356 42.9752 12.8943 43.2727 12.5874C43.5624 12.2945 43.7924 11.946 43.9493 11.5621C44.1062 11.1781 44.187 10.7663 44.187 10.3504C44.187 9.93443 44.1062 9.52261 43.9493 9.13865C43.7924 8.7547 43.5624 8.40622 43.2727 8.11331L36.1945 0.898017C35.9006 0.611167 35.554 0.386311 35.1745 0.236351C34.422 -0.0787838 33.578 -0.0787838 32.8255 0.236351C32.446 0.386311 32.0994 0.611167 31.8055 0.898017L24.7273 7.98728C24.1288 8.5973 23.7927 9.42466 23.7927 10.2874C23.7927 11.1501 24.1288 11.9774 24.7273 12.5874C25.3257 13.1974 26.1373 13.5402 26.9836 13.5402C27.8299 13.5402 28.6416 13.1974 29.24 12.5874ZM34 31.4921C32.166 31.4921 30.3732 32.0465 28.8483 33.0852C27.3235 34.1238 26.1349 35.6 25.4331 37.3272C24.7313 39.0544 24.5477 40.955 24.9054 42.7886C25.2632 44.6221 26.1464 46.3064 27.4432 47.6283C28.74 48.9503 30.3922 49.8505 32.191 50.2152C33.9897 50.58 35.8541 50.3928 37.5485 49.6773C39.2429 48.9619 40.6911 47.7504 41.71 46.1959C42.7289 44.6415 43.2727 42.814 43.2727 40.9445C43.2727 38.4376 42.2958 36.0333 40.5568 34.2607C38.8178 32.488 36.4593 31.4921 34 31.4921ZM34 44.0953C33.3887 44.0953 32.7911 43.9105 32.2828 43.5643C31.7745 43.2181 31.3783 42.726 31.1444 42.1503C30.9104 41.5745 30.8492 40.941 30.9685 40.3298C31.0877 39.7186 31.3821 39.1572 31.8144 38.7166C32.2467 38.2759 32.7974 37.9758 33.397 37.8543C33.9966 37.7327 34.618 37.7951 35.1828 38.0336C35.7476 38.272 36.2304 38.6759 36.57 39.194C36.9096 39.7122 37.0909 40.3213 37.0909 40.9445C37.0909 41.7801 36.7653 42.5816 36.1856 43.1724C35.6059 43.7633 34.8198 44.0953 34 44.0953ZM12.3636 40.9445C12.3636 41.5677 12.5449 42.1768 12.8845 42.695C13.2242 43.2131 13.7069 43.617 14.2717 43.8554C14.8365 44.0939 15.458 44.1563 16.0576 44.0347C16.6571 43.9132 17.2079 43.6131 17.6401 43.1724C18.0724 42.7318 18.3668 42.1704 18.4861 41.5592C18.6053 40.948 18.5441 40.3145 18.3102 39.7387C18.0762 39.163 17.6801 38.6709 17.1718 38.3247C16.6635 37.9785 16.0659 37.7937 15.4545 37.7937C14.6348 37.7937 13.8486 38.1257 13.2689 38.7166C12.6893 39.3074 12.3636 40.1089 12.3636 40.9445ZM55.6364 40.9445C55.6364 40.3213 55.4551 39.7122 55.1155 39.194C54.7758 38.6759 54.2931 38.272 53.7283 38.0336C53.1635 37.7951 52.542 37.7327 51.9424 37.8543C51.3429 37.9758 50.7921 38.2759 50.3598 38.7166C49.9276 39.1572 49.6332 39.7186 49.5139 40.3298C49.3947 40.941 49.4559 41.5745 49.6898 42.1503C49.9238 42.726 50.3199 43.2181 50.8282 43.5643C51.3365 43.9105 51.9341 44.0953 52.5455 44.0953C53.3652 44.0953 54.1514 43.7633 54.7311 43.1724C55.3107 42.5816 55.6364 41.7801 55.6364 40.9445ZM58.7273 18.889H46.3636C45.5439 18.889 44.7577 19.221 44.178 19.8118C43.5984 20.4027 43.2727 21.2041 43.2727 22.0398C43.2727 22.8754 43.5984 23.6768 44.178 24.2677C44.7577 24.8586 45.5439 25.1906 46.3636 25.1906H58.7273C59.547 25.1906 60.3332 25.5225 60.9129 26.1134C61.4925 26.7043 61.8182 27.5057 61.8182 28.3414V53.5476C61.8182 54.3833 61.4925 55.1847 60.9129 55.7756C60.3332 56.3665 59.547 56.6984 58.7273 56.6984H9.27273C8.45297 56.6984 7.66678 56.3665 7.08712 55.7756C6.50747 55.1847 6.18182 54.3833 6.18182 53.5476V28.3414C6.18182 27.5057 6.50747 26.7043 7.08712 26.1134C7.66678 25.5225 8.45297 25.1906 9.27273 25.1906H21.6364C22.4561 25.1906 23.2423 24.8586 23.822 24.2677C24.4016 23.6768 24.7273 22.8754 24.7273 22.0398C24.7273 21.2041 24.4016 20.4027 23.822 19.8118C23.2423 19.221 22.4561 18.889 21.6364 18.889H9.27273C6.81345 18.889 4.45489 19.8849 2.71592 21.6575C0.976945 23.4302 0 25.8344 0 28.3414V53.5476C0 56.0546 0.976945 58.4588 2.71592 60.2315C4.45489 62.0041 6.81345 63 9.27273 63H58.7273C61.1866 63 63.5451 62.0041 65.2841 60.2315C67.0231 58.4588 68 56.0546 68 53.5476V28.3414C68 25.8344 67.0231 23.4302 65.2841 21.6575C63.5451 19.8849 61.1866 18.889 58.7273 18.889Z" fill="#0069FF"/>
</svg>
