<svg width="40" height="40" viewBox="0 0 40 40" fill="none" xmlns="http://www.w3.org/2000/svg">
<circle cx="20" cy="20" r="20" fill="#0069FF"/>
<path d="M17.2235 20.5814H18.7425V27.005C18.7425 27.1319 18.8425 27.2346 18.966 27.2346H21.5415C21.665 27.2346 21.765 27.1319 21.765 27.005V20.6116H23.5112C23.6248 20.6116 23.7203 20.5241 23.7333 20.4083L23.9985 18.0434C24.0058 17.9783 23.9857 17.9132 23.9433 17.8643C23.9009 17.8155 23.8402 17.7875 23.7765 17.7875H21.7651V16.3051C21.7651 15.8582 21.9993 15.6316 22.4614 15.6316C22.5272 15.6316 23.7765 15.6316 23.7765 15.6316C23.9 15.6316 24 15.5288 24 15.402V13.2313C24 13.1045 23.9 13.0017 23.7765 13.0017H21.9641C21.9513 13.0011 21.9229 13 21.8811 13C21.5666 13 20.4735 13.0634 19.6101 13.8794C18.6534 14.7836 18.7864 15.8663 18.8181 16.054V17.7875H17.2235C17.1 17.7875 17 17.8902 17 18.0171V20.3517C17 20.4786 17.1 20.5814 17.2235 20.5814Z" fill="white"/>
</svg>
