<svg width="24" height="27" viewBox="0 0 24 27" fill="none" xmlns="http://www.w3.org/2000/svg">
<path d="M20.0951 18.5452C19.2852 16.3874 18.1656 15.2909 16.6142 15.0536C17.014 15.0716 17.4121 15.1209 17.8053 15.2011C18.2084 15.3437 18.6014 15.5173 18.9814 15.7205C19.0678 15.3229 19.1839 14.9382 19.2345 14.5438C19.5105 12.4802 19.1849 10.3752 18.3025 8.5193C16.8316 5.41247 14.5894 3.31559 11.3884 2.498C9.90629 2.11196 8.34547 2.29656 6.97655 3.0198C5.60763 3.74303 4.51693 4.9593 3.89356 6.4577C1.99976 10.8342 3.51539 17.2467 8.56851 19.6193C9.63423 20.1271 10.7697 20.4444 11.9303 20.5587C12.0554 20.5587 12.1834 20.5587 12.3174 20.5587C12.2489 19.9848 12.1894 19.459 12.1179 18.8434C12.4326 19.2808 12.7728 19.6963 13.1363 20.0874C14.1382 21.0211 15.3891 21.589 16.7095 21.7097C18.6926 21.9245 20.5239 22.5401 22.0693 23.9765C22.8594 24.6683 23.492 25.5457 23.9184 26.5415C23.9786 26.6853 24.0062 26.8425 23.9988 27C23.7517 26.6633 23.5284 26.3107 23.2604 25.9965C21.8567 24.3307 19.9648 23.234 17.9005 22.8896C16.3909 22.6107 14.9497 22.9313 13.4608 23.2102C9.31888 23.9701 5.5819 22.9473 2.55063 19.6834C1.06179 18.0803 0.329283 16.0571 0.0851133 13.8224C-0.304962 10.2699 0.653851 7.14383 2.7948 4.45701C4.54285 2.2215 6.96871 0.723544 9.64346 0.227993C12.9189 -0.413252 15.9412 0.282499 18.5765 2.51403C20.6264 4.21334 21.9739 6.71217 22.3284 9.47155C22.7958 12.7932 21.9978 15.7686 20.1814 18.449C20.1552 18.4836 20.1263 18.5158 20.0951 18.5452Z" fill="#F38E17"/>
<path d="M16.9972 20.5926C17.0039 20.6446 16.9985 20.6975 16.9815 20.7474C16.9644 20.7973 16.9361 20.8432 16.8984 20.8819C16.8607 20.9206 16.8145 20.9511 16.7631 20.9715C16.7116 20.9919 16.6561 21.0015 16.6003 20.9998C16.4386 20.9944 16.2855 20.93 16.1736 20.8202C16.0617 20.7104 15.9999 20.5638 16.0012 20.4118C15.9969 20.3594 16.0041 20.3067 16.0224 20.257C16.0407 20.2073 16.0698 20.1617 16.1077 20.1231C16.1457 20.0844 16.1917 20.0535 16.2429 20.0323C16.2942 20.0112 16.3495 20.0002 16.4055 20C16.5669 20.0065 16.7193 20.0722 16.8299 20.183C16.9405 20.2937 17.0005 20.4407 16.9972 20.5926Z" fill="#F38E17"/>
<path d="M19.8987 20C19.5712 19.8956 19.3137 19.7445 19.1596 19.5663C19.0054 19.388 18.9617 19.1908 19.0339 19C19.7913 19.0763 20.204 19.548 19.8987 20Z" fill="#F38E17"/>
</svg>
