<svg width="63" height="62" viewBox="0 0 63 62" fill="none" xmlns="http://www.w3.org/2000/svg">
<path d="M12.6 24.8H25.2V3.1C25.2 2.27783 25.5319 1.48933 26.1226 0.907969C26.7134 0.326606 27.5146 0 28.35 0H44.1C44.9354 0 45.7366 0.326606 46.3274 0.907969C46.9181 1.48933 47.25 2.27783 47.25 3.1V18.6H59.85C60.6854 18.6 61.4866 18.9266 62.0774 19.508C62.6681 20.0893 63 20.8778 63 21.7V58.9C63 59.7222 62.6681 60.5107 62.0774 61.092C61.4866 61.6734 60.6854 62 59.85 62H12.6C11.7646 62 10.9633 61.6734 10.3726 61.092C9.78187 60.5107 9.45 59.7222 9.45 58.9V27.9C9.45 27.0778 9.78187 26.2893 10.3726 25.708C10.9633 25.1266 11.7646 24.8 12.6 24.8ZM47.25 55.8H56.7V24.8H47.25V55.8ZM31.5 55.8H40.95V6.2H31.5V55.8ZM15.75 55.8H25.2V31H15.75V55.8ZM3.15 6.2H6.3V3.1C6.3 2.27783 6.63187 1.48933 7.22261 0.907969C7.81335 0.326606 8.61457 0 9.45 0C10.2854 0 11.0866 0.326606 11.6774 0.907969C12.2681 1.48933 12.6 2.27783 12.6 3.1V6.2H15.75C16.5854 6.2 17.3866 6.52661 17.9774 7.10797C18.5681 7.68933 18.9 8.47783 18.9 9.3C18.9 10.1222 18.5681 10.9107 17.9774 11.492C17.3866 12.0734 16.5854 12.4 15.75 12.4H12.6V15.5C12.6 16.3222 12.2681 17.1107 11.6774 17.692C11.0866 18.2734 10.2854 18.6 9.45 18.6C8.61457 18.6 7.81335 18.2734 7.22261 17.692C6.63187 17.1107 6.3 16.3222 6.3 15.5V12.4H3.15C2.31457 12.4 1.51335 12.0734 0.922609 11.492C0.33187 10.9107 -1.90735e-06 10.1222 -1.90735e-06 9.3C-1.90735e-06 8.47783 0.33187 7.68933 0.922609 7.10797C1.51335 6.52661 2.31457 6.2 3.15 6.2V6.2Z" fill="#80B4FF"/>
</svg>
