<svg width="16" height="16" viewBox="0 0 16 16" fill="none" xmlns="http://www.w3.org/2000/svg">
<path d="M12.4189 11.394L12.1378 11.7448L12.4569 12.0615L15.4185 15.0014C15.4708 15.057 15.5 15.1306 15.5 15.2072C15.5 15.2841 15.4706 15.358 15.4179 15.4136C15.3905 15.4407 15.3582 15.4622 15.3227 15.477C15.2863 15.4922 15.2472 15.5 15.2077 15.5C15.1682 15.5 15.1291 15.4922 15.0926 15.477C15.0561 15.4618 15.023 15.4395 14.9952 15.4114L14.9937 15.4099L12.0515 12.4654L11.7345 12.1482L11.3848 12.4289C10.0489 13.5011 8.3534 14.0203 6.64685 13.8798C4.9403 13.7393 3.35231 12.9499 2.20943 11.6736C1.06654 10.3973 0.455662 8.73118 0.502508 7.01788C0.549355 5.30458 1.25036 3.67443 2.46127 2.4626C3.67217 1.25078 5.30091 0.549383 7.01258 0.50251C8.72425 0.455637 10.3889 1.06685 11.6642 2.21057C12.9395 3.35431 13.7285 4.94364 13.8689 6.65181C14.0093 8.35998 13.4904 10.057 12.4189 11.394ZM3.82516 12.2905C4.82776 12.961 6.00654 13.3188 7.21243 13.3188C8.82949 13.3188 10.3802 12.676 11.5236 11.5318C12.6669 10.3876 13.3091 8.83586 13.3091 7.21791C13.3091 6.01135 12.9516 4.83185 12.2817 3.82857C11.6119 2.82528 10.6597 2.04326 9.54565 1.58144C8.43158 1.11963 7.20567 0.998794 6.02296 1.23423C4.84025 1.46966 3.75391 2.05078 2.9013 2.90404C2.04869 3.7573 1.4681 4.84436 1.23289 6.02775C0.997679 7.21114 1.1184 8.43776 1.57979 9.55251C2.04119 10.6673 2.82256 11.6201 3.82516 12.2905Z" stroke="#0069FF"/>
</svg>
