<svg width="40" height="23" viewBox="0 0 40 23" fill="none" xmlns="http://www.w3.org/2000/svg">
<path d="M20.0279 0H39.5304C40 0 40 -6.48566e-08 40 0.473329V22.5457C40 23 40 23 39.541 23H0.432447C0 23 0 23 0 22.5566V0.451567C0 -3.24283e-08 0 0 0.453671 0H20.0279ZM35.3253 6.33554C34.1686 6.33554 33.0676 6.33554 31.9666 6.33554C31.8689 6.32606 31.7708 6.34929 31.6871 6.40177C31.6034 6.45425 31.5386 6.53314 31.5023 6.62661C29.8309 9.83836 28.1568 13.0519 26.4801 16.2673C26.4297 16.3625 26.3978 16.4686 26.3395 16.6155C27.3237 16.6155 28.2443 16.6155 29.165 16.6155C29.2552 16.6155 29.3772 16.4904 29.4303 16.3952C29.6054 16.0497 29.746 15.6824 29.9264 15.3424C29.9579 15.2864 30.0011 15.2384 30.0529 15.2017C30.1048 15.165 30.164 15.1406 30.2262 15.1302C31.1813 15.1139 32.1337 15.1302 33.0888 15.1302C33.1417 15.1425 33.1907 15.1684 33.2311 15.2056C33.2715 15.2427 33.302 15.2898 33.3196 15.3424C33.3568 15.6647 33.3754 15.989 33.3753 16.3135C33.3753 16.5203 33.4364 16.6318 33.6698 16.6291C34.4339 16.6291 35.1953 16.6291 35.9594 16.6291C36.177 16.6291 36.2433 16.542 36.2247 16.338C36.1796 15.9082 36.1398 15.4784 36.1027 15.0459C36.0072 13.9578 35.9223 12.8697 35.8374 11.7815C35.7392 10.6499 35.6357 9.52099 35.5349 8.38936C35.4553 7.70656 35.3917 7.04282 35.3253 6.33554ZM8.86383 12.6412C8.79751 11.4279 8.72322 10.0787 8.64628 8.72939C8.60649 8.04932 8.55873 7.36925 8.51363 6.68918C8.49771 6.45523 8.45526 6.28658 8.15016 6.2893C6.82364 6.30562 5.47854 6.2893 4.14141 6.30562C4.08152 6.30894 4.02334 6.3273 3.97199 6.35908C3.92064 6.39086 3.87769 6.43509 3.84692 6.48788C3.78059 6.70822 3.98753 6.6783 4.11222 6.6919C5.12038 6.81703 5.64569 7.2822 5.81017 8.32407C5.95875 9.26257 6.03303 10.2119 6.1365 11.1586C6.32752 12.8778 6.51589 14.5961 6.7016 16.3135C6.72548 16.5475 6.81303 16.6264 7.04119 16.6237C7.79465 16.6237 8.54812 16.6237 9.29893 16.6237C9.39733 16.6311 9.49556 16.6071 9.58012 16.555C9.66469 16.5029 9.73143 16.4252 9.77118 16.3326C11.5469 13.11 13.3307 9.89186 15.1224 6.6783C15.1781 6.58037 15.2205 6.47428 15.2895 6.32738C15.125 6.31378 15.0242 6.29746 14.8995 6.29746C14.1991 6.29746 13.4987 6.29746 12.801 6.29746C12.68 6.28075 12.557 6.3039 12.4497 6.36355C12.3424 6.4232 12.2564 6.51628 12.204 6.62933C11.0818 8.67498 9.94097 10.7098 8.86383 12.6412ZM18.0673 15.6933C18.2238 15.7885 18.3458 15.8701 18.4732 15.9409C19.7934 16.6742 21.2931 16.9984 22.7897 16.8739C24.3815 16.7651 25.5701 16.0578 26.2572 14.5481C26.695 13.5824 26.5995 12.6711 25.9203 11.8876C25.4656 11.4065 24.9702 10.9678 24.4399 10.5765C24.0393 10.2582 23.5776 10.0324 23.1876 9.68965C22.6332 9.2272 22.7685 8.57434 23.4529 8.34583C23.9518 8.17505 24.4957 8.20918 24.9705 8.44104C25.3115 8.6135 25.6381 8.81458 25.9468 9.04222C26.1033 9.15103 26.1909 9.15376 26.3156 9.00142C26.7188 8.50089 27.138 8.01124 27.5492 7.51342C27.5871 7.45574 27.62 7.39475 27.6474 7.33117C27.4962 7.21963 27.3635 7.11626 27.2229 7.02377C26.4327 6.51043 25.5356 6.19541 24.6044 6.10432C23.3946 5.99823 22.2166 6.16688 21.2244 6.93944C19.6644 8.14453 19.5981 10.2691 21.0785 11.5639C21.3862 11.836 21.7178 12.0645 22.0495 12.2984C22.458 12.5868 22.8985 12.8425 23.2911 13.1444C23.38 13.2009 23.4541 13.2787 23.5071 13.3711C23.5601 13.4635 23.5904 13.5678 23.5954 13.6749C23.6003 13.782 23.5798 13.8887 23.5356 13.9858C23.4914 14.083 23.4248 14.1677 23.3415 14.2325C23.1324 14.4251 22.8736 14.5517 22.596 14.597C21.7576 14.6971 20.9102 14.5147 20.1817 14.0775L19.3858 13.6259C18.9507 14.3114 18.5209 14.986 18.0673 15.6933ZM19.4097 6.31922C19.2346 6.31922 19.1232 6.29202 19.0091 6.29202C18.3405 6.29202 17.6826 6.29202 17.006 6.29202C16.95 6.28237 16.8927 6.28436 16.8374 6.29785C16.7822 6.31134 16.7301 6.33607 16.6843 6.37057C16.6386 6.40507 16.6 6.44864 16.571 6.49869C16.5419 6.54875 16.523 6.60427 16.5152 6.66197C15.5867 9.84833 14.6457 13.0347 13.6924 16.2211C13.6605 16.3299 13.6393 16.4441 13.6022 16.6073H13.9842C14.6422 16.6073 15.3107 16.6073 15.9554 16.6073C16.0155 16.619 16.0773 16.618 16.137 16.6044C16.1967 16.5908 16.2531 16.5649 16.3027 16.5282C16.3523 16.4916 16.3942 16.445 16.4257 16.3912C16.4572 16.3375 16.4777 16.2777 16.486 16.2156C17.2103 13.7266 17.9532 11.2457 18.6881 8.76203C18.9268 7.97587 19.1577 7.17883 19.4097 6.31922Z" fill="#005798"/>
<path d="M32.8345 8C32.8897 9.65294 32.9448 11.3118 33 13H31C31.6211 11.3029 32.2278 9.66176 32.8345 8Z" fill="#005798"/>
</svg>
