<svg width="40" height="40" viewBox="0 0 40 40" fill="none" xmlns="http://www.w3.org/2000/svg">
<circle cx="20" cy="20" r="20" fill="#EBF3FF"/>
<path fill-rule="evenodd" clip-rule="evenodd" d="M25.3247 21.7226C25.8382 22.2377 26.3803 22.7223 26.8409 23.2892C27.0444 23.5412 27.237 23.8012 27.3844 24.0936C27.5932 24.5093 27.4041 24.9667 27.0412 24.9915L24.7857 24.9905C24.204 25.0401 23.7399 24.7995 23.3497 24.3909C23.0374 24.0642 22.7482 23.7165 22.448 23.3787C22.3249 23.2407 22.196 23.1108 22.0421 23.0081C21.7342 22.8028 21.4669 22.8656 21.291 23.1955C21.1118 23.531 21.0711 23.9025 21.0535 24.2765C21.0294 24.822 20.8688 24.9655 20.3353 24.9904C19.1952 25.0457 18.1131 24.8685 17.1079 24.2777C16.2217 23.7568 15.5344 23.0215 14.9363 22.1891C13.7716 20.5681 12.8798 18.787 12.0782 16.956C11.8978 16.5434 12.0297 16.322 12.4728 16.3141C13.2086 16.2995 13.9443 16.3005 14.681 16.3131C14.9801 16.3176 15.178 16.4938 15.2935 16.784C15.6916 17.7895 16.1787 18.7461 16.7902 19.6329C16.953 19.8689 17.119 20.105 17.3555 20.2712C17.617 20.4552 17.8162 20.3942 17.9392 20.0949C18.0173 19.9051 18.0515 19.7007 18.0691 19.4974C18.1274 18.7981 18.1351 18.1 18.0328 17.4032C17.97 16.9683 17.7316 16.6868 17.3091 16.6045C17.0935 16.5625 17.1256 16.4801 17.23 16.3537C17.4113 16.1357 17.5818 16 17.9217 16H20.4708C20.8721 16.0814 20.9612 16.2665 21.0161 16.6813L21.0183 19.5899C21.0139 19.7504 21.0964 20.2269 21.378 20.3332C21.6033 20.4089 21.7518 20.2237 21.887 20.0769C22.4974 19.4115 22.9329 18.6252 23.3221 17.8109C23.4948 17.4529 23.6433 17.0811 23.7872 16.7095C23.8938 16.4339 24.0611 16.2982 24.3634 16.3042L26.8167 16.3065C26.8895 16.3065 26.9631 16.3076 27.0335 16.3199C27.4469 16.3923 27.5602 16.575 27.4325 16.9897C27.2314 17.6403 26.8399 18.1824 26.4572 18.7271C26.0481 19.3086 25.6105 19.8703 25.2048 20.4552C24.832 20.9894 24.8616 21.2587 25.3247 21.7226Z" fill="#0069FF"/>
</svg>
