<svg width="22" height="23" viewBox="0 0 22 23" fill="none" xmlns="http://www.w3.org/2000/svg">
<path d="M15.8973 17.9979L18 20.4898C15.03 23.1832 9.18983 24.3406 4.50089 20.7158C2.22309 18.9743 0.675058 16.3955 0.174568 13.5086C-0.325922 10.6217 0.259101 7.64581 1.80954 5.19179C3.35999 2.73778 5.75822 0.991816 8.51195 0.312314C11.2657 -0.367189 14.166 0.0713191 16.6175 1.53782C16.3678 1.77476 16.1181 2.00352 15.8763 2.24045C15.7344 2.37934 15.6424 2.30309 15.5373 2.18871C15.1667 1.78837 14.775 1.4071 14.4228 0.990425C14.2205 0.756215 14.089 0.791619 13.8972 0.990425C13.1849 1.66582 12.4568 2.32488 11.7341 2.98938C11.6867 3.03295 11.6368 3.06836 11.5658 3.12827C11.1479 2.65713 10.7405 2.19688 10.3279 1.73663C10.0178 1.39076 10.0178 1.39621 9.69185 1.6985C8.24889 3.04385 6.80067 4.39464 5.35772 5.72909C5.12643 5.94424 5.13432 6.07768 5.3367 6.30372C6.23033 7.29775 7.10293 8.31357 7.99394 9.29943C8.15164 9.47645 8.16479 9.57176 7.97554 9.74061C7.71271 9.95576 7.47353 10.2036 7.21595 10.4269C7.03723 10.5821 7.01094 10.6992 7.18441 10.9008C8.05965 11.8975 8.91648 12.9106 9.79435 13.8965C9.98884 14.1143 10.0151 14.2505 9.77332 14.4412C9.53152 14.6318 9.29234 14.8932 9.04002 15.1057C8.86917 15.25 8.86918 15.3589 9.01899 15.5278C9.90737 16.5409 10.7879 17.5621 11.6736 18.5807C12.1283 19.1063 12.5988 19.621 13.0351 20.1602C13.2322 20.4026 13.3584 20.3808 13.5608 20.182C14.2704 19.4876 14.9958 18.8203 15.7134 18.1259C15.7724 18.0798 15.8338 18.0371 15.8973 17.9979Z" fill="#3059A8"/>
<path d="M11 15.4028L13.6329 13L16 15.6612C15.96 15.7196 15.9156 15.7747 15.8671 15.8261C15.1296 16.5024 14.3812 17.1705 13.6518 17.8577C13.4295 18.0667 13.2993 18.0392 13.1095 17.8165C12.4696 17.0715 11.808 16.3485 11.1546 15.6172C11.103 15.5595 11.0651 15.4935 11 15.4028Z" fill="#3059A8"/>
<path d="M12 6.58435L9.34922 9C9.27817 8.94182 9.22625 8.90581 9.18252 8.86149C8.4966 8.08859 7.81614 7.31293 7.12475 6.5428C6.99905 6.40429 6.92799 6.30179 7.11109 6.13834C7.88719 5.44301 8.64963 4.73106 9.42847 4.0385C9.47268 4.01326 9.52257 4 9.57331 4C9.62405 4 9.67393 4.01326 9.71814 4.0385C10.4778 4.8668 11.2266 5.7145 12 6.58435Z" fill="#3059A8"/>
<path d="M9 10.3375L10.0282 9.39437L11.4281 8.12324C11.5502 8.01116 11.656 7.92642 11.8052 8.0959C12.5241 8.91598 13.2485 9.7224 13.9756 10.537C13.9891 10.5507 13.9756 10.578 14 10.6354C13.1481 11.4063 12.28 12.1909 11.3901 13L9 10.3375Z" fill="#3059A8"/>
<path d="M16.9333 15L15 12.8923L17.1372 11L17.9531 11.8734C18.2487 12.2082 18.568 12.5459 18.8813 12.8777C18.9936 13 19.0705 13.1048 18.902 13.2533C18.2576 13.8355 17.622 14.3916 16.9333 15Z" fill="#3059A8"/>
<path d="M18.3635 20L17.4391 18.689C17.3961 18.6307 17.3577 18.5666 17.3147 18.5055C16.8875 17.8908 16.8853 17.8878 17.369 17.3256C17.7419 16.8915 18.1194 16.4516 18.524 16L20 18.1034L18.3635 20Z" fill="#3059A8"/>
<path d="M14 8.93278L16.1228 7C16.7602 7.71551 17.3772 8.40728 18 9.11091C17.9633 9.17554 17.9201 9.23622 17.8713 9.29202C17.2865 9.82346 16.7018 10.349 16.117 10.8863C15.9649 11.0288 15.8626 11.0467 15.7164 10.8863C15.1725 10.2391 14.6053 9.61267 14 8.93278Z" fill="#3059A8"/>
<path d="M13.8926 7L12 4.89382L14.0987 3C14.7344 3.70691 15.3527 4.38764 16 5.10327C15.2917 5.73745 14.6096 6.35418 13.8926 7Z" fill="#3059A8"/>
<path d="M22 12.0083L20.8958 13C20.5883 12.657 20.2947 12.3373 20.0175 12.006C20.0018 11.9677 19.9965 11.9259 20.0022 11.8849C20.008 11.8439 20.0245 11.8052 20.0501 11.7727C20.3157 11.5137 20.5906 11.264 20.8748 11.0283C20.9108 11.0097 20.9508 11 20.9913 11C21.0318 11 21.0717 11.0097 21.1078 11.0283C21.4153 11.3503 21.6948 11.6723 22 12.0083Z" fill="#3059A8"/>
<path d="M19.0661 7C19.391 7.32438 19.6889 7.6085 19.9621 7.90828C19.9869 7.9478 20 7.99252 20 8.03803C20 8.08354 19.9869 8.12826 19.9621 8.16779C19.6495 8.44743 19.3172 8.70694 18.9602 9C18.6328 8.67114 18.3153 8.36018 18.0125 8.03803C18 8.00504 17.9968 7.96971 18.0033 7.93531C18.0097 7.90091 18.0256 7.86853 18.0494 7.84116C18.367 7.56152 18.7067 7.29306 19.0661 7Z" fill="#3059A8"/>
<path d="M17.048 3L18 4.10268C17.6693 4.40976 17.3587 4.7052 17.0346 4.98901C17.001 5.00062 16.9651 5.00308 16.9303 4.99616C16.8954 4.98924 16.8629 4.97316 16.8358 4.94946C16.5609 4.64937 16.2972 4.33997 16 3.99567L17.048 3Z" fill="#3059A8"/>
</svg>
