<svg width="202" height="240" viewBox="0 0 202 240" fill="none" xmlns="http://www.w3.org/2000/svg">
<path d="M195.491 38.1811C179.628 38.1811 166.723 24.2128 166.723 7.04437V0H35.2766V7.04437C35.2766 24.2138 22.3709 38.1811 6.5085 38.1811H0V85.027C0 118.69 9.36907 151.105 27.0955 178.766C44.822 206.426 69.5892 227.282 98.7198 239.077L101 240L103.281 239.077C132.412 227.282 157.179 206.427 174.904 178.766C192.631 151.105 202 118.69 202 85.027V38.1811H195.491ZM188.983 85.027C188.983 115.807 180.416 145.444 164.208 170.736C148.466 195.302 126.647 213.998 101 224.933C75.3523 213.998 53.5336 195.302 37.7911 170.736C21.5836 145.445 13.017 115.807 13.017 85.027V51.7223C30.856 48.6895 44.9857 33.3966 47.7878 14.0887H154.213C157.014 33.3966 171.144 48.6895 188.983 51.7223V85.027Z" fill="#FF4E4E" fill-opacity="0.2"/>
<path d="M151.45 143.091C150.268 143.091 149.146 143.314 148.107 143.69L132.743 129.561L133.821 128.57L141.177 121.806C142.614 120.484 142.614 118.344 141.177 117.023C139.74 115.701 137.413 115.701 135.976 117.023L131.292 121.33L115.735 106.23L152.139 74.5158C152.526 74.1822 152.829 73.7726 153.027 73.3168L160.383 56.405C160.929 55.1497 160.607 53.7163 159.567 52.7584C158.528 51.8006 156.967 51.5099 155.6 52.0086L137.209 58.7733C136.717 58.9549 136.272 59.2325 135.905 59.5891L101.795 92.6994L67.6848 59.5893C67.3184 59.2325 66.8731 58.9551 66.3809 58.7735L47.9902 52.0088C46.6237 51.5101 45.063 51.8008 44.023 52.7586C42.9833 53.7165 42.6617 55.1502 43.2076 56.4052L50.5639 73.317C50.7614 73.7728 51.0651 74.1825 51.4511 74.516L87.8553 106.231L72.299 121.331L67.6147 117.023C66.1779 115.702 63.8503 115.702 62.4136 117.023C60.9768 118.344 60.9768 120.485 62.4136 121.806L69.7698 128.57L70.8473 129.562L55.4837 143.69C54.4446 143.314 53.3228 143.091 52.1407 143.091C47.0708 143.091 42.9453 146.883 42.9453 151.547C42.9453 156.21 47.0706 160.002 52.1407 160.002C57.2108 160.002 61.3361 156.211 61.3361 151.547C61.3361 150.459 61.0926 149.428 60.6848 148.472L76.0487 134.344L77.1264 135.335L84.4827 142.1C85.2011 142.761 86.1422 143.091 87.0831 143.091C88.0243 143.091 88.9652 142.761 89.6836 142.1C91.1203 140.779 91.1203 138.638 89.6836 137.317L84.9981 133.008L101.795 118.375L118.593 133.009L113.907 137.317C112.471 138.638 112.471 140.779 113.907 142.1C114.626 142.761 115.567 143.091 116.508 143.091C117.449 143.091 118.39 142.761 119.108 142.1L126.465 135.335L127.542 134.344L142.906 148.472C142.498 149.428 142.255 150.459 142.255 151.547C142.255 156.21 146.38 160.002 151.45 160.002C156.52 160.002 160.646 156.211 160.646 151.547C160.645 146.883 156.52 143.091 151.45 143.091ZM52.1407 153.238C51.126 153.238 50.3016 152.478 50.3016 151.547C50.3016 150.615 51.126 149.855 52.1407 149.855C53.1554 149.855 53.9798 150.615 53.9798 151.547C53.9798 152.478 53.1554 153.238 52.1407 153.238ZM140.692 64.7785L150.365 61.2211L146.495 70.1162L110.677 101.321L106.862 97.6175L140.692 64.7785ZM53.2255 61.2211L62.8986 64.7785L126.088 126.116L123.794 128.224L57.0959 70.1162L53.2255 61.2211ZM79.7967 128.224L77.5034 126.116L93.196 110.883L96.4484 113.717L79.7967 128.224ZM151.45 153.238C150.436 153.238 149.611 152.478 149.611 151.547C149.611 150.615 150.436 149.855 151.45 149.855C152.465 149.855 153.289 150.615 153.289 151.547C153.289 152.478 152.465 153.238 151.45 153.238Z" fill="#FF4545" fill-opacity="0.2"/>
<ellipse cx="101" cy="201.569" rx="10.3386" ry="10.1961" fill="#FF4545" fill-opacity="0.2"/>
</svg>
