<svg width="36" height="36" viewBox="0 0 36 36" fill="none" xmlns="http://www.w3.org/2000/svg">
<path d="M18 0C8.05888 0 0 8.05888 0 18C0 27.9411 8.05888 36 18 36C27.9411 36 36 27.9411 36 18C35.9895 8.06332 27.9368 0.0106222 18 0ZM18 33.4286C9.47902 33.4286 2.57141 26.521 2.57141 18C2.57141 9.47902 9.47902 2.57141 18 2.57141C26.521 2.57141 33.4286 9.47902 33.4286 18C33.4194 26.5172 26.5172 33.4194 18 33.4286Z" fill="#FF4545"/>
<path d="M18 6.42871C17.2899 6.42871 16.7143 7.00435 16.7143 7.71445V16.7145H7.7143C7.00419 16.7145 6.42856 17.2901 6.42856 18.0002C6.42856 18.7103 7.00419 19.2859 7.7143 19.2859H18C18.7101 19.2859 19.2857 18.7103 19.2857 18.0002V7.71445C19.2857 7.00435 18.7101 6.42871 18 6.42871Z" fill="#FF4545"/>
</svg>
