<svg width="264" height="195" viewBox="0 0 264 195" fill="none" xmlns="http://www.w3.org/2000/svg">
<path d="M71.5 150.9C57.7 150.9 45.4 147.8 34.6 141.6C23.8 135.2 15.3 126.4 9.1 115.2C3.1 103.8 0.1 90.8 0.1 76.2C0.1 62 3.1 49.4 9.1 38.4C15.3 27.4 23.8 18.9 34.6 12.9C45.6 6.69999 58 3.6 71.8 3.6C85.4 3.6 97.5 6.69999 108.1 12.9C118.9 19.1 127.2 27.8 133 39C139 50 142 62.7 142 77.1C142 91.5 139 104.3 133 115.5C127 126.7 118.6 135.4 107.8 141.6C97.2 147.8 85.1 150.9 71.5 150.9ZM75.1 146.7C90.3 146.7 101.6 140.9 109 129.3C116.4 117.5 120.1 101.3 120.1 80.7C120.1 64.5 117.8 50.9 113.2 39.9C108.6 28.9 102.4 20.8 94.6 15.6C86.8 10.2 78.1 7.49999 68.5 7.49999C53.7 7.49999 42.1 13.7 33.7 26.1C25.3 38.3 21.1 54.3 21.1 74.1C21.1 88.1 23.3 100.6 27.7 111.6C32.1 122.6 38.4 131.2 46.6 137.4C54.8 143.6 64.3 146.7 75.1 146.7ZM216.963 81.3C231.163 81.5 242.363 85.5 250.563 93.3C258.963 100.9 263.163 110.3 263.163 121.5C263.163 136.3 254.663 150.2 237.663 163.2C220.663 176.4 195.663 186.7 162.663 194.1C161.863 194.3 161.263 193.8 160.863 192.6C160.663 191.4 160.863 190.7 161.463 190.5C190.063 184.1 210.563 174.9 222.963 162.9C235.563 150.9 241.863 138.2 241.863 124.8C241.863 114.8 238.663 106.2 232.263 99C226.063 91.6 217.063 87.9 205.263 87.9C196.463 87.9 189.363 89.2 183.963 91.8L183.363 92.1C182.563 92.1 181.963 91.7 181.563 90.9C181.163 90.1 181.263 89.5 181.863 89.1C184.863 87.3 188.663 85.7 193.263 84.3C197.863 82.9 202.863 82 208.263 81.6C218.263 74.6 225.163 68.3 228.963 62.7C232.963 57.1 234.963 50.7 234.963 43.5C234.963 33.7 231.963 25.7 225.963 19.5C219.963 13.3 211.263 10.2 199.863 10.2C189.463 10.2 180.963 13 174.363 18.6C167.763 24.2 162.663 33.5 159.063 46.5C159.063 46.9 158.563 47.1 157.563 47.1C156.963 47.1 156.363 47 155.763 46.8C155.363 46.4 155.263 46.1 155.463 45.9L167.163 0.299993C167.163 0.0999959 167.563 -2.86102e-06 168.363 -2.86102e-06C170.363 -2.86102e-06 171.163 0.299996 170.763 0.899994C170.363 2.89999 170.163 4.19999 170.163 4.79999C170.163 6.79999 170.663 8.29999 171.663 9.29999C172.663 10.1 173.863 10.5 175.263 10.5C177.263 10.5 180.763 9.6 185.763 7.8C191.363 5.99999 195.963 4.69999 199.563 3.89999C203.363 3.09999 207.663 2.69999 212.463 2.69999C224.463 2.69999 234.463 5.79999 242.463 12C250.463 18 254.463 26 254.463 36C254.463 43.8 251.463 51.3 245.463 58.5C239.663 65.7 230.163 73.3 216.963 81.3Z" fill="#814D4D" fill-opacity="0.6"/>
</svg>
