<svg width="271" height="152" viewBox="0 0 271 152" fill="none" xmlns="http://www.w3.org/2000/svg">
<path d="M71.5 151.9C57.7 151.9 45.4 148.8 34.6 142.6C23.8 136.2 15.3 127.4 9.1 116.2C3.1 104.8 0.1 91.8 0.1 77.2C0.1 63 3.1 50.4 9.1 39.4C15.3 28.4 23.8 19.9 34.6 13.9C45.6 7.69999 58 4.6 71.8 4.6C85.4 4.6 97.5 7.69999 108.1 13.9C118.9 20.1 127.2 28.8 133 40C139 51 142 63.7 142 78.1C142 92.5 139 105.3 133 116.5C127 127.7 118.6 136.4 107.8 142.6C97.2 148.8 85.1 151.9 71.5 151.9ZM75.1 147.7C90.3 147.7 101.6 141.9 109 130.3C116.4 118.5 120.1 102.3 120.1 81.7C120.1 65.5 117.8 51.9 113.2 40.9C108.6 29.9 102.4 21.8 94.6 16.6C86.8 11.2 78.1 8.49999 68.5 8.49999C53.7 8.49999 42.1 14.7 33.7 27.1C25.3 39.3 21.1 55.3 21.1 75.1C21.1 89.1 23.3 101.6 27.7 112.6C32.1 123.6 38.4 132.2 46.6 138.4C54.8 144.6 64.3 147.7 75.1 147.7ZM158.163 144.4C178.163 127.6 193.763 113.5 204.963 102.1C216.363 90.5 224.763 80 230.163 70.6C235.563 61.2 238.263 51.9 238.263 42.7C238.263 32.7 235.463 24.8 229.863 19C224.463 13 216.663 10 206.463 10C186.663 10 172.963 22.5 165.363 47.5C165.363 47.9 164.963 48.1 164.163 48.1C163.563 48.1 162.963 48 162.363 47.8C161.763 47.4 161.563 47.1 161.763 46.9L173.463 1.29999C173.663 0.899992 174.263 0.799994 175.263 0.999997C176.463 1.19999 176.963 1.49999 176.763 1.89999C176.563 2.89999 176.463 4.09999 176.463 5.49999C176.463 9.09999 178.163 10.9 181.563 10.9C183.563 10.9 186.663 10.2 190.863 8.8C195.463 7.19999 199.563 5.99999 203.163 5.2C206.963 4.4 211.263 3.99999 216.063 3.99999C228.863 3.99999 239.063 7.4 246.663 14.2C254.463 21 258.363 29.9 258.363 40.9C258.363 49.5 255.663 57.9 250.263 66.1C244.863 74.3 237.263 82.8 227.463 91.6C217.863 100.4 202.463 113.6 181.263 131.2C180.463 131.8 180.163 132.3 180.363 132.7C180.763 133.1 181.463 133.3 182.463 133.3C209.063 133.3 227.463 133 237.663 132.4C247.863 131.6 254.963 130 258.963 127.6C262.963 125 265.763 120.4 267.363 113.8C267.563 113.4 268.163 113.3 269.163 113.5C270.163 113.5 270.663 113.7 270.663 114.1L266.763 144.7C266.763 145.5 266.463 146.3 265.863 147.1C265.463 147.7 264.863 148 264.063 148H160.263C159.263 148 158.463 147.6 157.863 146.8C157.463 146 157.563 145.2 158.163 144.4Z" fill="#814D4D" fill-opacity="0.6"/>
</svg>
