<svg width="239" height="148" viewBox="0 0 239 148" fill="none" xmlns="http://www.w3.org/2000/svg">
<path d="M71.5 147.9C57.7 147.9 45.4 144.8 34.6 138.6C23.8 132.2 15.3 123.4 9.1 112.2C3.1 100.8 0.1 87.8 0.1 73.2C0.1 59 3.1 46.4 9.1 35.4C15.3 24.4 23.8 15.9 34.6 9.89999C45.6 3.69999 58 0.599995 71.8 0.599995C85.4 0.599995 97.5 3.69999 108.1 9.89999C118.9 16.1 127.2 24.8 133 36C139 47 142 59.7 142 74.1C142 88.5 139 101.3 133 112.5C127 123.7 118.6 132.4 107.8 138.6C97.2 144.8 85.1 147.9 71.5 147.9ZM75.1 143.7C90.3 143.7 101.6 137.9 109 126.3C116.4 114.5 120.1 98.3 120.1 77.7C120.1 61.5 117.8 47.9 113.2 36.9C108.6 25.9 102.4 17.8 94.6 12.6C86.8 7.19999 78.1 4.49999 68.5 4.49999C53.7 4.49999 42.1 10.7 33.7 23.1C25.3 35.3 21.1 51.3 21.1 71.1C21.1 85.1 23.3 97.6 27.7 108.6C32.1 119.6 38.4 128.2 46.6 134.4C54.8 140.6 64.3 143.7 75.1 143.7ZM162.963 144C162.363 144 162.063 143.4 162.063 142.2C162.063 141 162.363 140.4 162.963 140.4C171.163 140.4 177.163 139.9 180.963 138.9C184.963 137.7 187.663 135.7 189.063 132.9C190.663 130.1 191.463 125.7 191.463 119.7V38.4C191.463 31 190.963 25.8 189.963 22.8C188.963 19.8 186.863 18.3 183.663 18.3C180.063 18.3 173.163 20.6 162.963 25.2H162.663C161.663 25.2 160.963 24.7 160.563 23.7C160.163 22.7 160.363 22.1 161.163 21.9L206.463 0.599995C206.663 0.399992 206.963 0.29999 207.363 0.29999C207.763 0.29999 208.163 0.599993 208.563 1.2C208.963 1.59999 209.163 2.09999 209.163 2.7V119.7C209.163 125.9 209.763 130.4 210.963 133.2C212.363 136 215.063 137.9 219.063 138.9C223.063 139.9 229.363 140.4 237.963 140.4C238.363 140.4 238.563 141 238.563 142.2C238.563 143.4 238.363 144 237.963 144C231.363 144 226.263 143.9 222.663 143.7L200.463 143.4L178.563 143.7C174.763 143.9 169.563 144 162.963 144Z" fill="#814D4D" fill-opacity="0.6"/>
</svg>
