<svg width="77" height="77" viewBox="0 0 77 77" fill="none" xmlns="http://www.w3.org/2000/svg">
<circle cx="39" cy="39" r="33" fill="white"/>
<path d="M38.5 0C17.325 0 0 17.325 0 38.5C0 59.675 17.325 77 38.5 77C59.675 77 77 59.675 77 38.5C77 17.325 59.675 0 38.5 0ZM38.5 11.55C45.045 11.55 50.05 16.555 50.05 23.1C50.05 29.645 45.045 34.65 38.5 34.65C31.955 34.65 26.95 29.645 26.95 23.1C26.95 16.555 31.955 11.55 38.5 11.55ZM38.5 66.22C28.875 66.22 20.405 61.2152 15.4 53.9C15.4 46.2 30.8 41.965 38.5 41.965C46.2 41.965 61.6 46.2 61.6 53.9C56.595 61.215 48.125 66.22 38.5 66.22Z" fill="#49A010"/>
</svg>
