<svg width="21" height="12" viewBox="0 0 21 12" fill="none" xmlns="http://www.w3.org/2000/svg">
<path fill-rule="evenodd" clip-rule="evenodd" d="M20.5182 0.812527C20.6642 0.344211 20.5182 0 19.8234 0H17.526C16.9418 0 16.6726 0.297316 16.5266 0.625263C16.5266 0.625263 15.3582 3.36521 13.7031 5.145C13.1676 5.66021 12.9243 5.82395 12.6322 5.82395C12.4861 5.82395 12.2747 5.66021 12.2747 5.1919V0.812527C12.2747 0.250422 12.1052 0 11.6183 0H8.00812C7.64316 0 7.42359 0.260842 7.42359 0.508106C7.42359 1.041 8.25099 1.16384 8.33632 2.66258V5.91789C8.33632 6.63158 8.20241 6.76105 7.91032 6.76105C7.13149 6.76105 5.23711 4.00863 4.11335 0.859421C3.89313 0.247263 3.67225 0 3.0851 0H0.787684C0.131281 0 0 0.297316 0 0.625263C0 1.21074 0.778986 4.11474 3.62663 7.95537C5.52527 10.578 8.19979 12 10.6337 12C12.0942 12 12.2747 11.6842 12.2747 11.1403V9.15789C12.2747 8.52632 12.4131 8.40032 12.8754 8.40032C13.2164 8.40032 13.8004 8.56421 15.1636 9.82879C16.7212 11.3274 16.9779 12 17.8542 12H20.1516C20.808 12 21.1362 11.6842 20.9468 11.061C20.7397 10.4398 19.996 9.53889 19.0091 8.47058C18.4736 7.86158 17.6704 7.20584 17.4272 6.87805C17.0863 6.45647 17.1837 6.26921 17.4272 5.89468C17.4272 5.89468 20.2261 2.10079 20.5182 0.812685V0.812527Z" fill="#65BF4F"/>
<path fill-rule="evenodd" clip-rule="evenodd" d="M20.5182 0.812527C20.6642 0.344211 20.5182 0 19.8234 0H17.526C16.9418 0 16.6726 0.297316 16.5266 0.625263C16.5266 0.625263 15.3582 3.36521 13.7031 5.145C13.1676 5.66021 12.9243 5.82395 12.6322 5.82395C12.4861 5.82395 12.2747 5.66021 12.2747 5.1919V0.812527C12.2747 0.250422 12.1052 0 11.6183 0H8.00812C7.64316 0 7.42359 0.260842 7.42359 0.508106C7.42359 1.041 8.25099 1.16384 8.33632 2.66258V5.91789C8.33632 6.63158 8.20241 6.76105 7.91032 6.76105C7.13149 6.76105 5.23711 4.00863 4.11335 0.859421C3.89313 0.247263 3.67225 0 3.0851 0H0.787684C0.131281 0 0 0.297316 0 0.625263C0 1.21074 0.778986 4.11474 3.62663 7.95537C5.52527 10.578 8.19979 12 10.6337 12C12.0942 12 12.2747 11.6842 12.2747 11.1403V9.15789C12.2747 8.52632 12.4131 8.40032 12.8754 8.40032C13.2164 8.40032 13.8004 8.56421 15.1636 9.82879C16.7212 11.3274 16.9779 12 17.8542 12H20.1516C20.808 12 21.1362 11.6842 20.9468 11.061C20.7397 10.4398 19.996 9.53889 19.0091 8.47058C18.4736 7.86158 17.6704 7.20584 17.4272 6.87805C17.0863 6.45647 17.1837 6.26921 17.4272 5.89468C17.4272 5.89468 20.2261 2.10079 20.5182 0.812685V0.812527Z" fill="#A1A75C"/>
</svg>
