<svg width="45" height="45" viewBox="0 0 45 45" fill="none" xmlns="http://www.w3.org/2000/svg">
<path d="M11.9992 30.75V24.75C11.9992 23.0931 10.656 21.75 8.99916 21.75C7.3423 21.75 5.99916 23.0931 5.99916 24.75V30.75C5.99916 32.4069 7.3423 33.75 8.99916 33.75C10.656 33.75 11.9992 32.4069 11.9992 30.75ZM7.49916 30.75V24.75C7.49916 23.9216 8.17073 23.25 8.99916 23.25C9.82759 23.25 10.4992 23.9216 10.4992 24.75V30.75C10.4992 31.5784 9.82759 32.25 8.99916 32.25C8.17073 32.25 7.49916 31.5784 7.49916 30.75Z" fill="black"/>
<path d="M17.9996 37.5H10.4996C9.67121 37.5 8.99963 38.1716 8.99963 39V40.5C8.99963 41.3284 9.67121 42 10.4996 42H17.9996C18.8281 42 19.4996 41.3284 19.4996 40.5V39C19.4996 38.1716 18.8281 37.5 17.9996 37.5ZM10.4996 40.5V39H17.9996V40.5H10.4996Z" fill="black"/>
<path d="M25.5 23.6475V21C25.5 19.7574 24.4926 18.75 23.25 18.75H19.5V17.25C19.5 16.4216 18.8284 15.75 18 15.75V14.25C17.9984 13.7165 17.7126 13.2243 17.25 12.9585V8.7915C17.7126 8.52569 17.9984 8.0335 18 7.5V6C18 5.17157 17.3284 4.5 16.5 4.5H15V1.5C15 0.671573 14.3284 0 13.5 0H10.5C9.67157 0 9 0.671573 9 1.5V4.5H7.5C6.67157 4.5 6 5.17157 6 6V7.5C6.00161 8.0335 6.28744 8.52569 6.75 8.7915V12.9585C6.28744 13.2243 6.00161 13.7165 6 14.25V15.75C5.17157 15.75 4.5 16.4216 4.5 17.25V18.888C3.60424 19.2047 3.00394 20.0499 3 21V21.75H2.25C1.00736 21.75 0 22.7574 0 24V27.75C0 28.9926 1.00736 30 2.25 30H3V35.25H2.25C1.00736 35.25 0 36.2574 0 37.5V39C0 40.2426 1.00736 41.25 2.25 41.25H3V42.75C3 43.9926 4.00736 45 5.25 45H23.25C24.4926 45 25.5 43.9926 25.5 42.75V42.3525C30.4017 46.2868 37.5093 45.7692 41.7893 41.1662C46.0692 36.5632 46.0692 29.4368 41.7893 24.8338C37.5093 20.2308 30.4017 19.7132 25.5 23.6475V23.6475ZM8.25 12.75V9H12.2078L10.065 12.75H8.25ZM13.935 9H15.75V12.75H11.7923L13.935 9ZM10.5 1.5H13.5V4.5H10.5V1.5ZM7.5 6H16.5V7.5H7.5V6ZM7.5 14.25H16.5V15.75H7.5V14.25ZM6 17.25H18V18.75H6V17.25ZM2.25 28.5C1.83579 28.5 1.5 28.1642 1.5 27.75V24C1.5 23.5858 1.83579 23.25 2.25 23.25H3V28.5H2.25ZM2.25 39.75C1.83579 39.75 1.5 39.4142 1.5 39V37.5C1.5 37.0858 1.83579 36.75 2.25 36.75H3V39.75H2.25ZM23.25 43.5H5.25C4.83579 43.5 4.5 43.1642 4.5 42.75V21C4.5 20.5858 4.83579 20.25 5.25 20.25H23.25C23.6642 20.25 24 20.5858 24 21V25.0897C19.9984 29.6041 19.9984 36.3959 24 40.9103V42.75C24 43.1642 23.6642 43.5 23.25 43.5V43.5ZM33 43.5C28.7531 43.5 24.9245 40.9418 23.2993 37.0182C21.6741 33.0946 22.5724 28.5784 25.5754 25.5754C28.5784 22.5724 33.0946 21.6741 37.0182 23.2993C40.9418 24.9245 43.5 28.7531 43.5 33C43.4938 38.7964 38.7964 43.4938 33 43.5Z" fill="black"/>
<path d="M37.6396 27.3143L30.6549 37.0936L28.2804 34.7198C27.9861 34.4356 27.5183 34.4396 27.229 34.7289C26.9397 35.0182 26.9357 35.486 27.2199 35.7803L30.2199 38.7803C30.3758 38.9362 30.5924 39.0156 30.8122 38.9974C31.0319 38.9792 31.2325 38.8653 31.3606 38.6858L38.8606 28.1858C39.0163 27.9677 39.0438 27.6831 38.9328 27.4392C38.8217 27.1954 38.589 27.0293 38.3223 27.0035C38.0555 26.9777 37.7953 27.0962 37.6396 27.3143Z" fill="black"/>
</svg>
