<svg width="45" height="45" viewBox="0 0 45 45" fill="none" xmlns="http://www.w3.org/2000/svg">
<g clip-path="url(#clip0)">
<path d="M44.6295 12.8541L22.8795 0.104079C22.6507 -0.0294269 22.3695 -0.0339093 22.1378 0.0943231L0.387773 12.0944C0.148535 12.2256 0 12.4776 0 12.7506V44.2506C0 44.6653 0.336006 45.0005 0.749971 45.0005H4.5C4.91396 45.0005 5.24997 44.6653 5.24997 44.2506V18.0006H39.7499V44.2507C39.7499 44.6654 40.0852 45.0006 40.4999 45.0006H44.2499C44.6647 45.0006 44.9999 44.6654 44.9999 44.2507V13.5006C45 13.2343 44.859 12.9883 44.6295 12.8541ZM43.5 43.5006H41.25V17.2506C41.25 16.8366 40.9148 16.5006 40.5 16.5006H4.5C4.08604 16.5006 3.75003 16.8366 3.75003 17.2506V43.5006H1.50003V13.1931L22.4887 1.61307L43.5 13.9303V43.5006Z" fill="black"/>
<path d="M37.4995 34.4998H28.4995C28.0848 34.4998 27.7495 34.835 27.7495 35.2497V44.2497C27.7495 44.6645 28.0848 44.9997 28.4995 44.9997H37.4995C37.9143 44.9997 38.2495 44.6645 38.2495 44.2497V35.2497C38.2495 34.835 37.9143 34.4998 37.4995 34.4998ZM36.7495 43.4998H29.2495V35.9998H36.7495V43.4998V43.4998Z" fill="black"/>
<path d="M33.7504 35.2498V37.4998H32.2503V35.2498H30.7503V38.2497C30.7503 38.6645 31.0855 38.9997 31.5003 38.9997H34.5002C34.915 38.9997 35.2502 38.6645 35.2502 38.2497V35.2498H33.7504Z" fill="black"/>
<path d="M28.5005 34.4998H19.5005C19.0865 34.4998 18.7505 34.835 18.7505 35.2497V44.2497C18.7505 44.6645 19.0865 44.9997 19.5005 44.9997H28.5005C28.9152 44.9997 29.2505 44.6645 29.2505 44.2497V35.2497C29.2505 34.835 28.9152 34.4998 28.5005 34.4998ZM27.7504 43.4998H20.2505V35.9998H27.7504V43.4998Z" fill="black"/>
<path d="M24.7498 35.2498V37.4998H23.2498V35.2498H21.7498V38.2497C21.7498 38.6645 22.0858 38.9997 22.4997 38.9997H25.4997C25.9145 38.9997 26.2497 38.6645 26.2497 38.2497V35.2498H24.7498Z" fill="black"/>
<path d="M37.4995 25.4998H28.4995C28.0848 25.4998 27.7495 25.835 27.7495 26.2497V35.2497C27.7495 35.6645 28.0848 35.9997 28.4995 35.9997H37.4995C37.9143 35.9997 38.2495 35.6645 38.2495 35.2497V26.2497C38.2495 25.835 37.9143 25.4998 37.4995 25.4998ZM36.7495 34.4998H29.2495V26.9998H36.7495V34.4998V34.4998Z" fill="black"/>
<path d="M33.7504 26.2498V28.4998H32.2503V26.2498H30.7503V29.2497C30.7503 29.6645 31.0855 29.9997 31.5003 29.9997H34.5002C34.915 29.9997 35.2502 29.6645 35.2502 29.2497V26.2498H33.7504Z" fill="black"/>
<path d="M40.4997 22.4998H4.49973V23.9998H40.4997V22.4998Z" fill="black"/>
<path d="M40.4997 19.4998H4.49973V20.9998H40.4997V19.4998Z" fill="black"/>
<path d="M26.2501 10.4998H18.7501C18.3362 10.4998 18.0002 10.8358 18.0002 11.2497V14.2497C18.0002 14.6637 18.3362 14.9997 18.7501 14.9997H26.2501C26.6648 14.9997 27.0001 14.6637 27.0001 14.2497V11.2497C27.0001 10.8358 26.6648 10.4998 26.2501 10.4998ZM25.5 13.4998H19.5V11.9998H25.5V13.4998Z" fill="black"/>
</g>
<defs>
<clipPath id="clip0">
<rect width="45" height="45" fill="white"/>
</clipPath>
</defs>
</svg>
