<svg width="28" height="31" viewBox="0 0 28 31" fill="none" xmlns="http://www.w3.org/2000/svg">
<path fill-rule="evenodd" clip-rule="evenodd" d="M25.9765 5.86758C26.3372 5.87267 26.6735 6.06187 26.88 6.37587C27.0782 6.69822 27.1198 7.10157 26.992 7.46182L22.6361 19.0099C22.4674 19.447 22.0683 19.734 21.6235 19.7382H6.3784C5.77598 19.7312 5.29069 19.2116 5.2892 18.572V8.17819C5.28407 6.26518 3.82453 4.71573 2.02253 4.71029C1.43365 4.69198 0.96521 4.17991 0.96521 3.55448C0.96521 2.92906 1.43365 2.41699 2.02253 2.39868C4.18517 2.4047 6.14073 3.76501 7.00933 5.86758H25.9765ZM20.8759 17.4276L21.7467 15.116L22.6249 12.8024L24.3675 8.17918H7.46666V17.4276H20.8759ZM9.10093 20.8955C6.99577 20.8955 5.2892 22.7072 5.2892 24.942C5.2892 27.1769 6.99577 28.9886 9.10093 28.9886C11.2061 28.9886 12.9127 27.1769 12.9127 24.942C12.9106 22.7081 11.2052 20.8977 9.10093 20.8955ZM7.4676 24.942C7.4676 25.8997 8.19886 26.676 9.10093 26.676V26.674C9.53395 26.6745 9.94939 26.4923 10.2558 26.1674C10.5621 25.8426 10.7343 25.4017 10.7343 24.942C10.7343 23.9844 10.003 23.2081 9.10093 23.2081C8.19886 23.2081 7.4676 23.9844 7.4676 24.942ZM18.9009 20.8955C16.7958 20.8955 15.0892 22.7072 15.0892 24.942C15.0892 27.1769 16.7958 28.9886 18.9009 28.9886C21.0061 28.9886 22.7127 27.1769 22.7127 24.942C22.7106 22.7081 21.0052 20.8977 18.9009 20.8955ZM17.2667 24.943C17.2672 25.9007 17.9989 26.6765 18.9009 26.676V26.674C19.3339 26.6743 19.7493 26.4918 20.0555 26.1667C20.3617 25.8417 20.5336 25.4007 20.5333 24.9411C20.5328 23.9834 19.8011 23.2075 18.8991 23.2081C17.997 23.2086 17.2661 23.9854 17.2667 24.943Z" fill="white"/>
</svg>
