<svg width="512" height="512" viewBox="0 0 512 512" fill="none" xmlns="http://www.w3.org/2000/svg">
<path d="M258.8 507.2C120.4 507.8 6.60009 392.6 9.90009 251.9C13.0001 117.9 124 7.19988 262 8.69988C398.7 10.1999 511.8 124 508.1 264.9C504.6 398.3 394.5 507.9 258.8 507.2ZM40.2001 258.3C41.3001 383.6 142.9 480.1 262.9 478C379.1 475.9 477.6 381.2 477.6 258C477.6 132.7 375.2 35.7999 254.8 38.0999C138.6 40.1999 41.0001 135.2 40.2001 258.3Z" fill="white"/>
<path d="M206.8 433.4C206.8 374.5 206.8 316.1 206.8 257.1C193.8 257.1 181.2 257.1 168.3 257.1C168.3 237.1 168.3 217.7 168.3 197.7C170 197.6 171.7 197.4 173.5 197.4C182.8 197.4 192.2 197.2 201.5 197.5C205.6 197.6 207 196.5 206.9 192.3C206.7 177.1 206.7 162 206.8 146.8C206.9 129.7 211.7 114.2 223.9 101.8C235.7 89.8 250.8 83.3 267.2 82.3C293.6 80.8 320.1 81 346.6 80.5C346.9 80.5 347.2 80.8 347.8 81.1C347.8 101.2 347.8 121.4 347.8 142.1C345.9 142.2 344.1 142.3 342.4 142.3C330.4 142.3 318.4 142.3 306.4 142.3C294.3 142.4 287.2 149.6 287.2 161.5C287.2 172.8 287.2 184.2 287.3 195.5C287.3 195.8 287.5 196.1 287.8 197.2C307.6 197.2 327.6 197.2 348.6 197.2C346 217.5 343.6 236.9 341 257C322.9 257 305.2 257 287 257C287 316.2 287 374.8 287 433.6C260.1 433.4 233.9 433.4 206.8 433.4Z" fill="white"/>
</svg>
