<svg width="19" height="22" viewBox="0 0 19 22" fill="none" xmlns="http://www.w3.org/2000/svg">
<path fill-rule="evenodd" clip-rule="evenodd" d="M2.00854 7.79093H16.9915C17.5485 7.79093 18 7.31564 18 6.72933C18 6.14302 17.5485 5.66772 16.9915 5.66772H2.00854C1.45154 5.66772 1 6.14302 1 6.72933C1 7.31564 1.45154 7.79093 2.00854 7.79093ZM16.9915 9.91414H2.00854C1.45154 9.91414 1 10.3894 1 10.9757C1 11.562 1.45154 12.0373 2.00854 12.0373H16.9915C17.5485 12.0373 18 11.562 18 10.9757C18 10.3894 17.5485 9.91414 16.9915 9.91414V9.91414ZM16.9915 14.1606H2.00854C1.45154 14.1606 1 14.6358 1 15.2222C1 15.8085 1.45154 16.2838 2.00854 16.2838H16.9915C17.5485 16.2838 18 15.8085 18 15.2222C18 14.6358 17.5485 14.1606 16.9915 14.1606V14.1606Z" fill="#EB174B"/>
<mask id="mask0" mask-type="alpha" maskUnits="userSpaceOnUse" x="1" y="5" width="17" height="12">
<path fill-rule="evenodd" clip-rule="evenodd" d="M2.00854 7.79093H16.9915C17.5485 7.79093 18 7.31564 18 6.72933C18 6.14302 17.5485 5.66772 16.9915 5.66772H2.00854C1.45154 5.66772 1 6.14302 1 6.72933C1 7.31564 1.45154 7.79093 2.00854 7.79093ZM16.9915 9.91414H2.00854C1.45154 9.91414 1 10.3894 1 10.9757C1 11.562 1.45154 12.0373 2.00854 12.0373H16.9915C17.5485 12.0373 18 11.562 18 10.9757C18 10.3894 17.5485 9.91414 16.9915 9.91414V9.91414ZM16.9915 14.1606H2.00854C1.45154 14.1606 1 14.6358 1 15.2222C1 15.8085 1.45154 16.2838 2.00854 16.2838H16.9915C17.5485 16.2838 18 15.8085 18 15.2222C18 14.6358 17.5485 14.1606 16.9915 14.1606V14.1606Z" fill="white"/>
</mask>
<g mask="url(#mask0)">
<rect y="0.359619" width="19" height="21.2321" fill="#EB174B"/>
</g>
</svg>
