<?xml version="1.0" ?><!DOCTYPE svg  PUBLIC '-//W3C//DTD SVG 1.1//EN'  'http://www.w3.org/Graphics/SVG/1.1/DTD/svg11.dtd'><svg enable-background="new 0 0 64 64" height="64px" id="Layer_1" version="1.1" viewBox="0 0 64 64" width="64px" xml:space="preserve" xmlns="http://www.w3.org/2000/svg" xmlns:xlink="http://www.w3.org/1999/xlink"><g><g><path d="M51.178,1.104C48.943,0.007,37.614,1.26,29.442,9.096c-12.87,12.854-12.561,29.782-12.561,29.782    s-0.424,1.743-2.238-0.784c-3.968-5.055-1.889-16.689-1.657-18.311c0.328-2.281-1.127-2.351-1.734-1.595    c-14.335,19.905-1.388,36.206,7.091,41.38c9.924,6.055,29.505,6.053,37.306-11.128C65.36,27.043,53.977,2.477,51.178,1.104z" fill="#82B23F"/></g><path d="M50.955,19.983C51.95,13.31,51.956,6.882,51.138,1.09c-2.31-1.068-13.565,0.208-21.696,8.006   c-12.87,12.854-12.561,29.782-12.561,29.782s-0.424,1.743-2.238-0.784c-3.968-5.055-1.889-16.689-1.657-18.311   c0.328-2.281-1.127-2.351-1.734-1.595c-8.664,12.03-7.357,22.738-3.1,30.475c4.261,4.575,9.11,7.582,13.601,8.252   C34.553,58.825,47.625,42.29,50.955,19.983z" fill="#B3E856"/><path d="M50.955,19.983C51.95,13.31,51.956,6.882,51.138,1.09c-2.31-1.068-11.275,2.642-19.407,10.442   c-12.87,12.853-14.85,27.346-14.85,27.346s-0.424,1.743-2.238-0.784c-3.968-5.055-2.604-13.788-2.371-15.409   c0.329-2.282-1.127-2.351-1.734-1.595C1.875,33.12,3.896,40.927,8.154,48.663c4.261,4.575,9.11,7.582,13.601,8.252   C34.553,58.825,47.625,42.29,50.955,19.983z" fill="#98D13F"/></g></svg>