<svg width="18" height="17" viewBox="0 0 18 17" fill="none" xmlns="http://www.w3.org/2000/svg">
<path d="M17.01 11.4158C15.78 11.4158 14.59 11.2368 13.48 10.9147C13.13 10.8073 12.74 10.8878 12.47 11.1294L10.9 12.8922C8.07 11.6842 5.42 9.40245 4.01 6.78069L5.96 5.29532C6.23 5.04478 6.31 4.69581 6.2 4.38263C5.83 3.3894 5.64 2.32459 5.64 1.22399C5.64 0.740794 5.19 0.338135 4.65 0.338135H1.19C0.65 0.338135 0 0.552887 0 1.22399C0 9.53667 7.73 16.4445 17.01 16.4445C17.72 16.4445 18 15.8808 18 15.3887V12.3016C18 11.8184 17.55 11.4158 17.01 11.4158Z" fill="#F3F3F2"/>
</svg>
