<svg width="20" height="18" viewBox="0 0 20 18" fill="none" xmlns="http://www.w3.org/2000/svg">
<path d="M15.3845 16.3637C15.3845 16.8155 15.5352 17.2011 15.8354 17.5204C16.1357 17.8401 16.4984 18 16.9234 18C17.3478 18 17.7106 17.8401 18.0108 17.5204C18.3114 17.2011 18.4617 16.8155 18.4617 16.3637C18.4617 15.9118 18.3115 15.5263 18.0108 15.2066C17.7106 14.8873 17.3478 14.7273 16.9234 14.7273C16.4984 14.7273 16.1357 14.8873 15.8354 15.2066C15.5352 15.5263 15.3845 15.9118 15.3845 16.3637Z" fill="#303030"/>
<path d="M19.7716 1.87912C19.6193 1.71716 19.4391 1.63616 19.2307 1.63616H4.7957C4.78757 1.57657 4.76956 1.46799 4.74152 1.31033C4.71348 1.15258 4.69151 1.02694 4.67547 0.93309C4.65934 0.839642 4.62946 0.726627 4.58529 0.594537C4.54122 0.462358 4.48914 0.357851 4.42907 0.281328C4.36908 0.204403 4.28897 0.138537 4.18878 0.0829702C4.08867 0.0277612 3.97441 0 3.84627 0H0.76938C0.560911 0 0.380648 0.0811343 0.228423 0.242866C0.076155 0.404776 0 0.596642 0 0.818194C0 1.03975 0.076155 1.23152 0.228423 1.39343C0.380775 1.55539 0.56108 1.6363 0.76938 1.6363H3.22103L5.34832 12.1576C5.3324 12.1916 5.25027 12.3534 5.10196 12.6433C4.95373 12.9333 4.83557 13.1867 4.7475 13.404C4.65939 13.6216 4.61531 13.7898 4.61531 13.909C4.61531 14.1306 4.69146 14.3224 4.84365 14.4846C4.99608 14.646 5.17631 14.7273 5.38465 14.7273H6.15386H16.9231H17.6919C17.9002 14.7273 18.0805 14.6461 18.2327 14.4846C18.3851 14.3224 18.4612 14.1306 18.4612 13.909C18.4612 13.6874 18.3851 13.4956 18.2327 13.3338C18.0805 13.172 17.9002 13.0907 17.6919 13.0907H6.63445C6.82683 12.6816 6.92299 12.4092 6.92299 12.2728C6.92299 12.1873 6.91297 12.0935 6.89289 11.9914C6.87281 11.8894 6.84881 11.7763 6.82077 11.6525C6.79269 11.5293 6.77476 11.4377 6.76676 11.3779L19.3152 9.81833C19.5152 9.79258 19.6796 9.70128 19.8078 9.5434C19.9361 9.38588 20 9.20481 20 9.00014V2.45463C19.9999 2.23307 19.924 2.0413 19.7716 1.87912Z" fill="#303030"/>
<path d="M4.6153 16.3637C4.6153 16.8155 4.76546 17.2011 5.06599 17.5204C5.36662 17.8401 5.72904 18 6.15384 18C6.5784 18 6.94103 17.8401 7.24144 17.5204C7.54198 17.2011 7.69231 16.8155 7.69231 16.3637C7.69231 15.9118 7.5421 15.5263 7.24144 15.2066C6.94099 14.8873 6.5784 14.7273 6.15384 14.7273C5.72908 14.7273 5.36645 14.8873 5.06599 15.2066C4.76563 15.5263 4.6153 15.9118 4.6153 16.3637Z" fill="#303030"/>
</svg>
