<svg width="90" height="80" viewBox="0 0 90 80" fill="none" xmlns="http://www.w3.org/2000/svg">
<path d="M81.375 0H18.3958C13.6458 0.0225989 9.79167 4.20339 9.79167 9.37853V9.49153H8.625C3.875 9.49153 0.0208333 13.6497 0 18.8023V70.6215C0.0208333 75.774 3.85417 79.9774 8.625 80H71.6042C76.3542 79.9774 80.2083 75.7966 80.2083 70.6215V70.5085H81.375C86.125 70.5085 89.9792 66.3503 90 61.1977V9.37853C89.9792 4.20339 86.1458 0.0225989 81.375 0ZM71.6042 75.4802H8.625C6.16667 75.4576 4.1875 73.2881 4.16667 70.6215V18.8023C4.1875 16.1582 6.16667 14.0113 8.625 14.0113H71.6042C74.0417 14.0113 76.0417 16.1356 76.0417 18.8023V31.7288C75.6667 31.8192 75.2917 31.8644 74.9375 31.8644H62.9167C56.375 31.8644 51.0625 37.6271 51.0625 44.7232C51.0625 51.8192 56.375 57.5819 62.9167 57.6045H74.9167C75.2917 57.5819 75.6667 57.5367 76.0208 57.4915L76.0417 70.6215C76.0417 73.2881 74.0625 75.4576 71.6042 75.4802ZM85.8333 61.1977C85.8125 63.8418 83.8333 65.9887 81.375 65.9887H80.2083V55.8644C81.1042 55.209 81.9167 54.3955 82.6042 53.4915L85.8333 48.9718V61.1977ZM79.3125 50.7571C78.2708 52.226 76.6458 53.0847 74.9375 53.1073H62.9167C58.6667 53.0847 55.2292 49.3559 55.2292 44.7458C55.2292 40.1356 58.6667 36.4068 62.9167 36.3842H74.9167C76.3542 36.3842 77.7708 36.0452 79.0625 35.3672C80.4375 34.6667 81.6458 33.6045 82.5833 32.2938L85.8125 27.774L85.8333 41.5819L79.3125 50.7571ZM85.8333 20.3842L80.2083 28.2486V18.8023C80.2083 13.6497 76.3542 9.49153 71.6042 9.49153H13.9583V9.37853C13.9583 6.71186 15.9375 4.54237 18.3958 4.51977H81.375C83.8333 4.54237 85.8125 6.71186 85.8333 9.37853V20.3842Z" fill="#FF4545"/>
<path d="M67.5834 42.4859H62.5834C61.4376 42.4859 60.5001 43.5029 60.5001 44.7458C60.5001 45.9887 61.4376 47.0057 62.5834 47.0057H67.5834C68.7292 47.0057 69.6667 45.9887 69.6667 44.7458C69.6667 43.5029 68.7292 42.4859 67.5834 42.4859Z" fill="#FF4545"/>
</svg>
