<svg width="37" height="24" viewBox="0 0 37 24" fill="none" xmlns="http://www.w3.org/2000/svg">
<path d="M13 3H23V22H13V3Z" fill="#FF6E1D"/>
<path d="M13.763 12C13.763 8.16672 15.4331 4.76666 18 2.5666C16.1135 0.966633 13.7321 0 11.1342 0C4.97933 0 0 5.36659 0 12C0 18.6333 4.97933 24 11.1341 24C13.732 24 16.1134 23.0334 18 21.4332C15.4331 19.2666 13.763 15.8333 13.763 12Z" fill="#DB0600"/>
<path d="M36.9999 12C36.9999 18.6333 32.0206 24 25.8659 24C23.268 24 20.8866 23.0334 19 21.4332C21.5979 19.2333 23.2371 15.8333 23.2371 12C23.2371 8.16672 21.5669 4.76666 19 2.5666C20.8864 0.966633 23.268 0 25.8659 0C32.0206 0 37 5.39999 37 12H36.9999Z" fill="#FBA30F"/>
</svg>
