<svg width="18" height="20" viewBox="0 0 18 20" fill="none" xmlns="http://www.w3.org/2000/svg">
<path d="M15 5.00387H14.65C14.8782 4.53676 14.9979 4.02411 15 3.50426C15.003 2.80777 14.7975 2.12631 14.4098 1.5476C14.0221 0.968886 13.4701 0.519414 12.8247 0.257037C12.1794 -0.00534093 11.4703 -0.0686156 10.7886 0.0753573C10.107 0.21933 9.48405 0.563961 9 1.06489C8.51595 0.563961 7.89302 0.21933 7.21138 0.0753573C6.52975 -0.0686156 5.82061 -0.00534093 5.17525 0.257037C4.5299 0.519414 3.97786 0.968886 3.59019 1.5476C3.20252 2.12631 2.99697 2.80777 3 3.50426C3.00213 4.02411 3.12178 4.53676 3.35 5.00387H3C2.20435 5.00387 1.44129 5.31986 0.87868 5.88233C0.316071 6.44479 0 7.20765 0 8.0031V10.0026C0 10.2677 0.105357 10.522 0.292893 10.7095C0.48043 10.897 0.734784 11.0023 1 11.0023H2V17.0008C2 17.7962 2.31607 18.5591 2.87868 19.1215C3.44129 19.684 4.20435 20 5 20H13C13.7956 20 14.5587 19.684 15.1213 19.1215C15.6839 18.5591 16 17.7962 16 17.0008V11.0023H17C17.2652 11.0023 17.5196 10.897 17.7071 10.7095C17.8946 10.522 18 10.2677 18 10.0026V8.0031C18 7.20765 17.6839 6.44479 17.1213 5.88233C16.5587 5.31986 15.7956 5.00387 15 5.00387ZM8 18.0005H5C4.73478 18.0005 4.48043 17.8952 4.29289 17.7077C4.10536 17.5202 4 17.2659 4 17.0008V11.0023H8V18.0005ZM8 9.00284H2V8.0031C2 7.73795 2.10536 7.48366 2.29289 7.29617C2.48043 7.10869 2.73478 7.00336 3 7.00336H8V9.00284ZM8 5.00387H6.5C6.20333 5.00387 5.91332 4.91592 5.66665 4.75114C5.41997 4.58636 5.22771 4.35215 5.11418 4.07814C5.00065 3.80412 4.97094 3.5026 5.02882 3.2117C5.0867 2.9208 5.22956 2.6536 5.43934 2.44387C5.64912 2.23415 5.91639 2.09132 6.20736 2.03346C6.49834 1.9756 6.79994 2.0053 7.07403 2.1188C7.34811 2.2323 7.58238 2.42451 7.7472 2.67112C7.91203 2.91773 8 3.20766 8 3.50426V5.00387ZM10 3.50426C10 3.20766 10.088 2.91773 10.2528 2.67112C10.4176 2.42451 10.6519 2.2323 10.926 2.1188C11.2001 2.0053 11.5017 1.9756 11.7926 2.03346C12.0836 2.09132 12.3509 2.23415 12.5607 2.44387C12.7704 2.6536 12.9133 2.9208 12.9712 3.2117C13.0291 3.5026 12.9994 3.80412 12.8858 4.07814C12.7723 4.35215 12.58 4.58636 12.3334 4.75114C12.0867 4.91592 11.7967 5.00387 11.5 5.00387H10V3.50426ZM14 17.0008C14 17.2659 13.8946 17.5202 13.7071 17.7077C13.5196 17.8952 13.2652 18.0005 13 18.0005H10V11.0023H14V17.0008ZM16 9.00284H10V7.00336H15C15.2652 7.00336 15.5196 7.10869 15.7071 7.29617C15.8946 7.48366 16 7.73795 16 8.0031V9.00284Z" fill="white"/>
</svg>
