<svg width="267" height="215" viewBox="0 0 267 215" fill="none" xmlns="http://www.w3.org/2000/svg">
<mask id="mask0" mask-type="alpha" maskUnits="userSpaceOnUse" x="0" y="0" width="267" height="215">
<rect width="267" height="215" rx="4" fill="#C4C4C4"/>
</mask>
<g mask="url(#mask0)">
<path opacity="0.2" d="M179.609 29.173C179.609 14.7243 184.008 3.41662 192.805 -4.75006C202.23 -12.9167 214.169 -17 228.621 -17C246.215 -17 260.352 -11.3462 271.034 -0.0385208C282.345 10.641 288 26.9743 288 48.9615C288 69.6923 284.858 87.5961 278.575 102.673C272.919 117.75 265.693 130.628 256.897 141.308C248.728 151.359 239.931 159.526 230.506 165.808C222.319 171.264 215.08 175.299 208.789 177.912C207.15 178.593 205.277 178.018 204.226 176.587L185.201 150.72C183.748 148.744 184.402 145.942 186.533 144.727C199.042 137.587 208.987 128.909 216.368 118.692C223.757 108.464 227.804 95.4082 228.509 79.5255C228.624 76.9259 226.154 74.9564 223.56 75.1599C221.977 75.2841 220.208 75.3461 218.253 75.3461C206.314 75.3461 196.889 71.2628 189.977 63.0961C183.065 54.3013 179.609 42.9936 179.609 29.173ZM42 29.173C42 14.7243 46.3985 3.41662 55.1954 -4.75006C64.6207 -12.9167 76.5594 -17 91.0115 -17C108.605 -17 122.743 -11.3462 133.425 -0.0385208C144.736 10.641 150.391 26.9743 150.391 48.9615C150.391 69.6923 147.249 87.5961 140.966 102.673C135.31 117.75 128.084 130.628 119.287 141.308C111.119 151.359 102.322 159.526 92.8965 165.808C84.7094 171.264 77.4706 175.299 71.1799 177.912C69.5403 178.593 67.6683 178.018 66.6164 176.587L47.5919 150.72C46.1388 148.744 46.7933 145.942 48.9234 144.727C61.4332 137.587 71.3782 128.909 78.7586 118.692C86.1476 108.464 90.1947 95.4082 90.8999 79.5255C91.0153 76.9259 88.5453 74.9564 85.951 75.1599C84.3682 75.2841 82.5991 75.3461 80.6437 75.3461C68.705 75.3461 59.2797 71.2628 52.3678 63.0961C45.4559 54.3013 42 42.9936 42 29.173Z" fill="#0069FF"/>
</g>
</svg>
