<svg width="50" height="15" viewBox="0 0 50 15" fill="none" xmlns="http://www.w3.org/2000/svg">
<path d="M0 7.49393V0.537608C0 0.0195494 0 0.0162912 0.492055 0.0162912C1.7837 0.0162912 3.07535 0.0488735 4.36392 0.0162912C5.93849 -0.0358406 6.58739 0.912305 6.90723 2.0201C7.5223 4.14773 8.10354 6.28187 8.7063 8.41276C8.77491 8.59756 8.85932 8.77533 8.95848 8.94385C9.08052 8.78037 9.18376 8.60209 9.26602 8.41276C9.85033 6.35681 10.4162 4.30087 10.9974 2.24492C11.2096 1.48575 11.4864 0.736361 12.1968 0.358406C12.5794 0.155597 12.9993 0.0443639 13.427 0.0325823C14.817 0 16.2194 0.0195494 17.6217 0C17.9077 0 18 0.107522 18 0.410537C18 5.12846 18 9.84638 18 14.5643C18 14.8901 17.9016 14.9683 17.6156 14.9651C16.41 14.9651 15.2045 14.9455 13.999 14.9651C13.6453 14.9651 13.5654 14.8282 13.5684 14.4894C13.5684 11.8632 13.5684 9.23709 13.5684 6.61095C13.5684 6.41546 13.4915 6.07335 13.4054 6.05705C13.0979 5.98863 13.1164 6.334 13.0548 6.53601C12.2614 9.17192 11.468 11.8111 10.6961 14.4568C10.689 14.5404 10.6654 14.6215 10.6267 14.6948C10.588 14.7681 10.5351 14.8319 10.4715 14.8821C10.4079 14.9322 10.3351 14.9675 10.2577 14.9858C10.1803 15.004 10.1002 15.0047 10.0226 14.9879C9.31215 14.952 8.59559 14.9585 7.86981 14.9879C7.80258 15.0019 7.73337 15.0012 7.66639 14.9859C7.59941 14.9706 7.53608 14.941 7.48025 14.899C7.42442 14.8569 7.37727 14.8032 7.34167 14.7412C7.30607 14.6792 7.28277 14.6101 7.27319 14.5382C6.51666 11.9316 5.73552 9.35113 4.96976 6.76083C4.92601 6.56525 4.86527 6.37437 4.78831 6.19064C4.76321 6.15048 4.72952 6.11715 4.68998 6.09338C4.65043 6.0696 4.60616 6.05604 4.56074 6.0538C4.49923 6.0538 4.42542 6.18412 4.40697 6.26884C4.3931 6.39766 4.3931 6.52774 4.40697 6.65657C4.40697 9.26315 4.40697 11.8697 4.40697 14.4568C4.40697 14.8412 4.31471 14.9748 3.93029 14.9683C2.78934 14.9423 1.64531 14.9683 0.501281 14.9683C0 14.9683 0 14.9683 0 14.46V7.49393Z" fill="#3DA536"/>
<path d="M20.0061 7.50389V0.543133C20.0061 0.0315047 20.0061 0.0249871 20.4963 0.0249871C21.629 0.00869323 22.7464 0.00869323 23.8913 0.0249871C24.3662 0.0249871 24.3723 0.0249871 24.3754 0.556168V8.27948C24.3616 8.36903 24.3616 8.4604 24.3754 8.54996C24.4233 8.683 24.4814 8.81161 24.5489 8.93449C24.6464 8.84976 24.7742 8.78785 24.8321 8.68031C24.9813 8.40983 25.097 8.12306 25.2218 7.83954L28.0687 1.46537C28.1418 1.30243 28.2271 1.13949 28.3123 0.986327C28.4607 0.663553 28.6977 0.396981 28.9915 0.222272C29.2854 0.0475633 29.622 -0.0269523 29.9565 0.00869323C31.1227 0.0543162 32.2949 0.00869323 33.4611 0.00869323C33.9909 0.00869323 34 0.00869322 34 0.569203V14.4712C34 14.9795 34 14.9795 33.5098 14.9795C32.3528 14.9795 31.1957 14.9795 30.0387 14.9795C29.7342 14.9795 29.6216 14.8752 29.6216 14.5331C29.6216 11.9065 29.6216 9.27992 29.6216 6.6566C29.6365 6.54857 29.6365 6.43877 29.6216 6.33073C29.576 6.19665 29.5221 6.066 29.4602 5.93967C29.3475 6.03744 29.1892 6.11239 29.1344 6.23622C28.5254 7.66357 27.9165 9.10069 27.3075 10.5313C26.866 11.5611 26.4245 12.5876 25.9678 13.6076C25.8418 13.8748 25.693 14.129 25.5233 14.3669C25.4038 14.568 25.2373 14.7322 25.0402 14.8431C24.8431 14.9541 24.6223 15.0078 24.3997 14.9991C23.0966 14.9795 21.7934 14.9991 20.4902 14.9991C20.003 14.9991 20 14.9991 20 14.4875L20.0061 7.50389Z" fill="#3DA536"/>
<path d="M36 0.0626265C36.1894 0.0626265 36.3492 0.0366139 36.512 0.0366139C39.5633 0.0366139 42.6175 0.0723812 45.6687 0.000846582C47.6605 -0.047927 49.8771 2.01682 49.9926 4.62784C50.0103 4.97575 49.9926 5.32692 49.9778 5.67484C49.9778 5.91221 49.8594 6 49.6345 6C47.767 5.98049 45.8996 5.97074 44.0292 5.95448C43.532 5.95448 43.0348 5.95448 42.5494 5.95448C40.7406 5.9542 39.0018 5.18654 37.6958 3.81169C36.8599 2.89988 36.2831 1.74086 36.0355 0.475576C36.0134 0.339223 36.0016 0.201111 36 0.0626265Z" fill="url(#paint0_linear)"/>
<path d="M50 7.04777C49.6971 7.91947 49.1557 8.68427 48.4399 9.25153C47.5599 9.96141 46.4663 10.3384 45.3448 10.3184C43.8877 10.3184 42.4275 10.3184 40.9766 10.3184C40.5959 10.3184 40.4836 10.4458 40.4899 10.8247C40.5086 12.0699 40.4899 13.3151 40.4899 14.5571C40.4899 14.8756 40.4056 15.0061 40.0686 14.9998C38.8487 14.9807 37.6256 14.9839 36.4025 14.9998C36.0905 14.9998 36 14.8883 36 14.5794C36 12.1909 36 9.80353 36 7.41719C36 7.09872 36.1154 7 36.4181 7C40.8341 7 45.2491 7 49.663 7C49.7761 7.00942 49.8886 7.02537 50 7.04777Z" fill="#3DA536"/>
<defs>
<linearGradient id="paint0_linear" x1="49.8987" y1="6.26458" x2="36.2178" y2="0.118162" gradientUnits="userSpaceOnUse">
<stop stop-color="white"/>
<stop offset="1" stop-color="#02A1E1"/>
</linearGradient>
</defs>
</svg>
