<svg width="20" height="23" viewBox="0 0 20 23" fill="none" xmlns="http://www.w3.org/2000/svg">
<path d="M10.1888 22.9973H2.45012C1.80396 22.9959 1.1844 22.7359 0.725754 22.2736C0.267103 21.8114 0.00634028 21.1842 0 20.5279C0.0107109 16.8076 0.031235 13.0909 0.0615827 9.37787C0.0615827 8.38797 0.431107 7.53675 1.27995 6.99829C2.23858 6.38911 3.22398 5.82073 4.22546 5.26323C7.13883 3.61882 10.0585 1.9871 12.9843 0.368074C13.2842 0.182865 13.6174 0.0599263 13.9644 0.00637608C14.7061 -0.0616122 15.1747 0.419745 15.1747 1.18121C15.1747 2.5165 15.1747 3.84907 15.1747 5.18436C15.1747 7.87398 15.1747 10.5636 15.1747 13.2532C15.1747 14.167 14.8454 14.8849 14.1036 15.3309C13.2979 15.7991 12.4593 16.2064 11.5946 16.5493C9.23818 17.4902 6.86571 18.3822 4.50395 19.3042C4.18639 19.4314 3.87851 19.5823 3.58281 19.7556C3.41893 19.8367 3.28003 19.9618 3.18115 20.1173C3.08194 20.2857 3.05211 20.487 3.09814 20.6775C3.14855 20.7567 3.21692 20.8225 3.29752 20.8694C3.37812 20.9162 3.4686 20.9427 3.56138 20.9468C3.92334 20.9449 4.28347 20.8946 4.63248 20.7972C8.05462 19.8091 11.4794 18.8201 14.9069 17.8302C15.436 17.6874 15.9189 17.4061 16.3074 17.0143C16.5318 16.7973 16.7095 16.5355 16.8293 16.2453C16.9491 15.9551 17.0085 15.6428 17.0036 15.3282C17.0036 13.0166 17.0036 10.705 17.0036 8.39612C17.0036 7.9474 17.0036 7.95012 17.4615 7.93652C17.7935 7.93652 18.1229 7.89845 18.4549 7.88757C18.8529 7.88578 19.236 8.04054 19.5241 8.3194C19.8121 8.59825 19.9827 8.97954 20 9.38331C20 10.0006 20 10.618 20 11.238C19.9839 14.545 19.9687 17.8528 19.9545 21.1616C19.9545 22.3147 19.2743 22.9973 18.1229 23L10.1888 22.9973ZM11.1608 6.72633C10.2316 6.72633 9.20069 7.86038 9.28638 8.79862C9.28748 8.9406 9.32154 9.08031 9.38578 9.20641C9.45003 9.33252 9.54264 9.44146 9.65612 9.52438C9.7696 9.60731 9.90074 9.66189 10.0389 9.68368C10.177 9.70548 10.3183 9.69388 10.4512 9.64983C10.875 9.53066 11.2542 9.28591 11.5404 8.94683C11.8265 8.60775 12.0067 8.18972 12.0578 7.74616C12.0753 7.61731 12.0651 7.48613 12.0277 7.36172C11.9903 7.2373 11.9268 7.12262 11.8415 7.02562C11.7561 6.92862 11.6511 6.85161 11.5335 6.79993C11.416 6.74826 11.2888 6.72314 11.1608 6.72633Z" fill="#EF7F19"/>
</svg>
