<svg width="40" height="40" viewBox="0 0 40 40" fill="none" xmlns="http://www.w3.org/2000/svg">
<circle cx="20" cy="20" r="20" fill="#EBF3FF"/>
<path fill-rule="evenodd" clip-rule="evenodd" d="M26.2602 15.3426C26.9455 15.5272 27.4859 16.0675 27.6703 16.7529C28.0131 18.0049 27.9999 20.6145 27.9999 20.6145C27.9999 20.6145 27.9999 23.2108 27.6705 24.4628C27.4859 25.1481 26.9456 25.6886 26.2602 25.873C25.0081 26.2026 20 26.2026 20 26.2026C20 26.2026 15.0049 26.2026 13.7397 25.8599C13.0543 25.6754 12.514 25.135 12.3295 24.4497C12 23.2108 12 20.6013 12 20.6013C12 20.6013 12 18.0049 12.3295 16.7529C12.5139 16.0676 13.0675 15.514 13.7396 15.3296C14.9917 15 19.9998 15 19.9998 15C19.9998 15 25.0081 15 26.2602 15.3426ZM22.5701 20.6014L18.4054 23.0001V18.2027L22.5701 20.6014Z" fill="#0069FF"/>
</svg>
