<svg width="19" height="19" viewBox="0 0 19 19" fill="none" xmlns="http://www.w3.org/2000/svg">
<path d="M6.33409 9.5C6.33409 7.75116 7.75147 6.33308 9.50038 6.33308C11.2493 6.33308 12.6674 7.75116 12.6674 9.5C12.6674 11.2488 11.2493 12.6669 9.50038 12.6669C7.75147 12.6669 6.33409 11.2488 6.33409 9.5ZM4.62205 9.5C4.62205 12.1942 6.80607 14.3781 9.50038 14.3781C12.1947 14.3781 14.3787 12.1942 14.3787 9.5C14.3787 6.8058 12.1947 4.62186 9.50038 4.62186C6.80607 4.62186 4.62205 6.8058 4.62205 9.5ZM13.4318 4.42844C13.4317 4.65391 13.4985 4.87435 13.6237 5.06187C13.7489 5.24939 13.9269 5.39558 14.1351 5.48195C14.3434 5.56832 14.5726 5.59098 14.7938 5.54708C15.015 5.50319 15.2181 5.39469 15.3776 5.23532C15.5371 5.07596 15.6458 4.87287 15.6899 4.65175C15.734 4.43063 15.7115 4.2014 15.6253 3.99306C15.5391 3.78472 15.393 3.60662 15.2056 3.48128C15.0182 3.35594 14.7978 3.28899 14.5723 3.2889H14.5718C14.2696 3.28904 13.9798 3.40913 13.766 3.62279C13.5523 3.83646 13.4321 4.12622 13.4318 4.42844ZM5.66223 17.2328C4.73598 17.1906 4.23253 17.0363 3.89797 16.906C3.45441 16.7333 3.13794 16.5276 2.8052 16.1954C2.47246 15.8631 2.26649 15.5469 2.09457 15.1034C1.96415 14.769 1.80986 14.2654 1.76775 13.3392C1.7217 12.3378 1.7125 12.037 1.7125 9.50008C1.7125 6.96312 1.72246 6.66315 1.76775 5.66094C1.80994 4.73472 1.96536 4.23214 2.09457 3.89675C2.26725 3.45321 2.47291 3.13675 2.8052 2.80402C3.13748 2.47129 3.45365 2.26533 3.89797 2.09342C4.23238 1.963 4.73598 1.80872 5.66223 1.76662C6.66364 1.72056 6.96446 1.71137 9.50038 1.71137C12.0363 1.71137 12.3374 1.72132 13.3397 1.76662C14.2659 1.8088 14.7685 1.96422 15.1039 2.09342C15.5475 2.26533 15.864 2.47175 16.1967 2.80402C16.5294 3.13629 16.7347 3.45321 16.9073 3.89675C17.0378 4.23115 17.192 4.73472 17.2341 5.66094C17.2802 6.66315 17.2894 6.96312 17.2894 9.50008C17.2894 12.037 17.2802 12.337 17.2341 13.3392C17.192 14.2654 17.0369 14.7689 16.9073 15.1034C16.7347 15.5469 16.529 15.8634 16.1967 16.1954C15.8644 16.5273 15.5475 16.7333 15.1039 16.906C14.7695 17.0364 14.2659 17.1907 13.3397 17.2328C12.3383 17.2788 12.0374 17.288 9.50038 17.288C6.96332 17.288 6.66334 17.2788 5.66223 17.2328ZM5.58356 0.057532C4.57219 0.103588 3.8811 0.263948 3.27756 0.498788C2.65251 0.741304 2.12337 1.06666 1.59462 1.59456C1.06587 2.12245 0.741334 2.6524 0.498808 3.27742C0.263959 3.88132 0.103592 4.57201 0.0575343 5.58334C0.0107164 6.59627 0 6.9201 0 9.5C0 12.0799 0.0107164 12.4037 0.0575343 13.4167C0.103592 14.4281 0.263959 15.1187 0.498808 15.7226C0.741334 16.3472 1.06594 16.8778 1.59462 17.4054C2.1233 17.9331 2.65251 18.258 3.27756 18.5012C3.88224 18.7361 4.57219 18.8964 5.58356 18.9425C6.59706 18.9885 6.92038 19 9.50038 19C12.0804 19 12.4042 18.9893 13.4172 18.9425C14.4286 18.8964 15.1193 18.7361 15.7232 18.5012C16.3479 18.258 16.8774 17.9333 17.4061 17.4054C17.9349 16.8775 18.2587 16.3472 18.502 15.7226C18.7368 15.1187 18.8979 14.428 18.9432 13.4167C18.9893 12.403 19 12.0799 19 9.5C19 6.9201 18.9893 6.59627 18.9432 5.58334C18.8972 4.57193 18.7368 3.88094 18.502 3.27742C18.2587 2.65278 17.9341 2.12329 17.4061 1.59456C16.8782 1.06582 16.3479 0.741304 15.724 0.498788C15.1193 0.263948 14.4286 0.102828 13.418 0.057532C12.405 0.011476 12.0811 0 9.50114 0C6.92114 0 6.59706 0.010716 5.58356 0.057532Z" fill="#65BF4F"/>
<path d="M6.33409 9.5C6.33409 7.75116 7.75147 6.33308 9.50038 6.33308C11.2493 6.33308 12.6674 7.75116 12.6674 9.5C12.6674 11.2488 11.2493 12.6669 9.50038 12.6669C7.75147 12.6669 6.33409 11.2488 6.33409 9.5ZM4.62205 9.5C4.62205 12.1942 6.80607 14.3781 9.50038 14.3781C12.1947 14.3781 14.3787 12.1942 14.3787 9.5C14.3787 6.8058 12.1947 4.62186 9.50038 4.62186C6.80607 4.62186 4.62205 6.8058 4.62205 9.5ZM13.4318 4.42844C13.4317 4.65391 13.4985 4.87435 13.6237 5.06187C13.7489 5.24939 13.9269 5.39558 14.1351 5.48195C14.3434 5.56832 14.5726 5.59098 14.7938 5.54708C15.015 5.50319 15.2181 5.39469 15.3776 5.23532C15.5371 5.07596 15.6458 4.87287 15.6899 4.65175C15.734 4.43063 15.7115 4.2014 15.6253 3.99306C15.5391 3.78472 15.393 3.60662 15.2056 3.48128C15.0182 3.35594 14.7978 3.28899 14.5723 3.2889H14.5718C14.2696 3.28904 13.9798 3.40913 13.766 3.62279C13.5523 3.83646 13.4321 4.12622 13.4318 4.42844ZM5.66223 17.2328C4.73598 17.1906 4.23253 17.0363 3.89797 16.906C3.45441 16.7333 3.13794 16.5276 2.8052 16.1954C2.47246 15.8631 2.26649 15.5469 2.09457 15.1034C1.96415 14.769 1.80986 14.2654 1.76775 13.3392C1.7217 12.3378 1.7125 12.037 1.7125 9.50008C1.7125 6.96312 1.72246 6.66315 1.76775 5.66094C1.80994 4.73472 1.96536 4.23214 2.09457 3.89675C2.26725 3.45321 2.47291 3.13675 2.8052 2.80402C3.13748 2.47129 3.45365 2.26533 3.89797 2.09342C4.23238 1.963 4.73598 1.80872 5.66223 1.76662C6.66364 1.72056 6.96446 1.71137 9.50038 1.71137C12.0363 1.71137 12.3374 1.72132 13.3397 1.76662C14.2659 1.8088 14.7685 1.96422 15.1039 2.09342C15.5475 2.26533 15.864 2.47175 16.1967 2.80402C16.5294 3.13629 16.7347 3.45321 16.9073 3.89675C17.0378 4.23115 17.192 4.73472 17.2341 5.66094C17.2802 6.66315 17.2894 6.96312 17.2894 9.50008C17.2894 12.037 17.2802 12.337 17.2341 13.3392C17.192 14.2654 17.0369 14.7689 16.9073 15.1034C16.7347 15.5469 16.529 15.8634 16.1967 16.1954C15.8644 16.5273 15.5475 16.7333 15.1039 16.906C14.7695 17.0364 14.2659 17.1907 13.3397 17.2328C12.3383 17.2788 12.0374 17.288 9.50038 17.288C6.96332 17.288 6.66334 17.2788 5.66223 17.2328ZM5.58356 0.057532C4.57219 0.103588 3.8811 0.263948 3.27756 0.498788C2.65251 0.741304 2.12337 1.06666 1.59462 1.59456C1.06587 2.12245 0.741334 2.6524 0.498808 3.27742C0.263959 3.88132 0.103592 4.57201 0.0575343 5.58334C0.0107164 6.59627 0 6.9201 0 9.5C0 12.0799 0.0107164 12.4037 0.0575343 13.4167C0.103592 14.4281 0.263959 15.1187 0.498808 15.7226C0.741334 16.3472 1.06594 16.8778 1.59462 17.4054C2.1233 17.9331 2.65251 18.258 3.27756 18.5012C3.88224 18.7361 4.57219 18.8964 5.58356 18.9425C6.59706 18.9885 6.92038 19 9.50038 19C12.0804 19 12.4042 18.9893 13.4172 18.9425C14.4286 18.8964 15.1193 18.7361 15.7232 18.5012C16.3479 18.258 16.8774 17.9333 17.4061 17.4054C17.9349 16.8775 18.2587 16.3472 18.502 15.7226C18.7368 15.1187 18.8979 14.428 18.9432 13.4167C18.9893 12.403 19 12.0799 19 9.5C19 6.9201 18.9893 6.59627 18.9432 5.58334C18.8972 4.57193 18.7368 3.88094 18.502 3.27742C18.2587 2.65278 17.9341 2.12329 17.4061 1.59456C16.8782 1.06582 16.3479 0.741304 15.724 0.498788C15.1193 0.263948 14.4286 0.102828 13.418 0.057532C12.405 0.011476 12.0811 0 9.50114 0C6.92114 0 6.59706 0.010716 5.58356 0.057532Z" fill="#A1A75C"/>
</svg>
