<svg width="512" height="512" viewBox="0 0 512 512" fill="none" xmlns="http://www.w3.org/2000/svg">
<path d="M258.9 507.2C120.4 507.9 6.60009 392.6 9.90009 252C12.9001 118 124 6.99994 262.3 8.69994C398.9 10.3999 511.7 124.1 508.1 264.7C504.7 398.2 394.7 507.8 258.9 507.2ZM40.2001 257.9C41.1001 380.5 138.1 476.1 254.6 477.8C378.2 479.6 477.4 382.1 477.7 258.3C477.8 135.6 379.9 40.2999 263.2 37.9999C143.1 35.6999 41.2001 132.3 40.2001 257.9Z" fill="white"/>
<path d="M413.2 261.3C413.2 283.1 412.6 305 413.3 326.8C414.8 368.7 384.6 403.7 344.7 413.7C336.9 415.7 328.6 416.9 320.6 417C278.3 417.3 236 417.7 193.7 417C158.4 416.4 130.6 401.4 111.8 370.9C104.6 359.2 101 346.2 101 332.4C100.9 284.9 100.5 237.4 101.1 190C101.5 159 117 136.1 142.7 119.7C158.7 109.5 176.4 104.9 195.3 104.9C236.6 104.8 277.9 104.4 319.2 105C355.6 105.5 384.4 120.7 403.1 152.7C409.8 164.2 413.2 176.9 413.2 190.4C413.1 214 413.2 237.7 413.2 261.3ZM124 261.1C124 283.9 124 306.8 124 329.6C124 338.7 125.7 347.5 130 355.6C143.8 381.6 166.4 393.4 194.9 393.8C236.2 394.4 277.6 394.1 318.9 393.8C326 393.8 333.2 392.6 340.1 390.8C367.6 383.4 391 359.6 390.2 324.7C389.2 280.7 390 236.7 390 192.7C390 183 388.2 173.8 383.5 165.3C369.4 140 346.9 128.5 318.9 128.1C277.7 127.5 236.6 127.7 195.4 128.1C187.2 128.2 178.8 129.7 170.9 132.1C144 140.4 122.8 164.3 123.9 196.5C124.6 218.1 124 239.6 124 261.1Z" fill="white"/>
<path d="M257.1 183C297.8 182.9 330.8 215.4 330.8 255.4C330.7 295.2 297.8 327.7 257.5 327.8C216.9 327.9 184 295.5 184 255.3C184 215.4 216.6 183.1 257.1 183ZM257.1 206.2C229.7 206.3 207.1 228.6 207.2 255.5C207.3 282.4 229.8 304.5 257.4 304.6C284.9 304.6 307.5 282.5 307.6 255.6C307.5 228.3 284.8 206.1 257.1 206.2Z" fill="white"/>
<path d="M354.8 176.7C355 185.2 348 192.7 339.7 193C331.2 193.3 323.9 186.1 323.8 177.2C323.7 168.5 330.4 161.2 338.7 160.9C347.2 160.6 354.6 167.9 354.8 176.7Z" fill="white"/>
</svg>
