<svg width="512" height="512" viewBox="0 0 512 512" fill="none" xmlns="http://www.w3.org/2000/svg">
<path d="M258.8 507.2C120.4 507.8 6.60009 392.6 9.90009 251.9C13.0001 118 124 7.20011 262 8.70011C398.7 10.2001 511.8 124 508.1 264.9C504.6 398.3 394.6 507.9 258.8 507.2ZM477.8 257.9C476.8 132.6 375.4 36.2001 255.8 38.0001C139.3 39.7001 40.2001 134.7 40.4001 258.3C40.6001 383.6 142.8 479.9 262.4 478C378.8 476.2 476.9 381.4 477.8 257.9Z" fill="white"/>
<path d="M110.5 403.3C114 392.7 117.3 382.9 120.5 373.2C125 359.8 129.4 346.4 134.1 333C135.3 329.6 135.2 326.9 133.4 323.7C87.4 241.1 134.5 137.2 226.8 117.3C304.3 100.6 380.7 151.7 395 229.8C408.5 304 361.4 375.8 287.9 392.6C255.5 400 224 396.3 194.1 381.4C190.1 379.4 186.8 378.9 182.4 380.4C159.5 388 136.5 395.2 113.5 402.5C112.8 402.7 112.2 402.8 110.5 403.3ZM146.9 367.5C161.2 362.9 174.3 358.8 187.4 354.4C190.4 353.4 192.8 353.6 195.7 355.3C224.1 372.4 254.6 376.7 286.5 368.5C345.6 353.2 382.7 294 371.8 233.8C360.8 173 303.1 131 241.5 138.9C155.8 149.9 111 247 158.4 319.2C160.8 322.9 161 325.8 159.6 329.7C155.3 341.9 151.3 354.2 146.9 367.5Z" fill="white"/>
<path d="M186 222.2C186.2 208.4 191.1 198.1 200.4 189.8C204.7 186 215.4 184.6 220.2 187.5C221.9 188.5 223.2 190.7 223.9 192.6C227.5 201.9 231.1 211.2 234.2 220.7C234.9 223 234.3 226.4 233.1 228.5C230.8 232.3 227.6 235.6 224.5 238.8C222.2 241.2 221.7 243.4 223.3 246.4C234.2 266.6 250 281.4 271 290.8C274.1 292.2 276.7 291.6 279 288.9C282.5 284.7 286.3 280.7 289.8 276.4C292 273.6 294.6 272.8 297.7 274.4C307.4 279.4 317.3 284.3 326.7 289.9C328.4 290.9 329.5 294.7 329.3 297.1C328 314.3 316.3 321.6 301.4 325C294.5 326.6 288 325.2 281.3 323.2C239.8 311.3 212.4 283.2 192.7 246.3C188.5 238.4 186.1 230 186 222.2Z" fill="white"/>
</svg>
