<svg width="512" height="512" viewBox="0 0 512 512" fill="none" xmlns="http://www.w3.org/2000/svg">
<path d="M258.6 507.2C120.3 507.7 6.49994 392.6 9.89995 251.7C13.0999 117.8 124.1 7.09999 262.1 8.69999C398.8 10.3 511.6 124.1 508.1 264.5C504.8 398 394.7 508 258.6 507.2ZM230 387.7C217.8 383.8 205.4 380.9 194 375.8C170.8 365.4 156.1 347.4 151.4 322.1C148.4 305.7 149.6 289.2 151.6 272.8C153.4 258.3 157.6 244.8 168.6 234.3C169.4 233.5 169.5 231.2 169 230C163.7 215.5 164.3 201 168.6 186.3C169.9 181.9 172 181.4 175.8 182.6C185.8 185.7 193.9 191.7 200.8 199.3C204.5 203.3 207.8 207.7 211.3 211.9C232.1 198.4 291.6 198.4 313.4 211.7C317.6 206.8 321.6 201.7 326.1 197C332.8 190.1 340.6 184.8 350.1 182.2C353.2 181.3 354.9 182 356 185.3C360.9 199.8 361.8 214.3 356 228.8C354.9 231.7 355 233.6 357.3 235.8C364.2 242.4 368.4 250.7 370.6 260C374.8 277.3 375.7 295 374.5 312.6C373.2 331.5 366.1 348.1 352.2 361.4C340.5 372.5 326.5 379.1 311.1 383C305.5 384.4 299.9 385.4 293.9 386.6C301.6 398.4 303.5 411.2 303.2 424.6C302.9 438.9 303.1 453.3 303.1 467.6C303.1 469.3 303.2 471.1 303.3 472.9C394.6 456.3 486.8 365.4 476.7 239.5C467.2 119.4 360.9 27.2 237.9 39C123 50 30.7999 152.5 41.1999 276.7C51.0999 394.2 146.3 464.6 220.8 473.8C220.8 465.3 220.8 456.8 220.8 448.2C216.7 448.8 213 449.3 209.4 449.7C182.6 452.7 161.3 440.7 149.4 416.8C142.9 403.7 136 390.6 123.2 382.2C121.8 381.3 121 379.6 119.8 378.1C120.9 377.3 121.4 376.9 122 376.6C122.8 376.3 123.6 376.2 124.4 376.1C133.4 375.5 141.9 377.1 148.6 383.4C153 387.5 157 392.4 160.3 397.5C172.9 417.2 194.6 425.5 216.7 418.9C219.7 418 221.4 416.7 221.7 413.2C222.3 403.8 224.9 394.9 230 387.7Z" fill="white"/>
</svg>
