<svg width="512" height="512" viewBox="0 0 512 512" fill="none" xmlns="http://www.w3.org/2000/svg">
<path d="M258.8 507.2C120.4 507.8 6.60009 392.6 9.90009 251.9C13.0001 118 123.9 7.20011 262 8.70011C398.7 10.2001 511.8 124 508.1 264.8C504.6 398.3 394.6 507.9 258.8 507.2ZM40.2001 258.2C41.3001 383.3 142.4 479.5 261.8 478C378.1 476.5 477.5 382 477.6 258.1C477.7 132.9 375.7 36.4001 255.9 38.0001C139.6 39.6001 41.1001 134.3 40.2001 258.2Z" fill="white"/>
<path d="M257.7 360.3C223.9 359.2 190.1 358.2 156.3 356.8C149.1 356.5 141.7 355.1 134.8 353C118.4 348 111.2 334.9 109 319.3C106.5 301.7 104.8 283.9 104.6 266.1C104.4 242.2 105.9 218.2 107.2 194.2C107.8 183.9 110.5 173.7 116.2 164.9C124.3 152.2 137 147.9 151.2 147.1C217.1 143.3 283.1 143.1 349 146.3C356.3 146.7 363.6 147.2 370.9 148C387.3 150 399.2 158.6 403.7 174.6C407 186.5 409.3 199 409.7 211.4C410.6 238.3 410.4 265.3 409.8 292.3C409.5 303.5 407.6 314.8 404.9 325.8C400.4 344.4 387.6 354.6 368.6 356.2C352.3 357.5 336 358.4 319.7 358.7C299.1 359.1 278.4 358.8 257.7 358.8C257.7 359.2 257.7 359.8 257.7 360.3ZM308.8 248.7C280.8 234.1 253.7 220 226.3 205.7C226.3 234.7 226.3 262.7 226.3 291.5C253.9 277.2 281 263.2 308.8 248.7Z" fill="white"/>
</svg>
