<svg width="128" height="128" viewBox="0 0 128 128" fill="none" xmlns="http://www.w3.org/2000/svg">
<path d="M64 128C99.3462 128 128 99.3462 128 64C128 28.6538 99.3462 0 64 0C28.6538 0 0 28.6538 0 64C0 99.3462 28.6538 128 64 128Z" fill="#010101"/>
<path d="M77.4 75.3C75.4 75 74 73.4 74 71.4V65.6C76.1 63.3 77.5 60.3 77.8 56.9L78 53.7C79.1 53.1 80.2 51.7 80.7 49.9C81.4 47.4 80.8 45.2 79.2 45C79 45 78.8 45 78.5 45L78.9 39.1C79.6 30.9 73.3 24 65.3 24H62.8C54.8 24 48.5 30.9 49 39.1L49.4 45.1C49.2 45 49 45 48.8 45C47.2 45.2 46.6 47.4 47.3 49.9C47.8 51.8 49 53.2 50.1 53.8L50.3 56.9C50.5 60.3 51.9 63.3 54 65.6V71.4C54 73.4 52.6 75 50.6 75.3C41.8 76.8 27 83.2 27 90V104H101V90C101 83.2 86.2 76.8 77.4 75.3Z" fill="#E5E5E5"/>
</svg>
