<svg width="574" height="674" viewBox="0 0 574 674" fill="none" xmlns="http://www.w3.org/2000/svg">
<g filter="url(#filter0_d)">
<path d="M537.601 111.816C495.194 111.816 460.695 74.5675 460.695 28.785V10H109.304V28.785C109.304 74.57 74.8034 111.816 32.399 111.816H15V236.739C15 326.508 40.046 412.946 87.4336 486.709C134.821 560.47 201.03 616.085 278.904 647.537L285 650L291.097 647.537C368.972 616.085 435.181 560.471 482.566 486.709C529.954 412.946 555 326.508 555 236.739V111.816H537.601ZM520.203 236.739C520.203 318.819 497.3 397.851 453.972 465.295C411.888 530.805 353.562 580.661 284.999 609.82C216.437 580.66 158.11 530.805 116.026 465.295C72.6986 397.853 49.7979 318.819 49.7979 236.739V147.926C97.4865 139.839 135.259 99.0575 142.749 47.57H427.252C434.741 99.0575 472.514 139.839 520.203 147.926V236.739Z" fill="white"/>
<path d="M419.867 391.575C416.707 391.575 413.708 392.172 410.93 393.172L369.859 355.497L372.739 352.854L392.404 334.815C396.245 331.292 396.245 325.584 392.404 322.061C388.563 318.537 382.341 318.537 378.5 322.061L365.978 333.548L324.391 293.281L421.709 208.709C422.742 207.819 423.553 206.727 424.081 205.511L443.746 160.413C445.206 157.066 444.347 153.243 441.566 150.689C438.787 148.135 434.614 147.36 430.961 148.69L381.797 166.729C380.482 167.213 379.291 167.953 378.312 168.904L287.127 257.198L195.94 168.905C194.96 167.953 193.77 167.214 192.454 166.729L143.291 148.69C139.638 147.36 135.466 148.136 132.685 150.69C129.906 153.244 129.046 157.067 130.506 160.414L150.171 205.512C150.699 206.727 151.511 207.82 152.542 208.71L249.861 293.282L208.275 333.548L195.752 322.061C191.911 318.538 185.689 318.538 181.848 322.061C178.007 325.584 178.007 331.292 181.848 334.815L201.513 352.855L204.394 355.497L163.323 393.172C160.545 392.172 157.546 391.575 154.386 391.575C140.833 391.575 129.804 401.687 129.804 414.124C129.804 426.561 140.832 436.673 154.386 436.673C167.94 436.673 178.968 426.562 178.968 414.124C178.968 411.225 178.317 408.475 177.227 405.927L218.298 368.251L221.179 370.894L240.845 388.933C242.765 390.695 245.281 391.576 247.796 391.576C250.312 391.576 252.828 390.695 254.748 388.933C258.589 385.41 258.589 379.702 254.748 376.179L242.223 364.689L287.127 325.667L332.03 364.69L319.505 376.179C315.664 379.702 315.664 385.41 319.505 388.933C321.425 390.695 323.941 391.576 326.457 391.576C328.972 391.576 331.488 390.695 333.408 388.933L353.074 370.894L355.955 368.251L397.026 405.927C395.936 408.475 395.285 411.225 395.285 414.124C395.285 426.561 406.313 436.673 419.867 436.673C433.42 436.673 444.449 426.562 444.449 414.124C444.448 401.687 433.42 391.575 419.867 391.575ZM154.386 418.634C151.673 418.634 149.47 416.608 149.47 414.124C149.47 411.641 151.673 409.615 154.386 409.615C157.099 409.615 159.302 411.641 159.302 414.124C159.302 416.608 157.099 418.634 154.386 418.634ZM391.108 182.743L416.967 173.256L406.621 196.977L310.869 280.189L300.67 270.313L391.108 182.743ZM157.286 173.256L183.145 182.743L352.066 346.31L345.934 351.93L167.633 196.977L157.286 173.256ZM228.318 351.93L222.187 346.31L264.138 305.688L272.832 313.245L228.318 351.93ZM419.867 418.634C417.154 418.634 414.951 416.608 414.951 414.124C414.951 411.641 417.154 409.615 419.867 409.615C422.58 409.615 424.783 411.641 424.783 414.124C424.783 416.608 422.58 418.634 419.867 418.634Z" fill="white"/>
<ellipse cx="285" cy="547.516" rx="27.6378" ry="27.1895" fill="white"/>
</g>
<defs>
<filter id="filter0_d" x="0" y="0" width="574" height="674" filterUnits="userSpaceOnUse" color-interpolation-filters="sRGB">
<feFlood flood-opacity="0" result="BackgroundImageFix"/>
<feColorMatrix in="SourceAlpha" type="matrix" values="0 0 0 0 0 0 0 0 0 0 0 0 0 0 0 0 0 0 127 0"/>
<feOffset dx="2" dy="7"/>
<feGaussianBlur stdDeviation="8.5"/>
<feColorMatrix type="matrix" values="0 0 0 0 0 0 0 0 0 0 0 0 0 0 0 0 0 0 0.2 0"/>
<feBlend mode="normal" in2="BackgroundImageFix" result="effect1_dropShadow"/>
<feBlend mode="normal" in="SourceGraphic" in2="effect1_dropShadow" result="shape"/>
</filter>
</defs>
</svg>
