<svg width="36" height="36" viewBox="0 0 36 36" fill="none" xmlns="http://www.w3.org/2000/svg">
<path d="M25.8732 36.0002C24.7111 36.0002 23.5589 35.7947 22.4321 35.3854C17.4684 33.5822 12.861 30.6454 9.10785 26.8923C5.3547 23.1392 2.41786 18.5317 0.61476 13.568C0.0353352 11.9728 -0.135659 10.3261 0.1067 8.67358C0.333731 7.12563 0.933334 5.6229 1.84075 4.32779C2.75218 3.02698 3.96728 1.94505 5.35463 1.199C6.8341 0.403439 8.4489 0 10.1543 0C10.6848 0 11.1432 0.370604 11.2543 0.88921L13.0201 9.12947C13.1 9.5026 12.9854 9.89085 12.7156 10.1607L9.69838 13.1778C12.5447 18.8368 17.1632 23.4553 22.8222 26.3016L25.8393 23.2844C26.1091 23.0146 26.4975 22.9001 26.8705 22.9799L35.1108 24.7457C35.6295 24.8568 36 25.3152 36 25.8457C36 27.5511 35.5966 29.166 34.8009 30.6454C34.0549 32.0328 32.9729 33.2479 31.6721 34.1593C30.3771 35.0667 28.8744 35.6663 27.3264 35.8934C26.8413 35.9646 26.3563 36.0001 25.8732 36.0002ZM9.2555 2.29914C7.00593 2.54747 5.00927 3.72657 3.68337 5.61896C2.19237 7.74689 1.84469 10.3642 2.72947 12.7999C6.19603 22.3427 13.6574 29.8041 23.2003 33.2707C25.6359 34.1554 28.2532 33.8078 30.3812 32.3168C32.2736 30.9909 33.4527 28.9942 33.701 26.7446L26.9976 25.3082L23.8466 28.4592C23.5113 28.7945 23.0018 28.8836 22.5728 28.682C15.88 25.5377 10.4624 20.1202 7.31818 13.4274C7.1166 12.9983 7.20561 12.4888 7.54092 12.1536L10.6919 9.00256L9.2555 2.29914Z" fill="#FF4545"/>
</svg>
