<svg width="80" height="80" viewBox="0 0 80 80" fill="none" xmlns="http://www.w3.org/2000/svg">
<path d="M79.9633 18.8603C79.9633 18.5564 79.89 18.2524 79.7432 17.9654C79.4498 17.3913 78.8812 17.003 78.2577 16.8848L40.8987 0.202617C40.2934 -0.067539 39.5782 -0.067539 38.9729 0.202617L1.24713 17.0367C0.513526 17.3575 0.0366804 18.0329 0 18.7927V18.8096C0 18.8265 0 18.8434 0 18.8772V61.1228C0 61.8995 0.476846 62.6087 1.24713 62.9464L38.9729 79.7805C38.9913 79.7805 38.9913 79.7805 39.0096 79.7974C39.0646 79.8143 39.1197 79.8312 39.1747 79.8649C39.193 79.8649 39.2114 79.8818 39.2481 79.8818C39.3031 79.8987 39.3581 79.9156 39.4131 79.9325C39.4314 79.9325 39.4498 79.9493 39.4681 79.9493C39.5232 79.9662 39.5965 79.9662 39.6515 79.9831C39.6699 79.9831 39.6882 79.9831 39.7066 79.9831C39.7799 79.9831 39.8716 80 39.945 80C40.0183 80 40.11 80 40.1834 79.9831C40.2017 79.9831 40.2201 79.9831 40.2384 79.9831C40.2934 79.9831 40.3668 79.9662 40.4218 79.9493C40.4402 79.9493 40.4585 79.9325 40.4768 79.9325C40.5319 79.9156 40.5869 79.8987 40.6419 79.8818C40.6602 79.8818 40.6786 79.8649 40.7153 79.8649C40.7703 79.848 40.8253 79.8312 40.8803 79.7974C40.8987 79.7974 40.8987 79.7974 40.917 79.7805L78.7529 62.8957C79.5048 62.558 80 61.8489 80 61.0722V18.9109C79.9633 18.894 79.9633 18.8772 79.9633 18.8603ZM39.9266 4.27184L72.6456 18.8772L60.5961 24.2634L27.8771 9.65808L39.9266 4.27184ZM39.9266 33.4825L7.2077 18.8772L22.8336 11.9038L55.5525 26.5091L39.9266 33.4825ZM4.40165 22.1359L37.7258 37.0114V74.7151L4.40165 59.8396V22.1359ZM42.1275 74.7151V37.0114L57.7717 30.0211V39.8818C57.7717 40.9962 58.762 41.908 59.9725 41.908C61.1829 41.908 62.1733 40.9962 62.1733 39.8818V28.0456L75.5617 22.0684V59.7721L42.1275 74.7151Z" fill="#FF4545"/>
</svg>
