<svg width="25" height="25" viewBox="0 0 25 25" fill="none" xmlns="http://www.w3.org/2000/svg">
<circle cx="12.5" cy="12.5" r="12.0735" stroke="white" stroke-width="0.853053"/>
<path d="M13.3029 17.3002C13.2528 17.3023 13.2207 17.3065 13.1887 17.3065C12.5032 17.3065 11.8197 17.3044 11.1342 17.3085C11.038 17.3085 11.0119 17.2815 11.0119 17.1816C11.0139 15.5244 11.0139 13.8652 11.0139 12.208C11.0139 12.1643 11.0139 12.1206 11.0139 12.0644C10.6411 12.0644 10.2783 12.0644 9.90952 12.0644C9.90952 11.4731 9.90952 10.8923 9.90952 10.2948C9.9476 10.2948 9.98368 10.2948 10.0178 10.2948C10.3184 10.2948 10.6191 10.2927 10.9197 10.2969C10.9959 10.2969 11.0159 10.274 11.0159 10.197C11.0119 9.73271 11.0119 9.26637 11.0159 8.80212C11.0179 8.47735 11.068 8.16091 11.2124 7.86737C11.4188 7.45308 11.7455 7.18453 12.1584 7.01798C12.4952 6.88058 12.8499 6.83061 13.2067 6.82437C13.788 6.81604 14.3693 6.8202 14.9505 6.81812C15.0046 6.81812 15.0487 6.81604 15.0487 6.89515C15.0467 7.46766 15.0467 8.04016 15.0467 8.61267C15.0467 8.61892 15.0447 8.62516 15.0367 8.65223C15.0026 8.65223 14.9646 8.65223 14.9265 8.65223C14.5657 8.65223 14.2049 8.65015 13.8441 8.65223C13.6357 8.65223 13.4673 8.73967 13.3611 8.92911C13.329 8.98532 13.3089 9.05819 13.3089 9.12481C13.3029 9.47872 13.3089 9.83263 13.3049 10.1865C13.3049 10.2698 13.329 10.2927 13.4072 10.2927C13.9082 10.2886 14.4093 10.2906 14.9104 10.2906C14.9505 10.2906 14.9886 10.2906 15.0568 10.2906C14.9866 10.886 14.9185 11.469 14.8483 12.0581C14.3272 12.0581 13.8201 12.0581 13.3029 12.0581C13.3029 13.809 13.3029 15.5494 13.3029 17.3002Z" fill="white"/>
</svg>
