<svg width="26" height="25" viewBox="0 0 26 25" fill="none" xmlns="http://www.w3.org/2000/svg">
<circle cx="13.4828" cy="12.5" r="12.0735" stroke="white" stroke-width="0.853053"/>
<path d="M19.3532 9.60216C19.4404 9.30761 19.3532 9.09082 18.9338 9.09082H17.5458C17.1923 9.09082 17.0297 9.27698 16.9426 9.48436C16.9426 9.48436 16.2356 11.2069 15.2365 12.3239C14.9137 12.6467 14.7652 12.7504 14.5885 12.7504C14.5013 12.7504 14.367 12.6467 14.367 12.3522V9.60216C14.367 9.24869 14.2679 9.09082 13.9758 9.09082H11.7937C11.5721 9.09082 11.4402 9.25579 11.4402 9.40894C11.4402 9.74354 11.9398 9.8213 11.9916 10.7639V12.8094C11.9916 13.2571 11.9115 13.3395 11.7348 13.3395C11.2635 13.3395 10.1182 11.6099 9.43954 9.63045C9.30289 9.24635 9.16853 9.09082 8.81271 9.09082H7.42469C7.02881 9.09082 6.94867 9.27698 6.94867 9.48436C6.94867 9.85193 7.41997 11.6783 9.14256 14.0913C10.2902 15.7384 11.9067 16.6316 13.3772 16.6316C14.2608 16.6316 14.3692 16.4337 14.3692 16.092C14.3692 14.5178 14.2891 14.3693 14.7322 14.3693C14.9372 14.3693 15.2906 14.473 16.1155 15.2671C17.058 16.2097 17.2135 16.6316 17.7414 16.6316H19.1294C19.5253 16.6316 19.7256 16.4336 19.6101 16.0424C19.3462 15.22 17.5623 13.5281 17.4822 13.4149C17.2772 13.151 17.3361 13.0332 17.4822 12.7975C17.4846 12.7952 19.1788 10.4104 19.3532 9.60216Z" fill="white"/>
</svg>
