<svg width="26" height="25" viewBox="0 0 26 25" fill="none" xmlns="http://www.w3.org/2000/svg">
<circle cx="13.4884" cy="12.5" r="12.0735" stroke="white" stroke-width="0.853053"/>
<path d="M16.2409 12.5945C15.8558 12.5945 15.0856 13.3647 13.5452 13.3647C12.0048 13.3647 11.2346 12.5945 10.8495 12.5945C10.4244 12.5945 10.0793 12.9395 10.0793 13.3647C10.0793 13.7498 10.2981 13.935 10.4644 14.0324C10.9208 14.2993 12.3899 14.9051 12.3899 14.9051L10.7533 16.9993C10.7533 16.9993 10.4644 17.3593 10.4644 17.6008C10.4644 18.0259 10.8095 18.371 11.2346 18.371C11.6278 18.371 11.8061 18.1184 11.8061 18.1184C11.8061 18.1184 13.5426 16.0577 13.5452 16.0604C13.5479 16.0577 15.2844 18.1184 15.2844 18.1184C15.2844 18.1184 15.4627 18.371 15.8558 18.371C16.281 18.371 16.626 18.0259 16.626 17.6008C16.626 17.3593 16.3372 16.9993 16.3372 16.9993L14.7005 14.9051C14.7005 14.9051 16.1697 14.2993 16.626 14.0324C16.7924 13.935 17.0111 13.7498 17.0111 13.3647C17.0111 12.9395 16.6661 12.5945 16.2409 12.5945Z" fill="white"/>
<path d="M13.5458 6.81812C12.057 6.81812 10.8501 8.02502 10.8501 9.51382C10.8501 11.0026 12.057 12.2095 13.5458 12.2095C15.0342 12.2095 16.2415 11.0026 16.2415 9.51382C16.2415 8.02502 15.0342 6.81812 13.5458 6.81812ZM13.5458 10.8617C12.8014 10.8617 12.1979 10.2586 12.1979 9.51382C12.1979 8.76942 12.8014 8.16597 13.5458 8.16597C14.2898 8.16597 14.8936 8.76942 14.8936 9.51382C14.8936 10.2586 14.2898 10.8617 13.5458 10.8617Z" fill="white"/>
</svg>
