<svg width="26" height="25" viewBox="0 0 26 25" fill="none" xmlns="http://www.w3.org/2000/svg">
<circle cx="13.4772" cy="12.5" r="12.0735" stroke="white" stroke-width="0.853053"/>
<path fill-rule="evenodd" clip-rule="evenodd" d="M18.6221 9.20009C18.9456 9.54961 19.0509 10.3435 19.0509 10.3435C19.0509 10.3435 19.1588 11.2749 19.1588 12.2068V13.0799C19.1588 14.0117 19.0509 14.9432 19.0509 14.9432C19.0509 14.9432 18.9453 15.7367 18.6221 16.0856C18.2519 16.4986 17.8417 16.5415 17.61 16.5657C17.5847 16.5683 17.5615 16.5708 17.5408 16.5734C16.0303 16.6891 13.7625 16.6932 13.7625 16.6932C13.7625 16.6932 10.9562 16.6659 10.0929 16.5775C10.052 16.5693 10.0025 16.5629 9.94649 16.5557C9.67308 16.5206 9.24399 16.4654 8.90297 16.0852C8.57943 15.7364 8.47417 14.9429 8.47417 14.9429C8.47417 14.9429 8.36621 14.0117 8.36621 13.0796V12.2064C8.36621 11.2749 8.47417 10.3435 8.47417 10.3435C8.47417 10.3435 8.57977 9.54961 8.90297 9.20009C9.27476 8.78558 9.6863 8.74388 9.9175 8.72046C9.94183 8.718 9.96417 8.71573 9.98426 8.71326C11.4943 8.59619 13.7598 8.59619 13.7598 8.59619H13.7649C13.7649 8.59619 16.0303 8.59619 17.5408 8.71326C17.5609 8.71574 17.5832 8.718 17.6076 8.72047C17.8388 8.74389 18.2506 8.78559 18.6221 9.20009ZM15.7885 12.6447L12.4148 14.6689V10.6204L15.7885 12.6447Z" fill="white"/>
</svg>
