<svg width="26" height="25" viewBox="0 0 26 25" fill="none" xmlns="http://www.w3.org/2000/svg">
<circle cx="13.4944" cy="12.5" r="12.0735" stroke="white" stroke-width="0.853053"/>
<path d="M13.4375 9.75366C11.978 9.75366 10.7688 10.942 10.7688 12.4223C10.7688 13.9025 11.9572 15.0909 13.4375 15.0909C14.9177 15.0909 16.1061 13.8817 16.1061 12.4223C16.1061 10.9629 14.8969 9.75366 13.4375 9.75366ZM13.4375 14.1319C12.4993 14.1319 11.7279 13.3605 11.7279 12.4223C11.7279 11.4841 12.4993 10.7127 13.4375 10.7127C14.3756 10.7127 15.147 11.4841 15.147 12.4223C15.147 13.3605 14.3756 14.1319 13.4375 14.1319Z" fill="white"/>
<path d="M16.2103 10.2956C16.5442 10.2956 16.8149 10.025 16.8149 9.69104C16.8149 9.35712 16.5442 9.08643 16.2103 9.08643C15.8764 9.08643 15.6057 9.35712 15.6057 9.69104C15.6057 10.025 15.8764 10.2956 16.2103 10.2956Z" fill="white"/>
<path d="M17.774 8.1275C17.2319 7.56459 16.4605 7.27271 15.5849 7.27271H11.2901C9.47625 7.27271 8.26703 8.48192 8.26703 10.2958V14.5697C8.26703 15.4662 8.55891 16.2376 9.14267 16.8005C9.70558 17.3426 10.4561 17.6136 11.3109 17.6136H15.564C16.4605 17.6136 17.2111 17.3217 17.7531 16.8005C18.3161 16.2585 18.6079 15.4871 18.6079 14.5906V10.2958C18.6079 9.42011 18.3161 8.66956 17.774 8.1275ZM17.6906 14.5906C17.6906 15.2369 17.4613 15.7581 17.086 16.1125C16.7107 16.4669 16.1895 16.6546 15.564 16.6546H11.3109C10.6855 16.6546 10.1643 16.4669 9.78898 16.1125C9.4137 15.7372 9.22606 15.216 9.22606 14.5697V10.2958C9.22606 9.67029 9.4137 9.14908 9.78898 8.7738C10.1434 8.41938 10.6855 8.23174 11.3109 8.23174H15.6057C16.2312 8.23174 16.7524 8.41938 17.1277 8.79465C17.4821 9.16993 17.6906 9.69114 17.6906 10.2958V14.5906Z" fill="white"/>
</svg>
