<svg width="69" height="45" viewBox="0 0 69 45" fill="none" xmlns="http://www.w3.org/2000/svg">
<path d="M35.0205 38.3387C33.4501 38.9712 31.9568 39.5405 30.2977 39.71C29.0748 39.8365 28.041 40.3425 27.1555 41.0611C26.0315 41.9693 26.2831 42.994 27.7371 43.4077C29.7292 43.9756 31.7605 43.8276 33.7787 43.5342C36.8918 43.08 39.7578 41.9934 42.6092 40.8776C46.3272 39.4191 49.9362 37.791 53.2238 35.6784C55.0617 34.4981 56.6146 33.099 57.3271 31.1319C57.9335 29.4583 57.6296 27.8846 56.6873 26.3755C56.4173 25.9346 56.0334 25.5541 55.566 25.264C55.0985 24.9738 54.5601 24.7818 53.993 24.7031C52.4968 24.4691 50.9744 24.3413 49.4578 24.2224C46.6122 23.9985 43.7579 23.8505 40.9152 23.5899C40.0784 23.5049 39.2685 23.2794 38.5306 22.9258C37.5127 22.4375 37.187 21.5406 37.725 20.6424C38.2618 19.7698 38.9016 18.9481 39.6342 18.1908C41.7327 15.997 44.3143 14.1906 47.2273 12.8778C47.5684 12.7175 47.9257 12.5845 48.2945 12.4805C49.1263 12.2528 49.8722 12.3325 50.4262 13.0068C50.6305 13.2422 50.8484 13.4685 51.0791 13.6848C51.4164 14.0188 51.5153 14.3793 51.2724 14.7905C51.0602 15.151 51.0529 15.5495 51.4586 15.7468C51.7901 15.9113 52.331 16.0567 52.6218 15.934C54.1006 15.3167 55.5415 14.6273 56.9694 13.9201C57.3351 13.7122 57.6519 13.4456 57.9029 13.1346C58.5413 12.4211 58.39 11.4723 57.5234 10.984C56.4314 10.3642 55.3016 9.79492 54.1791 9.21301C51.1416 7.65072 48.0095 8.02137 44.924 9.00555C42.0072 9.9366 39.5004 11.5141 37.0721 13.1637C36.1575 13.786 35.2808 14.4552 34.42 15.1333C32.7231 16.4729 31.3664 18.015 30.8488 20.1782C30.7261 20.0233 30.6172 19.8605 30.5231 19.6911C30.1436 18.7576 29.7263 17.8328 29.4238 16.8803C29.3089 16.5134 29.3206 16.015 29.5183 15.6886C32.6067 10.578 35.7262 5.48079 38.8766 0.397115C38.9544 0.291978 39.0582 0.203321 39.1805 0.137652C39.3028 0.0719816 39.4404 0.0309647 39.5833 0.0176105C48.1622 -0.00178641 56.7411 -0.00516001 65.3201 0.00749015C67.2685 0.00749015 68.6877 1.7102 68.1773 3.3446C64.3609 15.5866 60.5396 27.8277 56.7135 40.068C56.1668 41.8099 55.1868 43.3748 53.2616 44.2717C52.6495 44.5668 51.966 44.732 51.2666 44.7536C37.2592 44.7806 23.2518 44.7869 9.24444 44.7726C9.12521 44.7726 9.00452 44.76 8.80823 44.7486C8.85652 44.6107 8.9178 44.4766 8.99144 44.3476C13.7006 37.5392 18.4113 30.7322 23.1234 23.9264C23.5174 23.3559 23.8344 23.3698 24.211 23.9264C26.0887 26.6808 27.979 29.4292 29.8818 32.1718C29.9953 32.335 30.4155 32.483 30.6089 32.4248C31.0451 32.2983 31.2298 32.4248 31.4188 32.7271C32.5922 34.5652 33.7758 36.402 35.0205 38.3387Z" fill="white"/>
<path d="M12.6134 1.57104C12.9798 2.24783 13.3506 2.92335 13.7112 3.60266C16.0624 8.04033 18.4034 12.4831 20.7736 16.9132C21.044 17.4192 21.0062 17.786 20.6281 18.2364C19.6467 19.3863 18.7291 20.5766 17.7869 21.7506C17.6157 21.9413 17.4969 22.1635 17.4397 22.4004C17.3825 22.6372 17.3883 22.8823 17.4569 23.1168C17.5252 23.3571 17.3812 23.686 17.2271 23.9226C13.8585 29.1151 10.4822 34.3029 7.09816 39.4861C6.04833 41.099 4.98832 42.7068 3.9574 44.3298C3.74074 44.6714 3.48192 44.7827 3.03989 44.7789C0.956225 44.7663 -0.352426 42.8257 0.0837911 41.4228C4.07808 28.6626 7.99385 15.8834 11.9329 3.1093L12.404 1.57231L12.6134 1.57104Z" fill="white"/>
<path d="M33.2048 26.3757C35.8367 27.0234 38.4263 26.9045 41.0058 26.9146C42.7507 26.9222 44.4956 26.8615 46.2245 26.9703C47.1392 27.0489 48.03 27.2713 48.8534 27.6268C50.2914 28.2214 50.5546 29.3004 49.435 30.2897C48.295 31.321 47.0441 32.255 45.6995 33.079C43.4094 34.4516 41.0073 35.6824 38.6459 36.9639C38.3158 37.1182 37.976 37.2563 37.6281 37.3776C36.1566 33.7027 34.6981 30.0835 33.2048 26.3757Z" fill="white"/>
<path d="M26.2695 10.0718C24.4825 6.76509 22.694 3.45833 20.859 0.0617676H31.7644C31.6525 0.290735 31.5652 0.499463 31.4533 0.694275C29.8771 3.44568 28.2921 6.1895 26.7392 8.94724C26.5604 9.26476 26.5429 9.65059 26.4484 10.0061L26.2695 10.0718Z" fill="white"/>
</svg>
