<svg width="68" height="80" viewBox="0 0 68 80" fill="none" xmlns="http://www.w3.org/2000/svg">
<path d="M67.9208 21.706L67.9183 21.6438C67.8836 20.8754 67.8604 20.0624 67.8464 19.1578C67.7812 14.7468 64.2812 11.0982 59.8776 10.8516C50.6964 10.3383 43.5939 7.33901 37.5253 1.41311L37.4735 1.36368C35.4941 -0.454558 32.5082 -0.454558 30.5282 1.36368L30.4764 1.41311C24.4078 7.33901 17.3053 10.3383 8.12415 10.8522C3.72119 11.0982 0.220515 14.7468 0.155327 19.1584C0.141924 20.0569 0.118164 20.8699 0.083437 21.6438L0.0797817 21.7884C-0.0987247 31.1677 -0.320487 42.8406 3.57741 53.4357C5.72071 59.2621 8.96672 64.3268 13.2247 68.49C18.0742 73.2312 24.4261 76.9952 32.1037 79.6771C32.3535 79.7644 32.613 79.8352 32.8774 79.8883C33.2503 79.9628 33.6256 80 34.0009 80C34.3762 80 34.7521 79.9628 35.1243 79.8883C35.3887 79.8352 35.6501 79.7638 35.9011 79.6759C43.5696 76.9891 49.9148 73.2233 54.76 68.4827C59.0162 64.3183 62.2622 59.2524 64.4073 53.4247C68.3198 42.7979 68.0987 31.103 67.9208 21.706ZM60.011 51.8006C55.8999 62.9676 47.5077 70.6366 34.3548 75.2448C34.3079 75.2606 34.258 75.2747 34.2062 75.285C34.0703 75.3119 33.932 75.3119 33.7943 75.2844C33.7432 75.2741 33.6932 75.2606 33.6469 75.2448C20.4801 70.6452 12.0824 62.9804 7.97427 51.8128C4.3816 42.0466 4.58509 31.3313 4.76481 21.8782L4.76603 21.8257C4.80259 21.0133 4.82696 20.1625 4.84036 19.2274C4.8696 17.2688 6.42681 15.6483 8.38551 15.5391C13.5811 15.2485 18.1455 14.2427 22.3395 12.4641C26.528 10.688 30.248 8.18434 33.7109 4.81032C33.887 4.6614 34.1154 4.66079 34.2909 4.81032C37.7544 8.18434 41.4744 10.688 45.6623 12.4641C49.8563 14.2427 54.4207 15.2485 59.6169 15.5391C61.5756 15.6483 63.1328 17.2688 63.1614 19.228C63.1754 20.168 63.1998 21.0188 63.2363 21.8257C63.4155 31.2898 63.6141 42.0136 60.011 51.8006Z" fill="#FF4545"/>
<path d="M33.9998 20.0645C23.0262 20.0645 14.099 29.0086 14.099 40.0016C14.099 50.9953 23.0262 59.9394 33.9998 59.9394C44.9728 59.9394 53.9006 50.9953 53.9006 40.0016C53.9006 29.0086 44.9728 20.0645 33.9998 20.0645ZM33.9998 55.2445C25.61 55.2445 18.7847 48.4068 18.7847 40.0016C18.7847 31.5964 25.61 24.7587 33.9998 24.7587C42.389 24.7587 49.2143 31.5964 49.2143 40.0016C49.2143 48.4068 42.389 55.2445 33.9998 55.2445Z" fill="#FF4545"/>
<path d="M39.7192 33.8119L30.4759 43.0722L27.967 40.5588C27.052 39.642 25.5685 39.642 24.6534 40.5588C23.7389 41.4755 23.7389 42.9617 24.6534 43.8778L28.8194 48.0514C29.2769 48.5098 29.8764 48.7387 30.4759 48.7387C31.0754 48.7387 31.6749 48.5098 32.1324 48.0514L43.0329 37.131C43.9474 36.2143 43.9474 34.7281 43.0329 33.8119C42.1178 32.8946 40.6343 32.8946 39.7192 33.8119Z" fill="#FF4545"/>
</svg>
