<svg width="110" height="80" viewBox="0 0 110 80" fill="none" xmlns="http://www.w3.org/2000/svg">
<path d="M106.266 35.6546L98.7755 32.2905L92.4148 19.4457C90.6957 15.9286 87.2084 13.7368 83.4018 13.7623H72.4486V10.5511C72.4486 4.74036 67.979 0 62.3796 0H10.0206C4.42121 0 0.000653453 4.76584 0.000653453 10.5511V59.7387C-0.0484638 63.2812 2.67755 66.1866 6.0912 66.2376C6.11576 66.2376 6.14031 66.2376 6.18943 66.2376H7.49104C7.49104 66.4924 7.46648 66.5944 7.46648 66.7473C7.44192 74.0362 13.115 79.9744 20.1387 79.9999C27.1625 80.0254 32.8847 74.1382 32.9092 66.8492C32.9092 66.7983 32.9092 66.7728 32.9092 66.7218C32.9092 66.5434 32.9092 66.4669 32.8847 66.2121H75.1992C75.1992 66.4669 75.1992 66.5689 75.1992 66.7218C75.1747 74.0107 80.8477 79.9489 87.8715 79.9744C94.8952 79.9999 100.617 74.1127 100.642 66.8238C100.642 66.7728 100.642 66.7473 100.642 66.6963C100.642 66.5179 100.642 66.4415 100.642 66.1866H103.81C107.224 66.1866 109.999 63.3067 109.999 59.7642C109.999 59.7387 109.999 59.7132 109.999 59.6623V41.5673C110.048 39.0697 108.574 36.6995 106.266 35.6546ZM20.2124 74.9282C15.8901 74.9282 12.4028 71.3093 12.4028 66.8238C12.4028 62.3383 15.8901 58.7193 20.2124 58.7193C24.5347 58.7193 28.0221 62.3383 28.0221 66.8238C28.0221 71.2838 24.5102 74.9282 20.2124 74.9282ZM67.5369 61.1914H31.7304C29.6675 56.5275 25.1487 53.5457 20.2124 53.5711C15.2516 53.5457 10.7573 56.502 8.69441 61.1914H6.18943C5.42811 61.1914 4.91238 60.5797 4.91238 59.7897V46.6645H67.5369V61.1914ZM67.5369 10.5766V41.5673H4.91238V10.5766C4.91238 7.59477 7.14722 5.12264 10.0206 5.12264H62.3796C65.253 5.14813 67.5615 7.59477 67.5369 10.5511V10.5766ZM72.4486 18.885H83.4018C85.3419 18.8595 87.1593 19.9554 88.0679 21.7649L92.9797 31.6279H72.4486V18.885ZM87.9451 74.9282C83.6228 74.9282 80.1355 71.3093 80.1355 66.8238C80.1355 62.3383 83.6228 58.7193 87.9451 58.7193C92.2675 58.7193 95.7548 62.3383 95.7548 66.8238C95.7548 71.2838 92.2675 74.9282 87.9451 74.9282ZM105.112 59.7897C105.112 60.5797 104.596 61.1914 103.835 61.1914H99.4632C96.4916 54.5906 88.9275 51.7362 82.5668 54.8199C79.8654 56.1197 77.6796 58.388 76.4271 61.1914H72.4486V36.725H96.5161L104.326 40.293C104.817 40.5479 105.136 41.1086 105.112 41.6693V59.7897Z" fill="#FF4545"/>
</svg>
