<svg width="14" height="10" viewBox="0 0 14 10" fill="none" xmlns="http://www.w3.org/2000/svg">
<path fill-rule="evenodd" clip-rule="evenodd" d="M13.4551 4.76652C13.427 4.69686 13.3824 4.63509 13.3251 4.58652L9.19512 0.656518C8.96362 0.430774 8.59711 0.422048 8.35512 0.636518C8.24371 0.739044 8.17949 0.882965 8.17759 1.03436C8.1757 1.18576 8.23631 1.33124 8.34512 1.43652L8.35512 1.44652L11.4851 4.41652H1.09512C0.887067 4.40408 0.689266 4.50801 0.58148 4.6864C0.473694 4.8648 0.473694 5.08824 0.58148 5.26663C0.689266 5.44503 0.887067 5.54896 1.09512 5.53652H11.4851L8.35512 8.50652C8.24371 8.60904 8.17949 8.75296 8.17759 8.90436C8.1757 9.05576 8.23631 9.20124 8.34512 9.30652C8.57448 9.53156 8.94041 9.53597 9.17512 9.31652C9.18512 9.31652 9.18512 9.30652 9.19512 9.30652L13.3351 5.37652C13.4964 5.21704 13.544 4.97522 13.4551 4.76652Z" fill="white"/>
</svg>
