<svg width="24" height="24" viewBox="0 0 24 24" fill="none" xmlns="http://www.w3.org/2000/svg">
<path d="M12 14C13.3845 14 14.7378 13.5895 15.889 12.8203C17.0401 12.0511 17.9373 10.9579 18.4672 9.67879C18.997 8.3997 19.1356 6.99224 18.8655 5.63437C18.5954 4.2765 17.9287 3.02922 16.9497 2.05026C15.9708 1.07129 14.7235 0.404603 13.3656 0.134506C12.0078 -0.13559 10.6003 0.00303298 9.32122 0.532846C8.04213 1.06266 6.94888 1.95987 6.17971 3.11101C5.41054 4.26216 5 5.61553 5 7C5 8.85652 5.7375 10.637 7.05025 11.9497C8.36301 13.2625 10.1435 14 12 14ZM12 2C12.9889 2 13.9556 2.29325 14.7779 2.84265C15.6001 3.39206 16.241 4.17295 16.6194 5.08659C16.9978 6.00022 17.0969 7.00555 16.9039 7.97545C16.711 8.94536 16.2348 9.83627 15.5355 10.5355C14.8363 11.2348 13.9454 11.711 12.9755 11.9039C12.0055 12.0969 11.0002 11.9978 10.0866 11.6194C9.17295 11.241 8.39206 10.6001 7.84265 9.77785C7.29325 8.95561 7 7.98891 7 7C7 5.67392 7.52678 4.40215 8.46447 3.46447C9.40215 2.52679 10.6739 2 12 2V2Z" fill="white"/>
<path d="M13 12H11C8.08262 12 5.28473 13.1589 3.22183 15.2218C1.15893 17.2847 0 20.0826 0 23C0 23.2652 0.105357 23.5196 0.292893 23.7071C0.48043 23.8946 0.734784 24 1 24H23C23.2652 24 23.5196 23.8946 23.7071 23.7071C23.8946 23.5196 24 23.2652 24 23C24 20.0826 22.8411 17.2847 20.7782 15.2218C18.7153 13.1589 15.9174 12 13 12ZM2.06 22C2.3059 19.8006 3.35351 17.769 5.00268 16.2932C6.65185 14.8175 8.78694 14.0011 11 14H13C15.2131 14.0011 17.3482 14.8175 18.9973 16.2932C20.6465 17.769 21.6941 19.8006 21.94 22H2.06Z" fill="white"/>
</svg>
