<svg width="700" height="700" viewBox="0 0 700 700" fill="none" xmlns="http://www.w3.org/2000/svg">
<path d="M235.203 21.0351C237.622 20.2221 239.749 19.5833 241.622 19.1381C243.495 18.6929 245.134 18.3445 246.538 18.1122C247.943 17.8799 249.192 17.725 250.284 17.6863C251.377 17.6476 252.352 17.6283 253.211 17.6089L257.737 30.249L256.196 30.7717C254.986 27.268 252.821 24.9258 249.719 23.7451C246.616 22.5643 242.519 22.8353 237.447 24.5581C233.135 26.0292 229.857 28.4488 227.614 31.8363C225.37 35.2238 224.882 38.6113 226.15 41.9987C226.541 43.1021 227.067 44.1861 227.77 45.2507C228.472 46.296 229.369 47.2638 230.501 48.1155C231.613 48.9866 233.018 49.7415 234.696 50.419L267.707 61.53C270.243 62.4785 272.428 64.0464 274.243 66.2531C276.057 68.4598 277.443 70.7826 278.379 73.2216C279.764 76.9575 279.979 80.7515 279.003 84.6229C278.028 88.4943 276.116 91.9398 273.267 94.9595C270.419 97.9792 266.868 100.225 262.654 101.657C260.157 102.509 257.386 103.206 254.362 103.767C251.318 104.328 248.411 104.58 245.602 104.522C242.792 104.483 240.334 104.057 238.227 103.244C237.564 102.141 236.9 100.67 236.276 98.8309C235.632 96.992 235.125 94.9982 234.715 92.8496C234.306 90.701 234.091 88.7266 234.032 86.9264L235.574 86.4037C236.549 90.3719 238.247 93.469 240.666 95.6951C243.085 97.9405 245.953 99.2761 249.27 99.7213C252.587 100.167 256.137 99.702 259.903 98.3276C265.19 96.3339 268.917 93.5658 271.102 90.0041C273.287 86.4424 273.658 82.571 272.214 78.3899C271.511 76.3381 270.497 74.5959 269.19 73.1829C267.883 71.7698 266.166 70.6084 264.02 69.718L231.36 58.7813C228.238 57.5618 225.819 55.839 224.102 53.6517C222.385 51.4643 221.136 49.2576 220.375 47.0509C219.166 43.5473 219.01 40.063 219.946 36.5981C220.863 33.1332 222.658 30.0167 225.311 27.2487C227.965 24.4806 231.242 22.3901 235.203 21.0351ZM252.645 16.3894L253.582 18.6542L244.412 21.7707L243.612 19.4672L252.645 16.3894Z" fill="#313131" fill-opacity="0.8"/>
<path d="M278.128 7.04595C278.967 7.23952 280.235 7.43309 281.952 7.64602C283.669 7.83959 285.561 7.95573 287.688 7.99445C289.795 8.03316 291.746 7.95573 293.56 7.78152L278.46 10.5689L278.128 7.04595ZM352.969 2.16799L353.359 6.2136L278.713 13.2402L278.323 9.19458L352.969 2.16799ZM286.986 12.1949L287.005 12.4659C284.937 12.7563 283.337 13.608 282.245 15.021C281.152 16.4341 280.684 18.0988 280.859 19.9764L281.074 22.1444L279.572 22.2799L278.674 12.9692L286.986 12.1949ZM318.436 78.512L319.255 87.1453L309.344 88.0744L309.208 86.7194C309.305 86.7194 309.832 86.6613 310.847 86.5646C313.012 86.3516 314.807 85.4612 316.212 83.8739C317.617 82.2867 318.26 80.5058 318.163 78.512H318.436ZM320.114 5.8071L327.82 86.3323L318.982 87.1646L311.276 6.63946L320.114 5.8071ZM326.591 77.7378L327.001 77.699C327.274 79.6735 328.269 81.2994 329.947 82.5964C331.625 83.8933 333.556 84.4353 335.722 84.2224L337.224 84.0869L337.361 85.4418L327.43 86.371L326.591 77.7378ZM352.774 0L353.106 3.50362L337.751 3.58105C339.565 3.40683 341.477 3.11648 343.507 2.69063C345.516 2.28413 347.37 1.8002 349.067 1.27756C350.745 0.793639 351.974 0.348426 352.774 0ZM353.34 5.9426L354.237 15.2533L352.735 15.3888L352.52 13.2208C352.345 11.3239 351.584 9.79465 350.218 8.61387C348.872 7.43309 347.155 6.8911 345.048 6.98788L345.028 6.71688L353.34 5.9426Z" fill="#313131" fill-opacity="0.8"/>
<path d="M365.979 74.9878C364.575 77.5236 364.399 79.6142 365.414 81.2789C366.448 82.9436 367.774 83.8921 369.394 84.1437L370.467 84.2986L370.252 85.6342L344.46 81.7047L344.674 80.3691L345.747 80.524C347.64 80.8143 349.669 80.4659 351.854 79.4593C354.039 78.4721 356.088 76.5558 357.98 73.749L365.979 74.9878ZM403.224 6.50276L402.737 15.8909L360.595 83.7759L352.088 82.479L394.601 19.3171C395.927 17.3233 397.04 15.6005 397.957 14.1488C398.874 12.697 399.712 11.2452 400.493 9.8128C401.273 8.38039 401.761 7.21897 401.995 6.3479L403.224 6.50276ZM411.282 59.9475L410.658 63.9737L374.876 58.5344L375.5 54.5081L411.282 59.9475ZM403.224 6.50276L427.749 93.5899L417.096 91.9639L399.088 18.0589L403.224 6.50276ZM414.852 82.4209L425.115 83.9889C425.993 87.2215 427.319 89.6411 429.095 91.2477C430.87 92.835 432.665 93.7835 434.46 94.0545L435.533 94.2094L435.319 95.545L407.653 91.3252L407.868 89.9895L408.941 90.1444C410.463 90.3767 411.984 89.854 413.467 88.5765C414.969 87.3183 415.418 85.2471 414.852 82.4209Z" fill="#313131" fill-opacity="0.8"/>
<path d="M445.64 92.8778L443.338 101.395L432.881 96.4201L433.466 95.2006L435.183 96.0136C437.154 96.9427 439.105 97.0782 441.056 96.4007C443.007 95.7232 444.45 94.5037 445.387 92.7616L445.64 92.8778ZM484.836 30.9934L449.386 104.279L441.504 100.524L476.954 27.2381L484.836 30.9934ZM452.781 96.2846L453.152 96.4588C452.372 98.2977 452.313 100.175 452.996 102.092C453.679 104.027 455.005 105.46 456.976 106.389L458.576 107.144L458.107 108.421L447.513 103.389L452.781 96.2846ZM473.599 35.1164L473.345 35.0003C474.164 33.084 474.223 31.2063 473.501 29.3674C472.779 27.5285 471.433 26.1348 469.462 25.1863L467.746 24.3733L468.331 23.1538L478.788 28.1286L473.599 35.1164ZM499.235 37.8458C503.098 39.6847 506.337 41.7753 508.99 44.1368C511.643 46.4984 513.633 49.0535 514.98 51.8022C516.326 54.5509 516.989 57.4157 516.95 60.3967C516.911 63.3777 516.15 66.4361 514.648 69.5332C512.99 72.9594 510.629 75.7468 507.566 77.8954C504.503 80.0441 501.069 81.3603 497.245 81.8443C493.421 82.3282 489.577 81.9023 485.675 80.5473C486.787 81.7862 487.802 83.8187 488.699 86.6448C489.597 89.4709 490.26 92.1422 490.67 94.6392C491.431 98.5107 492.133 101.879 492.816 104.763C493.499 107.647 494.201 110.415 494.943 113.067C495.762 115.758 496.543 118.139 497.323 120.21C498.084 122.281 499.118 124.101 500.425 125.669C501.732 127.236 503.488 128.553 505.712 129.617L505.127 130.837L501.303 129.017C496.796 126.869 493.343 124.526 490.982 121.991C488.621 119.455 486.944 116.939 485.948 114.403C484.953 111.867 484.173 109.525 483.607 107.357C483.471 106.795 483.217 105.402 482.827 103.156C482.437 100.93 482.027 98.4913 481.578 95.8781C481.129 93.2649 480.72 90.884 480.33 88.7547C479.939 86.6254 479.705 85.3285 479.627 84.8833C479.003 81.9798 478.047 79.1923 476.72 76.5017C475.393 73.8111 473.54 71.9141 471.16 70.772L471.745 69.5526C474.34 70.8882 476.662 71.9915 478.769 72.9013C481.11 73.9079 483.49 74.8177 485.929 75.6307C488.368 76.4437 490.943 76.5985 493.655 76.0759C496.367 75.5726 499.137 73.8692 501.947 71.0043C502.708 70.2688 503.469 69.3203 504.23 68.1782C504.99 67.0361 505.634 65.7973 506.181 64.4423C507.195 62.1195 507.761 59.8741 507.839 57.7254C507.917 55.5574 507.566 53.4862 506.766 51.4925C505.966 49.4987 504.756 47.6791 503.137 46.0144C501.518 44.3497 499.508 42.8786 497.089 41.6204C493.304 39.6266 489.968 37.9813 487.061 36.6844C484.154 35.4068 482.71 34.7099 482.749 34.6325C482.788 34.5551 482.846 34.1486 482.944 33.4517C483.041 32.7355 483.178 31.6709 483.354 30.2578L499.235 37.8458Z" fill="#313131" fill-opacity="0.8"/>
<path d="M556.714 68.0822L564.459 75.7282L532.736 138.6L520.991 148.607L556.714 68.0822ZM598.68 105.19L591.657 113.745L534.687 140.884C531.799 142.491 529.361 143.942 527.371 145.22C525.38 146.497 523.547 147.91 521.888 149.459L521.01 148.607L527.741 138.232L597.724 104.241L598.68 105.19ZM560.44 83.7807L552.968 76.6186C553.982 74.3151 554.392 71.9729 554.197 69.6114C554.002 67.2498 552.851 65.0431 550.783 63.0106L550.002 62.2557L550.958 61.2878L570.917 80.9546L569.961 81.9224L569.181 81.1675C568.147 80.1416 566.781 79.6576 565.064 79.6964C563.406 79.7351 561.845 81.0901 560.44 83.7807ZM598.583 105.286L570.137 170.636L554.626 181.708L584.887 112.429L598.583 105.286ZM632.218 142.432L568.498 174.197C565.474 175.804 562.977 177.256 560.987 178.533C558.997 179.811 557.202 181.205 555.602 182.676L554.626 181.727L562.996 171.061L626.697 137.012L632.218 142.432ZM618.6 141.252C621.371 139.897 622.795 138.387 622.873 136.683C622.951 134.98 622.483 133.625 621.449 132.618L620.668 131.864L621.624 130.896L639.359 148.356L638.403 149.324L637.72 148.646C635.711 146.672 633.486 145.568 631.048 145.317C628.609 145.065 626.248 145.491 624.004 146.594L618.6 141.252Z" fill="#313131" fill-opacity="0.8"/>
<path d="M584.379 202.685C581.491 203.033 579.677 204.117 578.916 205.917C578.155 207.717 578.155 209.343 578.916 210.795L579.423 211.763L578.214 212.382L566.293 189.367L567.503 188.748L568.01 189.715C568.888 191.399 570.371 192.832 572.458 193.993C574.546 195.155 577.297 195.677 580.73 195.561L584.379 202.685ZM662.127 192.425L654.186 197.536L574.058 203.517L570.117 195.929L646.616 193.006C649.016 192.89 651.084 192.793 652.821 192.658C654.557 192.542 656.235 192.367 657.854 192.154C659.474 191.941 660.722 191.651 661.581 191.322L662.127 192.425ZM606.972 246.296L611.713 255.452C609.586 258.065 608.396 260.543 608.142 262.924C607.889 265.285 608.162 267.279 609.001 268.886L609.508 269.853L608.298 270.473L595.5 245.773L596.709 245.154L597.217 246.122C597.919 247.496 599.246 248.386 601.158 248.832C603.07 249.258 605.001 248.425 606.972 246.296ZM662.127 192.425L605.45 263.233L600.514 253.71L650.245 195.89L662.127 192.425ZM623.224 230.249L619.575 232.107L603.031 200.168L606.679 198.31L623.224 230.249Z" fill="#313131" fill-opacity="0.8"/>
<path d="M617.916 287.044L609.39 288.921L607.224 279.262L608.551 278.972C608.571 279.049 608.688 279.591 608.902 280.559C609.371 282.669 610.483 284.314 612.239 285.437C613.995 286.579 615.848 286.986 617.818 286.637L617.916 287.044ZM645.62 289.541L611.224 297.129L609.293 288.534L643.689 280.946L645.62 289.541ZM619.672 294.845L619.77 295.251C617.838 295.774 616.316 296.916 615.224 298.677C614.131 300.439 613.819 302.394 614.287 304.504L614.638 306.091L613.312 306.381L611.146 296.722L619.672 294.845ZM685.148 253.053L646.772 287.199L640.899 282.805L682.573 241.535L685.148 253.053ZM696.074 301.716L697.947 310.059L642.635 289.231L643.006 284.005L696.074 301.716ZM677.929 259.499L675.803 248.175C677.52 246.317 678.768 244.207 679.49 241.884C680.232 239.542 680.31 237.103 679.724 234.548L679.373 232.96L680.7 232.67L687.587 263.351L686.26 263.641L685.909 262.054C685.48 260.118 684.387 258.899 682.651 258.395C680.895 257.892 679.334 258.26 677.929 259.499ZM686.533 298.561C688.523 299.142 690.182 298.813 691.489 297.613C692.796 296.393 693.245 294.825 692.816 292.89L692.464 291.302L693.791 291.012L699.995 318.654L698.669 318.944L698.317 317.357C697.771 314.879 696.562 312.73 694.689 310.872C692.816 309.014 690.865 307.659 688.816 306.827L686.533 298.561Z" fill="#313131" fill-opacity="0.8"/>
<path d="M617.701 457.791L600.786 445.577L606.171 425.678L609.058 431.214C607.888 435.569 607.556 439.266 608.122 442.267C608.668 445.267 609.858 447.899 611.653 450.145C613.448 452.39 615.594 454.519 618.072 456.475L617.701 457.791ZM604.903 446.525L600.884 445.17L610.405 409.96L614.502 411.044L604.903 446.525ZM689.479 431.31L610.346 410.231L612.609 401.849L691.743 422.929L689.479 431.31ZM620.979 404.365L612.083 403.823L615.165 392.442L616.492 392.79L616.004 394.629C615.419 396.816 615.633 398.791 616.667 400.552C617.701 402.314 619.165 403.514 621.077 404.114L620.979 404.365ZM681.149 428.678L689.596 430.923L686.982 440.602L685.655 440.253L686.085 438.685C686.65 436.595 686.455 434.601 685.519 432.704C684.563 430.807 683.08 429.607 681.051 429.065L681.149 428.678ZM683.236 420.954L683.314 420.703C685.363 421.148 687.255 420.819 689.031 419.696C690.787 418.574 691.977 416.928 692.562 414.741L692.991 413.173L694.318 413.521L691.704 423.2L683.236 420.954Z" fill="#313131" fill-opacity="0.8"/>
<path d="M647.142 536.23C643.767 541.592 639.709 546.083 635.007 549.722C630.305 553.361 625.193 555.936 619.711 557.484C614.228 559.033 608.629 559.42 602.932 558.646C597.235 557.871 591.694 555.819 586.29 552.451C580.886 549.103 576.593 545.038 573.413 540.295C570.233 535.553 568.145 530.384 567.15 524.81C566.155 519.235 566.272 513.563 567.521 507.775C568.75 501.988 571.072 496.413 574.447 491.051C577.822 485.689 581.861 481.218 586.543 477.617C591.226 474.017 596.318 471.462 601.8 469.913C607.283 468.365 612.882 467.977 618.579 468.752C624.276 469.526 629.817 471.578 635.221 474.946C640.626 478.295 644.918 482.36 648.098 487.102C651.278 491.845 653.366 497.013 654.361 502.588C655.356 508.163 655.239 513.815 654.029 519.564C652.82 525.313 650.537 530.868 647.142 536.23ZM577.939 493.219C574.369 498.891 572.516 504.872 572.399 511.202C572.281 517.531 573.842 523.551 577.081 529.3C580.32 535.049 585.197 539.947 591.675 543.973C598.23 548.038 604.805 550.264 611.399 550.632C617.994 551 624.12 549.741 629.797 546.877C635.475 544.012 640.099 539.753 643.689 534.082C647.22 528.487 649.035 522.545 649.171 516.215C649.308 509.885 647.747 503.865 644.547 498.155C641.348 492.425 636.45 487.528 629.895 483.463C623.418 479.437 616.862 477.23 610.229 476.843C603.595 476.456 597.45 477.695 591.772 480.559C586.056 483.405 581.471 487.625 577.939 493.219Z" fill="#313131" fill-opacity="0.8"/>
<path d="M519.37 553.723L526.121 560.305L549.416 636.61L542.802 642.069L523.311 568.609C522.687 566.305 522.121 564.331 521.633 562.686C521.145 561.04 520.599 559.453 520.033 557.924C519.468 556.395 518.921 555.253 518.414 554.498L519.37 553.723ZM519.37 553.723L601.352 593.231L593.06 600.083L525.36 564.486L519.37 553.723ZM546.353 626.796C547.328 629.506 548.791 631.035 550.723 631.384C552.674 631.713 554.274 631.364 555.522 630.338L556.264 629.738L557.142 630.784L537.202 647.256L536.324 646.211L537.163 645.514C538.627 644.295 539.719 642.553 540.402 640.269C541.104 637.984 541.007 635.216 540.148 631.926L546.353 626.796ZM584.358 595.418L592.338 588.837C595.362 590.327 598.074 590.947 600.454 590.676C602.835 590.405 604.727 589.708 606.132 588.547L606.971 587.85L607.849 588.895L586.329 606.665L585.451 605.619L586.29 604.923C587.48 603.935 588.065 602.484 588.046 600.567C588.046 598.651 586.817 596.928 584.358 595.418Z" fill="#313131" fill-opacity="0.8"/>
<path d="M435.574 625.099L434.481 604.368L453.445 595.986L450.929 601.696C446.773 603.535 443.69 605.606 441.7 607.929C439.71 610.252 438.383 612.807 437.759 615.614C437.115 618.421 436.823 621.402 436.842 624.557L435.574 625.099ZM436.315 608.162L434.833 604.213L468.39 589.366L470.107 593.199L436.315 608.162ZM456.43 637.236L453.25 630.19L454.616 629.59L455.338 631.196C455.962 632.59 456.938 633.635 458.225 634.294C459.513 634.952 461.035 634.894 462.791 634.139L462.908 634.39L456.43 637.236ZM457.991 640.701L456.333 636.984L484.271 624.615L485.949 628.332L457.991 640.701ZM461.035 647.514L457.855 640.468L464.332 637.604L464.449 637.855C462.693 638.63 461.64 639.714 461.269 641.107C460.898 642.501 461.035 643.914 461.659 645.308L462.381 646.914L461.035 647.514ZM466.537 675.04L462.693 666.504L464.059 665.904L464.898 667.762C465.678 669.485 466.907 670.723 468.585 671.478C470.263 672.214 472.058 672.156 473.97 671.324L474.126 671.691L466.537 675.04ZM468.097 678.505L466.381 674.672L500.055 659.767L501.772 663.6L468.097 678.505ZM468.995 680.499L467.551 677.286L482.32 672.233C479.745 673.375 477.111 674.808 474.399 676.55C471.687 678.292 469.873 679.608 468.995 680.499ZM501.518 663.716L468.137 589.463L476.116 585.94L509.498 660.193L501.518 663.716ZM479.452 593.973L474.263 586.772L485.11 581.971L485.676 583.21L483.94 583.985C481.852 584.894 480.447 586.327 479.706 588.224C478.965 590.14 478.965 592.018 479.706 593.857L479.452 593.973ZM505.752 652.508L506.006 652.392C506.942 654.251 508.347 655.509 510.239 656.148C512.132 656.786 514.102 656.651 516.19 655.741L517.927 654.967L518.492 656.206L507.645 661.006L505.752 652.508Z" fill="#313131" fill-opacity="0.8"/>
<path d="M340.03 699.99C337.474 699.932 335.25 699.777 333.338 699.564C331.426 699.332 329.768 699.1 328.363 698.829C326.958 698.577 325.729 698.267 324.695 697.938C323.661 697.59 322.724 697.28 321.925 696.99L322.12 683.576L323.758 683.614C323.661 687.311 324.871 690.254 327.368 692.441C329.865 694.628 333.806 695.77 339.172 695.906C343.717 696.022 347.639 694.861 350.936 692.46C354.233 690.06 355.872 687.04 355.872 683.421C355.892 682.24 355.775 681.04 355.482 679.82C355.189 678.601 354.682 677.381 353.921 676.181C353.18 674.981 352.126 673.781 350.8 672.581L323.739 650.785C321.69 649.023 320.188 646.797 319.252 644.107C318.315 641.416 317.827 638.764 317.808 636.151C317.808 632.183 318.939 628.544 321.222 625.253C323.485 621.962 326.49 619.388 330.216 617.529C333.943 615.671 338.04 614.8 342.508 614.916C345.142 614.974 347.99 615.265 351.034 615.807C354.077 616.329 356.906 617.104 359.521 618.11C362.135 619.117 364.301 620.375 365.979 621.846C366.213 623.124 366.31 624.73 366.271 626.666C366.232 628.602 366.018 630.653 365.647 632.821C365.276 634.989 364.788 636.906 364.203 638.609L362.564 638.57C363.032 634.525 362.525 631.021 361.042 628.098C359.56 625.175 357.336 622.93 354.37 621.362C351.404 619.794 347.912 619.02 343.913 619.02C338.274 619.059 333.787 620.375 330.489 622.969C327.192 625.563 325.495 629.066 325.378 633.48C325.319 635.648 325.67 637.622 326.392 639.403C327.134 641.184 328.343 642.868 330.021 644.436L356.828 665.941C359.326 668.167 361.003 670.606 361.842 673.239C362.681 675.871 363.091 678.369 363.032 680.73C362.954 684.427 361.862 687.757 359.794 690.68C357.726 693.622 354.955 695.925 351.502 697.59C348.029 699.293 344.205 700.087 340.03 699.99ZM322.022 698.345L321.944 695.906L331.641 696.138L331.582 698.577L322.022 698.345Z" fill="#313131" fill-opacity="0.8"/>
<path d="M216.552 664.836L213.976 673.12L204.455 670.217L204.865 668.92L206.426 669.404C208.514 670.043 210.484 669.907 212.338 669.017C214.191 668.107 215.459 666.694 216.162 664.719L216.552 664.836ZM213.606 673.004L237.681 595.286L246.032 597.841L221.956 675.559L213.606 673.004ZM224.122 667.158L224.512 667.275C223.985 669.288 224.239 671.185 225.253 672.966C226.268 674.746 227.829 675.946 229.916 676.585L231.477 677.069L231.067 678.366L221.546 675.463L224.122 667.158ZM235.496 603.706L235.106 603.59C235.613 601.654 235.36 599.796 234.345 597.976C233.33 596.157 231.789 594.937 229.702 594.299L228.141 593.815L228.55 592.518L238.071 595.421L235.496 603.706ZM232.238 637.736L233.448 633.845L284.35 649.369L283.14 653.26L232.238 637.736ZM243.066 606.01L245.641 597.725L255.162 600.628L254.753 601.925L253.192 601.441C251.104 600.803 249.134 600.957 247.261 601.906C245.388 602.854 244.12 604.248 243.456 606.126L243.066 606.01ZM273.092 682.083L270.517 690.367L260.996 687.464L261.406 686.167L262.966 686.651C265.054 687.29 267.044 687.154 268.937 686.283C270.829 685.393 272.078 683.96 272.702 681.967L273.092 682.083ZM270.127 690.251L294.202 612.533L302.553 615.088L278.477 692.806L270.127 690.251ZM280.662 684.386L281.052 684.502C280.526 686.515 280.779 688.412 281.794 690.193C282.808 691.974 284.369 693.174 286.457 693.813L288.018 694.297L287.608 695.594L278.087 692.69L280.662 684.386ZM292.017 620.953L291.627 620.837C292.212 618.94 291.978 617.062 290.924 615.243C289.871 613.404 288.31 612.184 286.223 611.546L284.662 611.062L285.071 609.765L294.592 612.668L292.017 620.953ZM299.607 623.257L302.182 614.972L311.703 617.875L311.293 619.172L309.732 618.688C307.645 618.05 305.674 618.205 303.801 619.153C301.928 620.102 300.66 621.495 299.997 623.373L299.607 623.257Z" fill="#313131" fill-opacity="0.8"/>
<path d="M139.233 631.253C134.121 627.478 129.926 623.123 126.668 618.168C123.41 613.212 121.205 607.967 120.093 602.43C118.981 596.875 119.04 591.32 120.269 585.745C121.498 580.17 124.015 574.847 127.819 569.775C131.624 564.704 136.033 560.774 141.067 558.025C146.1 555.257 151.446 553.612 157.123 553.07C162.801 552.528 168.498 553.109 174.214 554.793C179.931 556.477 185.335 559.206 190.466 562.981C195.578 566.755 199.753 571.111 202.992 576.028C206.231 580.944 208.396 586.19 209.508 591.726C210.62 597.281 210.562 602.837 209.333 608.412C208.104 613.987 205.587 619.31 201.782 624.381C197.978 629.453 193.568 633.363 188.535 636.131C183.521 638.899 178.155 640.544 172.478 641.086C166.8 641.628 161.123 641.067 155.446 639.402C149.729 637.757 144.344 635.028 139.233 631.253ZM187.989 566.252C182.584 562.265 176.712 559.961 170.371 559.322C164.03 558.703 157.845 559.768 151.817 562.516C145.788 565.265 140.481 569.678 135.916 575.776C131.292 581.931 128.541 588.261 127.644 594.746C126.746 601.23 127.507 607.405 129.946 613.251C132.365 619.097 136.287 624.013 141.691 628.001C147.017 631.931 152.851 634.215 159.192 634.853C165.532 635.473 171.698 634.428 177.707 631.718C183.716 629.008 189.023 624.556 193.646 618.4C198.212 612.322 200.963 606.012 201.88 599.488C202.797 592.965 202.055 586.771 199.617 580.925C197.197 575.079 193.315 570.182 187.989 566.252Z" fill="#313131" fill-opacity="0.8"/>
<path d="M66.7326 556.147C62.9476 551.056 60.4113 546.12 59.1431 541.32C57.875 536.519 57.8945 532.067 59.2017 527.963C60.5088 523.86 63.0842 520.375 66.9667 517.53C71.1419 514.472 75.3951 512.768 79.7459 512.439C84.0966 512.11 88.1938 512.904 92.0373 514.801C95.8808 516.698 99.178 519.504 101.89 523.24C104.621 526.976 106.455 531.351 107.372 536.403L106.28 537.216C104.934 534.506 103.529 532.203 102.085 530.344C100.641 528.486 98.8268 526.725 96.6222 525.079C94.437 523.434 91.8032 522.292 88.7401 521.692C85.677 521.072 82.1651 521.382 78.2046 522.601C77.19 522.911 76.078 523.395 74.9074 524.092C73.7367 524.789 72.6637 525.486 71.7077 526.183C67.2399 529.454 64.8791 533.558 64.5865 538.494C64.2938 543.43 66.1668 548.579 70.1664 553.94L78.1265 564.606C77.3071 565.787 76.5072 566.987 75.7268 568.226L66.7326 556.147ZM74.7123 566.832L140.579 518.459L145.788 525.428L79.902 573.801L74.7123 566.832ZM86.6525 568.497L86.8086 568.71C85.1892 570.026 84.2722 571.671 84.0576 573.685C83.843 575.698 84.4088 577.556 85.6965 579.298L86.8281 580.827L85.7355 581.64L78.6728 572.175L86.6525 568.497ZM133.789 523.937L133.633 523.724C135.194 522.466 136.111 520.821 136.384 518.749C136.657 516.698 136.15 514.801 134.843 513.039C134.784 512.962 134.413 512.458 133.711 511.51L134.804 510.697L141.866 520.162L133.789 523.937ZM138.569 530.364L144.539 523.782L151.602 533.248L150.509 534.061L149.378 532.532C148.071 530.789 146.393 529.744 144.325 529.415C142.256 529.086 140.403 529.473 138.725 530.577L138.569 530.364Z" fill="#313131" fill-opacity="0.8"/>
<path d="M14.0767 415.984L5.45323 417.358L3.85339 407.466L5.19959 407.254L5.45323 408.86C5.80441 411.009 6.79943 412.732 8.43829 414.087C10.0771 415.422 11.9501 415.926 14.0182 415.596L14.0767 415.984ZM5.37519 416.951L86.2839 404.04L87.6691 412.596L6.76041 425.507L5.37519 416.951ZM15.3449 423.881L15.3839 424.152C13.3353 424.578 11.7355 425.643 10.5844 427.385C9.4333 429.127 9.0431 431.101 9.41379 433.347L9.66742 434.953L8.32122 435.166L6.72139 425.275L15.3449 423.881ZM59.9451 363.642L80.4113 367.92L83.7085 388.245L78.792 384.374C78.0701 379.921 76.841 376.437 75.085 373.921C73.3486 371.404 71.183 369.488 68.6272 368.152C66.0518 366.817 63.2424 365.771 60.1598 364.978L59.9451 363.642ZM76.2752 368.733L80.4894 368.327L86.3229 404.311L82.1477 404.969L76.2752 368.733ZM78.9871 413.719L87.3374 410.602L89.2299 422.236L87.8837 422.449L87.5716 420.571C87.2009 418.345 86.1863 416.622 84.528 415.422C82.8696 414.222 81.0356 413.738 79.0456 413.97L78.9871 413.719Z" fill="#313131" fill-opacity="0.8"/>
<path d="M0.516324 304.313C1.37477 298.042 3.18922 292.293 5.95966 287.066C8.73011 281.84 12.3005 277.388 16.6512 273.729C21.002 270.071 25.9381 267.438 31.44 265.793C36.9418 264.167 42.8534 263.761 49.1747 264.612C55.496 265.464 61.0759 267.4 65.9535 270.419C70.831 273.439 74.8696 277.291 78.1083 281.956C81.3275 286.621 83.5907 291.848 84.8588 297.635C86.1465 303.404 86.3611 309.443 85.5027 315.695C84.6442 321.967 82.8493 327.697 80.0593 332.884C77.2889 338.072 73.7185 342.505 69.3678 346.144C65.017 349.802 60.0809 352.454 54.579 354.08C49.0772 355.706 43.1656 356.113 36.8443 355.261C30.523 354.409 24.9431 352.493 20.0655 349.454C15.188 346.434 11.1494 342.582 7.91068 337.917C4.6915 333.252 2.42832 328.045 1.14065 322.316C-0.127512 316.586 -0.342123 310.585 0.516324 304.313ZM81.4445 315.134C82.342 308.514 81.5421 302.3 79.0058 296.493C76.489 290.686 72.5479 285.828 67.2021 281.917C61.8563 278.007 55.379 275.549 47.809 274.542C40.1415 273.516 33.2349 274.194 27.0697 276.556C20.924 278.917 15.8513 282.576 11.8712 287.512C7.89117 292.448 5.4524 298.235 4.55493 304.855C3.67697 311.398 4.47689 317.554 6.9937 323.361C9.51052 329.168 13.4321 334.027 18.7193 337.917C24.0261 341.827 30.5035 344.286 38.1905 345.312C45.7604 346.318 52.667 345.66 58.8518 343.299C65.056 340.937 70.1482 337.298 74.1282 332.342C78.1278 327.406 80.5666 321.677 81.4445 315.134Z" fill="#313131" fill-opacity="0.8"/>
<path d="M33.1547 224.56L28.6088 233.813C25.2336 233.677 22.5021 234.219 20.4341 235.439C18.366 236.658 16.9417 238.071 16.1418 239.697L15.6541 240.665L14.4249 240.065L26.7163 215.114L27.9455 215.714L27.4577 216.682C26.7749 218.056 26.8529 219.624 27.6528 221.385C28.4723 223.128 30.3062 224.192 33.1547 224.56ZM109.674 236.155L18.5806 233.484L23.3216 223.863L99.7819 228.799L109.674 236.155ZM54.85 180.484C52.8405 178.394 50.8699 177.6 48.9579 178.084C47.0459 178.568 45.7388 179.536 45.0169 181.007L44.6072 181.858L43.378 181.258L54.772 158.127L56.0011 158.727L55.5134 159.695C54.6744 161.398 54.4013 163.431 54.7134 165.792C55.0256 168.154 56.2547 170.651 58.3814 173.303L54.85 180.484ZM109.674 236.155L100.796 232.903L48.0019 172.799L51.7869 165.134L99.9185 224.192C101.44 226.031 102.767 227.618 103.899 228.915C105.03 230.212 106.181 231.451 107.332 232.613C108.483 233.774 109.439 234.587 110.22 235.071L109.674 236.155Z" fill="#313131" fill-opacity="0.8"/>
<path d="M81.3109 140.507L81.1353 140.701C79.516 139.385 77.7015 138.823 75.7115 138.998C73.7214 139.172 71.9655 140.101 70.4632 141.785L69.1951 143.198L68.1805 142.288L76.0822 133.5L81.3109 140.507ZM80.5305 128.564L141.675 182.686L135.861 189.152L74.6969 135.029L80.5305 128.564ZM104.899 101.464L108.059 104.252L83.5155 131.545L80.3549 128.758L104.899 101.464ZM103.26 100.032L105.913 102.374L94.5193 113.001C96.3923 110.91 98.2067 108.53 99.9626 105.839C101.719 103.129 102.811 101.213 103.26 100.032ZM107.747 104L114.771 110.233L113.776 111.336L112.254 109.981C110.83 108.723 109.191 108.084 107.357 108.104C105.523 108.104 103.904 108.897 102.518 110.446L102.206 110.175L107.747 104ZM129.755 131.835L132.818 134.545L112.449 157.193L109.386 154.483L129.755 131.835ZM124.155 126.861L129.969 132.01L125.248 137.275L125.053 137.101C126.321 135.687 126.848 134.274 126.594 132.842C126.36 131.41 125.658 130.19 124.506 129.164L123.18 127.983L124.155 126.861ZM132.603 134.352L138.417 139.501L137.422 140.604L136.095 139.423C134.944 138.397 133.637 137.855 132.174 137.778C130.711 137.701 129.364 138.378 128.077 139.791L127.882 139.617L132.603 134.352ZM129.501 183.19L137.208 187.642L129.306 196.43L128.291 195.52L129.56 194.107C131.081 192.423 131.784 190.565 131.667 188.513C131.55 186.48 130.769 184.757 129.345 183.364L129.501 183.19ZM162.961 152.702L165.946 155.703L141.48 182.899L138.32 180.112L162.961 152.702ZM156.64 136.926L166.219 155.393L152.406 170.762L152.347 164.529C155.372 161.161 157.323 158.006 158.181 155.083C159.039 152.16 159.196 149.276 158.61 146.469C158.025 143.663 157.069 140.817 155.742 137.952L156.64 136.926Z" fill="#313131" fill-opacity="0.8"/>
<circle cx="670.209" cy="349.997" r="11.1701" fill="#313131" fill-opacity="0.6"/>
<circle cx="410.313" cy="664.256" r="11.1701" fill="#313131" fill-opacity="0.6"/>
<circle cx="54.3606" cy="472.871" r="11.1701" fill="#313131" fill-opacity="0.6"/>
<circle cx="174.252" cy="82.6593" r="11.1701" fill="#313131" fill-opacity="0.6"/>
</svg>
