<svg width="20" height="18" viewBox="0 0 20 18" fill="none" xmlns="http://www.w3.org/2000/svg">
<path d="M9.11889 3.6363L9.99997 5.27786L10.8811 3.63632C11.1742 3.09023 11.6553 2.37456 12.3493 1.82737L11.7302 1.04209L12.3493 1.82737C13.0555 1.2706 13.8338 1 14.6875 1C17.0716 1 19 2.98077 19 5.87445C19 7.38194 18.4197 8.6893 17.2602 10.1156C16.0755 11.5731 14.361 13.0669 12.1818 14.9601L12.1818 14.9601L12.1804 14.9613C11.52 15.5351 10.7764 16.1811 10 16.8702C9.22389 16.1814 8.48051 15.5355 7.82063 14.9622L7.81871 14.9606L7.81869 14.9605C5.63921 13.0671 3.92466 11.5732 2.73981 10.1156C1.58032 8.68929 1 7.38194 1 5.87445C1 2.98077 2.92841 1 5.3125 1C6.16618 1 6.9445 1.2706 7.65066 1.82737L8.2698 1.04209L7.65066 1.82737C8.3447 2.37457 8.82579 3.09021 9.11889 3.6363Z" fill="#FFB0B0" stroke="#FFB0B0" stroke-width="2"/>
</svg>
