<svg width="25" height="22" viewBox="0 0 25 22" fill="none" xmlns="http://www.w3.org/2000/svg">
<path d="M11.2169 4.33559L12.1 5.99743L12.9831 4.33561C13.346 3.65255 13.9454 2.74964 14.8165 2.0559C15.707 1.34671 16.693 1 17.7719 1C20.7831 1 23.2 3.53208 23.2 7.17989C23.2 9.0925 22.4675 10.7397 21.0448 12.5075C19.5967 14.3068 17.5059 16.146 14.8739 18.4556L15.5173 19.1887L14.8739 18.4557L14.8732 18.4563C14.0354 19.1915 13.0878 20.0231 12.1 20.9103C11.113 20.0238 10.166 19.1928 9.32906 18.4583L9.32666 18.4561L9.32664 18.4561C6.69443 16.1462 4.60343 14.3069 3.15531 12.5076C1.73253 10.7396 1 9.0925 1 7.17989C1 3.53208 3.41695 1 6.42813 1C7.50703 1 8.49299 1.34671 9.38349 2.0559C10.2546 2.74965 10.854 3.65252 11.2169 4.33559Z" stroke="#FFB0B0" stroke-width="2"/>
</svg>
