<svg width="10" height="20" viewBox="0 0 10 20" fill="none" xmlns="http://www.w3.org/2000/svg">
<path d="M6.4908 19.9999V10.8769H9.43911L9.88051 7.32157H6.4908V5.05157C6.4908 4.02223 6.76604 3.32068 8.18733 3.32068L10 3.31981V0.139943C9.68636 0.0967723 8.61042 0 7.35864 0C4.74517 0 2.95593 1.65682 2.95593 4.69964V7.32167H0V10.877H2.95584V20L6.4908 19.9999Z" fill="#65BF4F"/>
<path d="M6.4908 19.9999V10.8769H9.43911L9.88051 7.32157H6.4908V5.05157C6.4908 4.02223 6.76604 3.32068 8.18733 3.32068L10 3.31981V0.139943C9.68636 0.0967723 8.61042 0 7.35864 0C4.74517 0 2.95593 1.65682 2.95593 4.69964V7.32167H0V10.877H2.95584V20L6.4908 19.9999Z" fill="#A1A75C"/>
</svg>
