<svg width="31" height="42" viewBox="0 0 31 42" fill="none" xmlns="http://www.w3.org/2000/svg">
<path d="M15.4999 6.3689C10.4598 6.3689 6.35921 10.4756 6.35921 15.5234C6.35921 20.5711 10.4598 24.6778 15.4999 24.6778C20.54 24.6778 24.6406 20.5711 24.6406 15.5234C24.6406 10.4756 20.54 6.3689 15.4999 6.3689ZM15.4999 22.2153C11.8155 22.2153 8.81779 19.2132 8.81779 15.5232C8.81779 11.8331 11.8155 8.83123 15.4999 8.83123C19.1843 8.83123 22.182 11.8333 22.182 15.5234C22.182 19.2134 19.1845 22.2153 15.4999 22.2153Z" fill="#FF4545"/>
<path d="M15.4999 0C6.95321 0 0 6.9638 0 15.5235C0 20.46 4.1337 27.8147 6.5977 31.7592C8.21889 34.3543 9.96105 36.8242 11.5031 38.7136C13.9782 41.7462 14.8641 42 15.5001 42C16.1455 42 16.982 41.7461 19.4494 38.7118C20.9949 36.811 22.7378 34.3426 24.3574 31.7611C26.8383 27.807 31 20.4392 31 15.5234C31 6.9638 24.0468 0 15.4999 0ZM22.6529 29.844C19.4738 35.0121 16.5551 38.5043 15.4853 39.3958C14.4099 38.5317 11.5386 35.1225 8.31511 29.8602C4.5933 23.784 2.45875 18.5584 2.45875 15.5235C2.45859 8.32153 8.30888 2.46233 15.4999 2.46233C22.691 2.46233 28.5413 8.32153 28.5413 15.5235C28.5414 18.541 26.3951 23.7605 22.6529 29.844Z" fill="#FF4545"/>
</svg>
