<svg width="176" height="32" viewBox="0 0 176 32" fill="none" xmlns="http://www.w3.org/2000/svg">
<path d="M11.1848 10.3128C11.4436 10.1807 11.7194 10.0831 12.0048 10.0225C12.3665 9.9408 12.7368 9.90085 13.1081 9.90342C14.3863 9.90342 15.1546 10.2664 15.4131 10.9923C15.7868 12.1538 16.1426 13.232 16.4806 14.227C16.8185 15.222 17.1386 16.1899 17.4407 17.1307C17.7409 18.0715 18.0391 18.9958 18.3353 19.9037C18.6315 20.8116 18.9167 21.7534 19.191 22.729H19.367C19.6652 21.2307 19.9633 19.7818 20.2228 18.3735L21.0279 14.1515C21.2922 12.75 21.5387 11.3282 21.7673 9.886C21.996 8.44384 22.2285 6.9407 22.4651 5.37658C22.9571 5.11474 23.5119 4.98543 24.0723 5.002C24.559 4.98241 25.0404 5.10694 25.4529 5.35916C25.6369 5.48745 25.7837 5.66002 25.8788 5.86002C25.9739 6.06003 26.0142 6.28063 25.9956 6.5003C25.9768 7.18123 25.912 7.86022 25.8018 8.53288C25.6805 9.42528 25.5215 10.4425 25.3247 11.5847C25.1279 12.7268 24.8883 13.9463 24.6061 15.2433C24.3258 16.5383 24.0345 17.8092 23.7324 19.0558C23.4302 20.3025 23.1221 21.4765 22.808 22.578C22.4919 23.6775 22.1938 24.6028 21.9135 25.3539C21.5879 25.5645 21.2279 25.7197 20.8489 25.8127C20.3632 25.9415 19.8614 26.0041 19.358 25.9985C18.7724 26.0134 18.1896 25.9147 17.6435 25.7082C17.4469 25.6443 17.2669 25.5396 17.116 25.4012C16.9651 25.2628 16.847 25.0941 16.7698 24.9068C16.5611 24.3638 16.3106 23.6872 16.0184 22.8742C15.7262 22.0611 15.422 21.1958 15.1238 20.2609C14.8257 19.3259 14.4947 18.327 14.1786 17.2817C13.8625 16.2364 13.5554 15.1968 13.2512 14.1515C12.9749 15.1736 12.6767 16.2228 12.3567 17.2991C12.0366 18.3754 11.7096 19.4159 11.3757 20.4206C11.0636 21.4194 10.7654 22.3496 10.4811 23.211C10.1829 24.0821 9.92651 24.8022 9.69392 25.3888C9.38268 25.5803 9.04263 25.7233 8.68607 25.8127C8.21372 25.9424 7.72463 26.005 7.23392 25.9985C6.64204 26.0137 6.05331 25.9099 5.50446 25.6937C5.10429 25.5565 4.77273 25.2762 4.57711 24.9097C4.29914 24.2682 4.06505 23.6096 3.87638 22.9381C3.62193 22.0786 3.34859 21.101 3.05637 20.0053C2.76416 18.9097 2.46597 17.7298 2.16183 16.4657C1.86166 15.2075 1.57639 13.9492 1.30604 12.691C1.03569 11.4327 0.786209 10.2083 0.557602 9.0178C0.325019 7.8389 0.139152 6.77228 0 5.81794C0.251106 5.58589 0.540374 5.39646 0.855785 5.25753C1.22101 5.08568 1.62204 4.99824 2.02764 5.002C3.12297 5.002 3.775 5.53531 3.98372 6.60193C4.28588 8.21251 4.57711 9.70984 4.8574 11.0939C5.13769 12.478 5.40705 13.8118 5.66547 15.0952C5.92191 16.3757 6.17537 17.6417 6.43479 18.8903C6.69421 20.1389 6.96853 21.4194 7.27268 22.7348H7.41283C7.713 21.7379 7.99826 20.8019 8.26861 19.9269C8.53896 19.052 8.81925 18.1441 9.10949 17.2033L10.0488 14.1399C10.3847 13.0384 10.7634 11.7627 11.1848 10.3128Z" fill="#0069FF"/>
<path d="M29.0008 5.05363C28.9949 4.77919 29.0426 4.50645 29.1409 4.25279C29.2393 3.99913 29.3861 3.77012 29.5719 3.58037C29.7669 3.38533 29.9963 3.23377 30.2469 3.13457C30.4974 3.03536 30.764 2.9905 31.031 3.00262C31.2901 2.98845 31.5492 3.0319 31.7918 3.13022C32.0344 3.22854 32.2553 3.37959 32.4403 3.57378C32.6253 3.76798 32.7705 4.00108 32.8667 4.25831C32.9628 4.51554 33.0078 4.79129 32.9989 5.06807C33.0078 5.34485 32.9628 5.6206 32.8667 5.87783C32.7705 6.13506 32.6253 6.36817 32.4403 6.56236C32.2553 6.75655 32.0344 6.9076 31.7918 7.00592C31.5492 7.10424 31.2901 7.1477 31.031 7.13352C30.7631 7.14307 30.4962 7.09563 30.2457 6.99396C29.9952 6.89229 29.7661 6.73842 29.5719 6.54133C29.3846 6.34971 29.237 6.11831 29.1386 5.86207C29.0403 5.60583 28.9933 5.33043 29.0008 5.05363ZM32.6822 25.7226C32.4819 25.807 32.2742 25.8699 32.0623 25.9104C31.7641 25.969 31.4614 25.9971 31.1582 25.9941C30.6811 26.0302 30.2059 25.8994 29.8047 25.6215C29.5097 25.3731 29.3608 24.9571 29.3608 24.3678V10.0309L30.0132 9.8605C30.3098 9.78957 30.6132 9.75564 30.9173 9.75939C31.3949 9.7174 31.8718 9.84871 32.2707 10.132C32.5414 10.3805 32.6984 10.8109 32.6984 11.4175L32.6822 25.7226Z" fill="#0069FF"/>
<path d="M36.7498 26C36.5087 25.8088 36.3161 25.5677 36.1863 25.295C36.0566 25.0222 35.9931 24.7249 36.0006 24.4252C36.0018 24.0994 36.081 23.7781 36.2321 23.4862C36.3818 23.1873 36.5678 22.9063 36.7863 22.6492L45.0822 12.8709H36.6066C36.4943 12.6738 36.3995 12.468 36.3234 12.2556C36.2238 11.993 36.1743 11.7154 36.1772 11.4361C36.1593 11.2388 36.1836 11.0401 36.2485 10.8521C36.3134 10.6641 36.4177 10.4907 36.5549 10.3425C36.6869 10.2267 36.8414 10.1369 37.0097 10.0784C37.178 10.0198 37.3567 9.99363 37.5355 10.0013H48.889C49.1455 10.1886 49.351 10.4326 49.4878 10.7124C49.6246 10.9922 49.6887 11.2995 49.6747 11.6082C49.6753 11.9213 49.6013 12.2305 49.4585 12.5122C49.3072 12.8136 49.1158 13.0949 48.889 13.3492L40.6419 23.1625H49.6016C49.7184 23.3442 49.8086 23.5405 49.8696 23.7457C49.9546 24.0112 49.9967 24.2875 49.9945 24.5652C50.012 24.7613 49.9878 24.9588 49.9234 25.1458C49.859 25.3327 49.7558 25.5052 49.6199 25.653C49.352 25.8868 48.9983 26.0095 48.6362 25.9942L36.7498 26Z" fill="#0069FF"/>
<path d="M59.0171 9.00018C61.1469 9.00018 62.8425 9.46157 64.1039 10.3844C65.3654 11.3071 65.9961 12.7672 65.9961 14.7646V22.7251C66.0246 23.1598 65.8967 23.5905 65.6353 23.9399C65.3548 24.2597 65.0238 24.5319 64.6554 24.7459C63.9287 25.1349 63.1547 25.4293 62.3526 25.6219C61.2843 25.8882 60.1857 26.0149 59.0846 25.9986C56.8609 25.9986 55.1243 25.5655 53.8746 24.6991C52.6249 23.8328 52 22.5547 52 20.8649C52 19.36 52.4889 18.2075 53.4668 17.4074C54.4446 16.6073 55.8489 16.1206 57.6794 15.9473L62.4611 15.4684V14.715C62.4611 13.7105 62.1326 12.9804 61.4813 12.5249C60.8301 12.0693 59.9148 11.8415 58.7472 11.8415C57.8536 11.8384 56.9643 11.9643 56.107 12.2153C55.3287 12.4406 54.5695 12.7267 53.8364 13.0709C53.6028 12.8853 53.4042 12.6599 53.2497 12.4051C53.0885 12.1414 53.0051 11.8378 53.0092 11.5291C52.9946 11.1859 53.0981 10.848 53.3025 10.5712C53.5477 10.2835 53.8599 10.0599 54.2119 9.92004C54.9093 9.58391 55.6511 9.34794 56.415 9.2192C57.2741 9.06911 58.1449 8.99582 59.0171 9.00018ZM59.0846 23.204C59.7913 23.2157 60.4964 23.1352 61.1821 22.9645C61.633 22.8673 62.0637 22.6935 62.4553 22.4506V18.1053L58.7062 18.482C57.6501 18.5959 56.8609 18.8295 56.3329 19.1829C56.0715 19.3622 55.8615 19.6063 55.7236 19.891C55.5857 20.1757 55.5248 20.4912 55.5467 20.8065C55.5333 21.1465 55.6049 21.4845 55.7549 21.7903C55.9049 22.0961 56.1287 22.36 56.4062 22.5586C56.9773 22.9908 57.8701 23.2059 59.0846 23.204Z" fill="#0069FF"/>
<path d="M73.4232 24.7317C73.2148 24.8133 72.9989 24.8741 72.7784 24.9133C72.4786 24.9691 72.1741 24.9963 71.8691 24.9943C71.3728 25.0292 70.8787 24.9027 70.4614 24.6339C70.1545 24.3937 70.0025 23.9914 70.0025 23.4215V12.6659C69.9814 12.2023 70.0958 11.7424 70.3319 11.3417C70.6092 10.9475 70.9694 10.6177 71.3876 10.3751C72.1484 9.93066 72.9708 9.59935 73.8286 9.39178C74.8963 9.12089 75.9952 8.98941 77.0972 9.00067C79.0323 9.00067 79.9999 9.54636 79.9999 10.6377C80.0025 10.8887 79.9576 11.1379 79.8676 11.3725C79.7901 11.584 79.691 11.7871 79.572 11.9787C79.3524 11.9368 79.0765 11.8921 78.7471 11.8474C78.3969 11.8038 78.0442 11.7824 77.6913 11.7831C76.8793 11.7745 76.0694 11.8683 75.2813 12.0625C74.637 12.215 74.0159 12.4518 73.4344 12.7665L73.4232 24.7317Z" fill="#0069FF"/>
<path d="M89.9644 9.74603C90.6087 9.74174 91.2511 9.81313 91.8776 9.95864C92.4216 10.0819 92.9498 10.263 93.4527 10.4985V4.26875C93.6117 4.22399 93.8371 4.17084 94.1319 4.10371C94.4431 4.03698 94.761 4.00414 95.0798 4.0058C95.5892 3.97048 96.0966 4.09719 96.5248 4.36666C96.8427 4.60724 96.9988 5.01286 96.9988 5.58073V22.7623C97.0127 23.1559 96.9072 23.5449 96.6953 23.8812C96.4417 24.2205 96.1191 24.5061 95.7474 24.7204C95.0861 25.1069 94.3734 25.4043 93.629 25.6044C92.6325 25.881 91.5993 26.0139 90.5627 25.9988C89.3704 26.0116 88.1829 25.8513 87.0397 25.5233C86.0394 25.2369 85.1188 24.7359 84.3462 24.0575C83.5757 23.3586 82.9823 22.497 82.6122 21.5398C82.1829 20.3879 81.9762 19.1694 82.0024 17.9452C81.9747 16.6884 82.1873 15.4374 82.6295 14.2554C83.0001 13.2903 83.5863 12.4163 84.3462 11.6958C85.0661 11.0316 85.9272 10.5275 86.8692 10.2188C87.8672 9.89785 88.9129 9.73813 89.9644 9.74603ZM93.4874 13.3826C93.0633 13.1225 92.6081 12.913 92.132 12.7588C91.5735 12.5767 90.9872 12.4878 90.3979 12.4959C89.7588 12.4894 89.1233 12.5897 88.5194 12.7924C87.945 12.9872 87.4289 13.3157 87.0166 13.7491C86.5615 14.2452 86.2154 14.8258 85.9993 15.4555C85.7332 16.2692 85.6082 17.1199 85.6294 17.9731C85.6294 19.8082 86.0745 21.1417 86.9646 21.9734C87.8547 22.8052 89.0464 23.2201 90.5396 23.2182C91.1177 23.2318 91.6946 23.1601 92.2505 23.0056C92.68 22.8783 93.0946 22.7077 93.4874 22.4965V13.3826Z" fill="#0069FF"/>
<path d="M109.041 23.0951C110.481 23.0951 111.542 22.8047 112.225 22.2239C112.558 21.9534 112.823 21.6139 113.001 21.2307C113.179 20.8476 113.265 20.4307 113.252 20.0111C113.268 19.6567 113.206 19.3031 113.071 18.9734C112.935 18.6437 112.729 18.3451 112.466 18.0973C111.94 17.6133 111.106 17.2058 109.966 16.8747L107.396 16.1168C106.649 15.8937 105.923 15.6121 105.224 15.2746C104.619 14.9862 104.062 14.6112 103.573 14.1624C103.116 13.7341 102.759 13.2162 102.528 12.6436C102.277 11.9938 102.155 11.3041 102.169 10.6108C102.169 8.86844 102.837 7.49872 104.173 6.50168C105.508 5.50464 107.316 5.00419 109.595 5.00032C110.468 4.99461 111.339 5.06557 112.198 5.21231C112.91 5.32758 113.605 5.52249 114.27 5.79311C114.779 6.00802 115.238 6.31682 115.623 6.70206C115.933 6.99392 116.111 7.39117 116.12 7.80848C116.125 8.1548 116.02 8.4943 115.819 8.78132C115.632 9.04832 115.394 9.27807 115.117 9.45794C114.433 8.98702 113.675 8.62521 112.873 8.38637C111.882 8.07791 110.847 7.92686 109.806 7.93916C108.553 7.93916 107.583 8.18116 106.896 8.66516C106.57 8.88232 106.306 9.17413 106.127 9.51429C105.947 9.85446 105.859 10.2323 105.869 10.6137C105.858 10.9157 105.916 11.2163 106.041 11.4936C106.165 11.7709 106.353 12.0179 106.589 12.2167C107.069 12.6233 107.856 12.9805 108.95 13.2883L110.939 13.8488C112.855 14.4005 114.344 15.1546 115.406 16.111C116.468 17.0674 117 18.3713 117 20.0227C117.009 20.8595 116.828 21.6881 116.469 22.4504C116.116 23.1852 115.595 23.8334 114.945 24.3467C114.212 24.9113 113.367 25.3271 112.463 25.5693C111.366 25.8682 110.229 26.013 109.089 25.9991C108.123 26.0061 107.159 25.9175 106.212 25.7348C105.439 25.5866 104.686 25.3537 103.968 25.0408C103.418 24.8089 102.923 24.4721 102.513 24.0505C102.193 23.7307 102.01 23.3067 102.001 22.8628C101.989 22.4523 102.135 22.052 102.41 21.7389C102.676 21.4357 103.011 21.1961 103.389 21.0391C104.065 21.6023 104.82 22.0689 105.634 22.4243C106.702 22.8936 107.867 23.1229 109.041 23.0951Z" fill="#777777"/>
<path d="M126.015 10.0001C128.149 10.0001 129.846 10.4619 131.106 11.3856C132.367 12.3092 132.997 13.7608 132.997 15.7404V23.7017C133.022 24.1319 132.895 24.5573 132.637 24.9039C132.357 25.2272 132.026 25.5033 131.657 25.7214C130.931 26.1199 130.156 26.423 129.352 26.623C128.284 26.8883 127.185 27.0146 126.085 26.9987C123.866 26.9987 122.13 26.5659 120.876 25.7003C119.621 24.8348 118.996 23.5595 119 21.8744C119 20.3717 119.488 19.2217 120.464 18.4242C121.44 17.6268 122.844 17.1369 124.675 16.9546L129.455 16.4767V15.7254C129.455 14.7216 129.128 13.9943 128.474 13.5374C127.821 13.0806 126.91 12.8552 125.752 12.8552C124.855 12.8525 123.962 12.979 123.102 13.2309C122.324 13.4547 121.565 13.7402 120.833 14.0844C120.595 13.8938 120.394 13.6616 120.24 13.3992C120.079 13.137 119.995 12.8349 119.998 12.5276C119.986 12.184 120.093 11.8467 120.301 11.5719C120.545 11.2848 120.857 11.0618 121.208 10.9227C121.905 10.5874 122.647 10.3516 123.411 10.2225C124.27 10.0717 125.142 9.99732 126.015 10.0001ZM126.085 24.1796C126.792 24.1898 127.497 24.11 128.184 23.9422C128.633 23.841 129.062 23.6674 129.455 23.4282V19.0884L125.707 19.4641C124.654 19.5783 123.861 19.8127 123.335 20.1644C123.072 20.3432 122.861 20.5869 122.722 20.8715C122.583 21.1561 122.521 21.4717 122.542 21.7873C122.528 22.1284 122.599 22.4677 122.75 22.7746C122.9 23.0815 123.125 23.3464 123.404 23.5454C123.977 23.9702 124.871 24.1816 126.085 24.1796Z" fill="#777777"/>
<path d="M144.161 26.3038C143.48 26.3074 142.8 26.2356 142.135 26.0897C141.575 25.9695 141.031 25.787 140.513 25.5456V31.7297C140.301 31.8117 140.081 31.8727 139.857 31.912C139.55 31.9687 139.239 31.9958 138.927 31.9931C138.415 32.0322 137.904 31.905 137.474 31.6313C137.159 31.3921 137.002 30.9754 137.002 30.3812V13.3742C136.985 12.9718 137.078 12.5724 137.272 12.2167C137.533 11.8518 137.881 11.554 138.285 11.3485C139.02 10.9557 139.796 10.6413 140.599 10.4109C142.684 9.84123 144.893 9.86433 146.965 10.4775C147.96 10.7718 148.872 11.2832 149.633 11.9727C150.394 12.6622 150.983 13.5117 151.356 14.4565C151.808 15.6176 152.026 16.8526 151.998 18.094C152.022 19.319 151.821 20.5382 151.403 21.6939C151.051 22.6472 150.5 23.5191 149.784 24.255C149.095 24.9479 148.251 25.4775 147.319 25.8032C146.304 26.1488 145.236 26.3182 144.161 26.3038ZM143.612 23.5084C145.075 23.5084 146.235 23.0743 147.09 22.2061C147.946 21.338 148.373 19.9625 148.373 18.0796C148.395 17.2422 148.269 16.4074 148.002 15.6111C147.793 14.9957 147.454 14.4298 147.007 13.9501C146.599 13.5272 146.088 13.2108 145.522 13.0298C144.928 12.8364 144.306 12.7386 143.68 12.7405C143.056 12.7264 142.435 12.8095 141.838 12.9864C141.375 13.135 140.928 13.3289 140.504 13.5652V22.6171C140.919 22.8972 141.374 23.1139 141.856 23.2595C142.424 23.4324 143.017 23.5164 143.612 23.5084Z" fill="#777777"/>
<path d="M157.567 20.3137C157.881 21.6152 158.493 22.5803 159.401 23.209C160.31 23.8377 161.473 24.151 162.889 24.149C163.774 24.1602 164.653 24.0091 165.485 23.7031C166.151 23.4712 166.785 23.1511 167.369 22.751C167.654 22.8912 167.893 23.1106 168.06 23.3836C168.227 23.6567 168.314 23.9722 168.312 24.2936C168.306 24.6962 168.15 25.0817 167.876 25.3722C167.541 25.7348 167.138 26.0257 166.691 26.2278C166.123 26.488 165.526 26.6772 164.913 26.7912C164.186 26.9337 163.446 27.0033 162.705 26.9991C161.499 27.0145 160.298 26.8292 159.15 26.4508C158.126 26.1141 157.188 25.5525 156.403 24.8058C155.617 24.0497 155.009 23.1228 154.625 22.0943C154.189 20.9006 153.978 19.6343 154.003 18.3614C153.975 17.1291 154.176 15.9025 154.595 14.746C154.961 13.7708 155.523 12.8841 156.246 12.1429C156.947 11.443 157.785 10.9 158.705 10.5492C159.674 10.1797 160.702 9.99387 161.736 10.0008C162.748 9.98625 163.754 10.1662 164.7 10.5311C165.551 10.864 166.329 11.3647 166.99 12.0043C167.634 12.6382 168.139 13.403 168.472 14.2489C168.827 15.152 169.004 16.1173 168.993 17.09C169.013 17.3153 168.988 17.5424 168.919 17.7575C168.849 17.9725 168.738 18.1708 168.59 18.3403C168.256 18.6331 167.843 18.8186 167.405 18.8736L157.567 20.3137ZM161.742 12.7816C161.172 12.7664 160.605 12.871 160.076 13.0887C159.548 13.3064 159.069 13.6326 158.67 14.047C157.85 14.8906 157.418 16.0957 157.375 17.6624L165.672 16.4573C165.605 15.4806 165.213 14.5561 164.56 13.8361C163.895 13.1311 162.955 12.7786 161.742 12.7786V12.7816Z" fill="#777777"/>
<path d="M176 2.50002C176 2.9941 175.854 3.4771 175.579 3.88803C175.305 4.29896 174.915 4.61939 174.459 4.80886C174.002 4.99834 173.5 5.04835 173.015 4.9526C172.531 4.85684 172.085 4.61961 171.735 4.27085C171.385 3.9221 171.147 3.47746 171.049 2.99309C170.952 2.50871 171 2.00633 171.188 1.54936C171.376 1.0924 171.695 0.701352 172.105 0.4256C172.515 0.149848 172.997 0.00175684 173.491 2.72737e-05C173.82 -0.00151104 174.147 0.0620392 174.451 0.187023C174.756 0.312006 175.032 0.495957 175.266 0.728294C175.499 0.960632 175.684 1.23677 175.81 1.54083C175.936 1.84489 176 2.17087 176 2.50002Z" fill="#0069FF"/>
</svg>
