<svg width="16" height="21" viewBox="0 0 16 21" fill="none" xmlns="http://www.w3.org/2000/svg">
<path fill-rule="evenodd" clip-rule="evenodd" d="M13.5487 7.0001C12.7829 5.74175 11.1271 3.67011 8.5637 0.754762C8.2645 0.414482 7.7342 0.415182 7.4359 0.756252C4.88065 3.67783 3.22597 5.74805 2.45489 6.99571C-0.0846788 11.1049 -0.275909 14.9389 2.56528 17.751C5.63862 20.793 10.3621 20.792 13.4355 17.7512C16.2743 14.9425 16.0858 11.169 13.5487 7.0001ZM3.73087 7.78429C4.39019 6.71747 5.8183 4.91206 8.0019 2.39071C10.1889 4.90415 11.6153 6.70851 12.2673 7.77991C14.4829 11.4205 14.6344 14.4548 12.3805 16.6849C9.8915 19.1475 6.1092 19.1483 3.62047 16.685C1.36463 14.4522 1.51867 11.3638 3.73087 7.78429Z" fill="black"/>
<path d="M8.73661 16.2967C10.3588 15.7579 11.4749 14.2362 11.4749 12.5C11.4749 12.0858 11.1391 11.75 10.7249 11.75C10.3107 11.75 9.97491 12.0858 9.97491 12.5C9.97491 13.5852 9.27701 14.5366 8.26381 14.8732C7.87071 15.0038 7.65791 15.4283 7.78841 15.8214C7.91901 16.2145 8.34361 16.4273 8.73661 16.2967Z" fill="black"/>
</svg>
