<svg xmlns="http://www.w3.org/2000/svg" width="24" height="24" viewBox="0 0 24 24"> <g fill="#000" fill-rule="nonzero"> <path d="M21.365 18.657L10.74 15.81c-.708-.19-.424-1.253.285-1.063l10.625 2.847c.708.19.424 1.253-.285 1.063z"/> <path d="M11.373 16.368a.55.55 0 0 0 .69.857l1.207-.97a.55.55 0 0 0 .168-.628l-.56-1.444a.55.55 0 0 0-1.026.398l.415 1.069-.894.718zM21.016 17.036a.55.55 0 0 0-.689-.857l-1.207.97a.55.55 0 0 0-.169.628l.561 1.444a.55.55 0 0 0 1.026-.398l-.415-1.069.893-.718zM17.087 22.157L14.24 11.532c-.19-.709.873-.993 1.063-.285l2.847 10.625c.19.709-.873.993-1.063.285z"/> <path d="M14.074 12.36a.55.55 0 1 0-.398 1.025l1.444.56a.55.55 0 0 0 .628-.168l.97-1.208a.55.55 0 1 0-.857-.689l-.719.894-1.068-.415zM18.316 21.045a.55.55 0 0 0 .398-1.026l-1.444-.56a.55.55 0 0 0-.628.168l-.97 1.208a.55.55 0 0 0 .857.689l.718-.894 1.07.415zM20.473 13.202l-7.778 7.778c-.519.519-1.297-.26-.778-.778l7.778-7.778c.519-.519 1.296.26.778.778z"/> <path d="M13.495 20.71a.55.55 0 1 0 1.087-.167l-.237-1.532a.55.55 0 0 0-.46-.46l-1.53-.236a.55.55 0 1 0-.169 1.087l1.134.175.175 1.133zM18.895 12.694a.55.55 0 0 0-1.087.168l.237 1.53a.55.55 0 0 0 .46.46l1.53.237a.55.55 0 0 0 .168-1.087l-1.133-.175-.175-1.133zM7 13.875c-2.38 0-4.292-2.052-4.292-4.563 0-.803.375-1.802 1.04-2.99.261-.466.564-.953.9-1.454A32.891 32.891 0 0 1 6.52 2.349L7 1.775l.48.574a32.891 32.891 0 0 1 1.873 2.519c.335.501.638.988.899 1.454.665 1.188 1.04 2.187 1.04 2.99 0 2.51-1.911 4.563-4.292 4.563zM6.922 3.851a31.661 31.661 0 0 0-1.236 1.713 20.47 20.47 0 0 0-.847 1.37c-.569 1.014-.88 1.846-.88 2.378 0 1.84 1.371 3.313 3.041 3.313s3.042-1.473 3.042-3.313c0-.532-.312-1.364-.88-2.379a20.47 20.47 0 0 0-.848-1.37A31.661 31.661 0 0 0 7 3.752l-.078.1z"/> </g> </svg>